<svg width="568" height="355" viewBox="0 0 568 355" fill="none" xmlns="http://www.w3.org/2000/svg">
<g filter="url(#filter0_d)">
<rect x="16" y="16" width="122" height="152" rx="16" fill="#507594"/>
<path d="M26.6152 44.918C26.6543 47.6523 28.8711 49.2441 32.4648 49.2441C36.0977 49.2441 38.4121 47.457 38.4121 44.6543C38.4121 42.4277 37.1621 41.168 34.3789 40.6309L32.5527 40.2891C31.0781 39.9863 30.4531 39.5664 30.4531 38.8047C30.4531 37.9453 31.2832 37.3789 32.5332 37.3789C33.8223 37.3789 34.7695 37.9941 34.8379 39.0195H38.1387C38.0996 36.373 36.0195 34.6641 32.4941 34.6641C29.2324 34.6641 26.8887 36.4219 26.8887 39.1562C26.8887 41.2949 28.2266 42.7012 30.8242 43.1992L32.6699 43.5605C34.2715 43.8926 34.8672 44.2734 34.8672 45.0547C34.8672 45.9043 33.959 46.5293 32.5625 46.5293C31.2344 46.5293 30.1504 45.8848 30.0234 44.918H26.6152ZM39.616 49H43.0828V34.9082H39.616V49ZM49.5406 40.5723C50.6344 40.5723 51.4059 41.334 51.4645 42.4668H47.5973C47.6852 41.3633 48.4762 40.5723 49.5406 40.5723ZM51.5426 45.6406C51.2984 46.3633 50.5758 46.8027 49.648 46.8027C48.398 46.8027 47.5484 45.9238 47.5484 44.6543V44.4395H54.7262V43.4629C54.7262 40.2109 52.6852 38.1113 49.482 38.1113C46.2301 38.1113 44.1891 40.2988 44.1891 43.7363C44.1891 47.1738 46.2105 49.2539 49.5992 49.2539C52.3824 49.2539 54.3355 47.8379 54.6676 45.6406H51.5426ZM60.8031 40.5723C61.8969 40.5723 62.6684 41.334 62.727 42.4668H58.8598C58.9477 41.3633 59.7387 40.5723 60.8031 40.5723ZM62.8051 45.6406C62.5609 46.3633 61.8383 46.8027 60.9105 46.8027C59.6605 46.8027 58.8109 45.9238 58.8109 44.6543V44.4395H65.9887V43.4629C65.9887 40.2109 63.9477 38.1113 60.7445 38.1113C57.4926 38.1113 55.4516 40.2988 55.4516 43.7363C55.4516 47.1738 57.473 49.2539 60.8617 49.2539C63.6449 49.2539 65.598 47.8379 65.9301 45.6406H62.8051ZM73.7746 38.209C72.2414 38.209 71.0891 38.9805 70.552 40.2598H70.4836V38.3652H67.0363V52.4375H70.5031V47.1836H70.5715C71.0891 48.4141 72.2609 49.1562 73.8234 49.1562C76.4699 49.1562 78.0227 47.1543 78.0227 43.6875C78.0227 40.2109 76.4602 38.209 73.7746 38.209ZM72.4855 46.4512C71.2648 46.4512 70.4934 45.377 70.4836 43.6875C70.4934 42.0078 71.2746 40.9141 72.4855 40.9141C73.7062 40.9141 74.4875 41.998 74.4875 43.6875C74.4875 45.377 73.716 46.4512 72.4855 46.4512Z" fill="#F9F9F9"/>
<path d="M60.8424 135.678C57.1802 134.934 53.3802 135.041 49.8531 135.986L45.5409 137.142C44.9322 137.305 44.5215 136.977 44.3731 136.829C44.2247 136.68 43.8971 136.27 44.0602 135.661L45.3425 130.876C46.2678 127.423 46.4209 123.825 45.7853 120.472C45.5328 119.14 45.4048 117.722 45.4048 116.257C45.4048 114.793 45.5328 113.375 45.7853 112.043C46.4209 108.69 46.2678 105.092 45.3425 101.639L44.0602 96.8536C43.8971 96.245 44.2247 95.8343 44.3731 95.6859C44.5215 95.5376 44.9322 95.2099 45.5408 95.373L49.8531 96.5285C52.3329 97.1928 54.909 97.4459 57.5101 97.2801C58.0657 97.2447 58.4874 96.7656 58.4521 96.2099C58.4167 95.6543 57.9369 95.2319 57.3819 95.2679C55 95.4197 52.6425 95.1884 50.375 94.5809L46.0627 93.4254C44.9368 93.1237 43.7719 93.4358 42.9476 94.26C42.123 95.0846 41.8111 96.2491 42.1128 97.3754L43.3951 102.161C44.2424 105.323 44.3839 108.61 43.8045 111.667C43.5286 113.122 43.3887 114.667 43.3887 116.257C43.3887 117.848 43.5286 119.392 43.8045 120.847C44.3839 123.905 44.2423 127.192 43.3951 130.354L42.1128 135.139C41.8111 136.265 42.123 137.43 42.9476 138.254C43.5651 138.872 44.3733 139.202 45.2133 139.202C45.4948 139.202 45.78 139.165 46.0627 139.089L50.3749 137.934C53.6023 137.069 57.0834 136.972 60.4414 137.653C60.9869 137.764 61.5191 137.412 61.6298 136.866C61.7407 136.321 61.3881 135.788 60.8424 135.678V135.678Z" fill="#F9F9F9"/>
<path d="M109.743 130.354C108.895 127.192 108.754 123.905 109.333 120.847C109.609 119.392 109.749 117.848 109.749 116.257C109.749 114.667 109.609 113.123 109.333 111.667C108.754 108.61 108.895 105.323 109.743 102.161L111.025 97.3756C111.326 96.2494 111.015 95.0847 110.19 94.2603C109.366 93.4359 108.201 93.124 107.075 93.4255L102.763 94.581C99.0739 95.5696 95.117 95.5544 91.3197 94.5375C87.0534 93.3952 82.0905 92.8159 76.5687 92.8159C71.0469 92.8159 66.0839 93.3952 61.8177 94.5375C61.2798 94.6815 60.9606 95.2343 61.1047 95.772C61.2486 96.3099 61.8013 96.6292 62.3392 96.485C66.4353 95.3881 71.2228 94.8321 76.5687 94.8321C81.9145 94.8321 86.7019 95.3883 90.7982 96.485C94.9366 97.5934 99.2543 97.6082 103.284 96.5285L107.597 95.373C108.205 95.2097 108.616 95.5375 108.764 95.6859C108.913 95.8343 109.24 96.2451 109.077 96.8537L107.795 101.639C106.87 105.092 106.717 108.69 107.352 112.043C107.605 113.375 107.733 114.793 107.733 116.257C107.733 117.722 107.605 119.14 107.352 120.472C106.717 123.825 106.87 127.423 107.795 130.876L109.077 135.661C109.24 136.27 108.913 136.68 108.764 136.829C108.616 136.977 108.205 137.305 107.597 137.142L103.285 135.986C99.2546 134.906 94.937 134.921 90.7982 136.03C90.1091 136.214 89.3953 136.384 88.6633 136.539C89.3715 135.268 89.8871 133.872 90.1615 132.385C92.3295 131.69 93.9479 128.917 94.1269 126.486C94.2625 124.647 93.5461 123.536 92.9213 122.929C92.7196 122.732 92.4933 122.559 92.2493 122.405V116.075C92.2493 109.804 87.147 104.701 80.8755 104.701H72.3508C66.0792 104.701 60.977 109.804 60.977 116.075V122.35C60.6982 122.517 60.4422 122.709 60.2163 122.929C59.5915 123.536 58.8751 124.647 59.0106 126.486C59.1991 129.045 60.9435 131.85 63.163 132.439C64.3744 138.861 70.0437 143.612 76.6574 143.612C80.74 143.612 84.4603 141.8 86.9966 138.904C88.4996 138.655 89.9539 138.343 91.3198 137.977C95.1171 136.96 99.0739 136.945 102.763 137.934L107.075 139.089C107.358 139.165 107.643 139.202 107.924 139.202C108.764 139.202 109.573 138.872 110.19 138.254C111.015 137.43 111.326 136.265 111.025 135.139L109.743 130.354ZM76.6574 141.595C70.7927 141.595 65.7985 137.217 65.0401 131.412C64.9738 130.904 64.5446 130.528 64.0263 130.534C62.7174 130.553 61.1729 128.396 61.0212 126.338C60.9583 125.483 61.1605 124.823 61.622 124.374C62.0595 123.948 62.7396 123.69 63.5888 123.628C63.6806 123.621 63.7701 123.621 63.8625 123.627C64.1405 123.647 64.4156 123.549 64.6199 123.359C64.8242 123.168 64.9402 122.901 64.9402 122.622V118.314C64.9402 116.559 66.3678 115.132 68.1224 115.132H78.8539C79.4106 115.132 79.8619 114.68 79.8619 114.124C79.8619 113.567 79.4106 113.116 78.8539 113.116H68.1224C65.5423 113.116 63.3962 115.005 62.993 117.473V116.076C62.993 110.916 67.1908 106.718 72.3506 106.718H80.8753C86.0351 106.718 90.2329 110.916 90.2329 116.076V117.044C89.6647 114.79 87.6206 113.116 85.1921 113.116H83.7823C83.2256 113.116 82.7743 113.567 82.7743 114.124C82.7743 114.68 83.2256 115.132 83.7823 115.132H85.1922C86.9469 115.132 88.3743 116.559 88.3743 118.314V122.615C88.3743 122.884 88.4814 123.141 88.6717 123.33C88.8606 123.518 89.1161 123.624 89.3823 123.624H89.3883C89.4512 123.623 89.502 123.625 89.5488 123.628C90.3979 123.691 91.0781 123.949 91.5156 124.374C91.9772 124.823 92.1792 125.484 92.1164 126.338C91.9696 128.331 90.5022 130.447 89.2088 130.532C88.7285 130.563 88.3375 130.93 88.2753 131.408C87.5187 137.215 82.5242 141.595 76.6574 141.595V141.595Z" fill="#F9F9F9"/>
<path d="M78.9127 131.623C78.2955 132.158 77.4631 132.452 76.5688 132.452C75.6745 132.452 74.8421 132.158 74.2249 131.623C73.8042 131.258 73.1675 131.304 72.803 131.725C72.4384 132.146 72.484 132.782 72.9048 133.147C73.8884 133.999 75.1897 134.468 76.5688 134.468C77.9479 134.468 79.2492 133.999 80.2328 133.147C80.6536 132.782 80.6992 132.146 80.3346 131.725C79.9702 131.304 79.3333 131.258 78.9127 131.623V131.623Z" fill="#F9F9F9"/>
<path d="M84.7604 124.35C84.2292 124.184 83.6636 124.481 83.498 125.012C83.3481 125.493 82.9083 125.816 82.4036 125.816C81.899 125.816 81.4592 125.493 81.3093 125.012C81.1436 124.481 80.5785 124.184 80.0469 124.35C79.5154 124.516 79.2187 125.081 79.3844 125.612C79.7983 126.94 81.0116 127.833 82.4035 127.833C83.7954 127.833 85.0087 126.94 85.4226 125.612C85.5886 125.081 85.292 124.516 84.7604 124.35V124.35Z" fill="#F9F9F9"/>
<path d="M73.9299 125.612C74.0956 125.081 73.7991 124.516 73.2675 124.35C72.7362 124.184 72.1707 124.481 72.005 125.012C71.8551 125.493 71.4153 125.816 70.9108 125.816C70.4064 125.816 69.9664 125.493 69.8165 125.012C69.6508 124.481 69.0856 124.184 68.5541 124.35C68.0226 124.516 67.7259 125.081 67.8916 125.612C68.3055 126.94 69.5189 127.833 70.9107 127.833C72.3028 127.833 73.5161 126.94 73.9299 125.612Z" fill="#F9F9F9"/>
<path d="M93.2243 109.081C93.2243 109.908 93.6991 110.18 94.5131 110.18H100.55C101.188 110.18 101.703 109.854 101.703 109.243C101.703 108.633 101.188 108.307 100.55 108.307H96.209L101.324 102.23C101.527 101.999 101.636 101.7 101.636 101.429C101.636 100.656 101.174 100.412 100.605 100.412H94.7439C94.1062 100.412 93.5907 100.737 93.5907 101.348C93.5907 101.958 94.1062 102.284 94.7439 102.284H98.6239L93.5907 108.226C93.3872 108.47 93.2243 108.728 93.2243 109.081V109.081Z" fill="#F9F9F9"/>
<path d="M98.1737 92.7486H102.899C103.242 92.7486 103.649 92.5581 103.649 92.0246C103.649 91.491 103.242 91.3005 102.899 91.3005H99.8506L103.28 87.5403C103.458 87.3498 103.573 87.1211 103.573 86.9178C103.573 86.4351 103.306 86.1048 102.81 86.1048H98.4023C98.0593 86.1048 97.6529 86.2955 97.6529 86.829C97.6529 87.3625 98.0593 87.553 98.4023 87.553H101.083L97.5894 91.3511C97.4243 91.529 97.3481 91.7576 97.3481 92.0244C97.3481 92.3929 97.6275 92.7486 98.1737 92.7486Z" fill="#F9F9F9"/>
<path d="M90.7351 86.9712H94.2711C94.5278 86.9712 94.8319 86.8286 94.8319 86.4294C94.8319 86.0301 94.5277 85.8876 94.2711 85.8876H91.9898L94.5563 83.0741C94.6894 82.9315 94.7749 82.7604 94.7749 82.6083C94.7749 82.2471 94.5753 82 94.2045 82H90.9062C90.6495 82 90.3454 82.1426 90.3454 82.5419C90.3454 82.9412 90.6496 83.0837 90.9062 83.0837H92.9118L90.2978 85.9257C90.1743 86.0589 90.1173 86.2299 90.1173 86.4295C90.1173 86.705 90.3265 86.9712 90.7351 86.9712V86.9712Z" fill="#F9F9F9"/>
</g>
<g filter="url(#filter1_d)">
<rect x="154" y="16" width="122" height="152" rx="16" fill="#FFE8C9"/>
<path d="M174.648 37.6133H176.738C178.018 37.6133 178.848 38.4238 178.848 39.625C178.848 40.8457 178.066 41.6172 176.748 41.6172H174.648V37.6133ZM174.648 44.0684H176.475L178.896 49H182.92L180.098 43.541C181.641 42.8672 182.51 41.2852 182.51 39.5566C182.51 36.6465 180.615 34.9082 177.1 34.9082H171.064V49H174.648V44.0684ZM188.645 40.5723C189.739 40.5723 190.511 41.334 190.569 42.4668H186.702C186.79 41.3633 187.581 40.5723 188.645 40.5723ZM190.647 45.6406C190.403 46.3633 189.68 46.8027 188.753 46.8027C187.503 46.8027 186.653 45.9238 186.653 44.6543V44.4395H193.831V43.4629C193.831 40.2109 191.79 38.1113 188.587 38.1113C185.335 38.1113 183.294 40.2988 183.294 43.7363C183.294 47.1738 185.315 49.2539 188.704 49.2539C191.487 49.2539 193.44 47.8379 193.772 45.6406H190.647ZM199.283 46.7734C198.462 46.7734 197.906 46.3633 197.906 45.6895C197.906 45.0645 198.414 44.6445 199.322 44.5762L201.255 44.4492V45.1816C201.255 46.1289 200.337 46.7734 199.283 46.7734ZM198.052 49.1562C199.332 49.1562 200.63 48.5605 201.207 47.4863H201.275V49H204.644V41.7051C204.644 39.5664 202.759 38.1113 199.918 38.1113C196.949 38.1113 195.093 39.5469 194.996 41.7246H198.111C198.209 41.0703 198.804 40.582 199.742 40.582C200.65 40.582 201.255 41.0508 201.255 41.9004V42.5059L198.765 42.6523C196.011 42.8184 194.478 43.9316 194.478 45.9238C194.478 47.8477 196.08 49.1562 198.052 49.1562ZM209.92 49.1562C211.502 49.1562 212.733 48.3066 213.162 47.1738H213.231V49H216.668V34.9082H213.211V40.2402H213.143C212.674 39.0488 211.502 38.209 209.959 38.209C207.303 38.209 205.682 40.2598 205.682 43.6582C205.682 47.0957 207.274 49.1562 209.92 49.1562ZM211.219 40.9141C212.459 40.9141 213.221 41.9785 213.221 43.6875C213.221 45.416 212.469 46.4512 211.219 46.4512C209.969 46.4512 209.227 45.4062 209.227 43.6875C209.227 41.9785 209.979 40.9141 211.219 40.9141Z" fill="#30272D"/>
<path d="M218.807 112.563C219.061 112.03 218.833 111.392 218.3 111.139C217.766 110.885 217.129 111.113 216.875 111.646C216.418 112.609 215.435 113.23 214.37 113.23C213.305 113.23 212.322 112.609 211.866 111.646C211.612 111.113 210.975 110.885 210.441 111.139C209.908 111.392 209.68 112.03 209.933 112.563C210.742 114.268 212.484 115.369 214.37 115.369C216.257 115.369 217.998 114.268 218.807 112.563V112.563Z" fill="black"/>
<path d="M206.472 108.159C207.325 108.159 208.016 107.13 208.016 105.86C208.016 104.59 207.325 103.561 206.472 103.561C205.619 103.561 204.927 104.59 204.927 105.86C204.927 107.13 205.619 108.159 206.472 108.159Z" fill="black"/>
<path d="M222.269 108.159C223.122 108.159 223.814 107.13 223.814 105.86C223.814 104.59 223.122 103.561 222.269 103.561C221.416 103.561 220.725 104.59 220.725 105.86C220.725 107.13 221.416 108.159 222.269 108.159Z" fill="black"/>
<path d="M237.615 123.41C237.49 122.833 236.921 122.466 236.344 122.591L224.502 125.158C223.925 125.283 223.559 125.852 223.684 126.429C223.792 126.93 224.235 127.272 224.728 127.272C224.803 127.272 224.879 127.264 224.955 127.248L236.796 124.681C237.374 124.556 237.74 123.987 237.615 123.41Z" fill="black"/>
<path d="M236.343 126.565L224.502 129.131C223.925 129.256 223.559 129.826 223.684 130.403C223.792 130.904 224.235 131.246 224.728 131.246C224.803 131.246 224.879 131.238 224.955 131.221L236.796 128.655C237.373 128.53 237.74 127.961 237.615 127.383C237.49 126.806 236.921 126.44 236.343 126.565Z" fill="black"/>
<path d="M243.201 119.875H242.561V117.986C242.561 116.665 241.971 115.432 240.942 114.603C239.914 113.773 238.584 113.458 237.293 113.739L231.719 114.947C232.09 113.945 232.311 112.887 232.367 111.81C232.403 111.106 232.431 110.4 232.454 109.693C234.601 109.225 236.214 107.31 236.214 105.025C236.214 102.713 234.564 100.779 232.381 100.339C232.252 97.66 232.03 94.984 231.717 92.3228C234.219 89.6531 236.186 86.679 236.803 84.492C237.195 83.1044 237.083 81.9942 236.472 81.1923C235.907 80.4523 235.137 80.0588 234.246 80.0544C233.225 80.0507 232.109 80.5403 230.839 81.5502C230.887 80.6338 230.726 79.8772 230.357 79.2896C229.987 78.7012 229.231 78 227.727 78C225.728 78 224.157 79.1221 223.01 80.4186C222.898 79.9013 222.707 79.4185 222.404 79.021C221.896 78.3532 221.154 78 220.256 78C218.523 78 217.156 79.4373 215.796 81.1799C215.226 80.8584 214.435 80.4499 213.499 80.0665C213.075 79.8936 212.637 79.7336 212.195 79.5895C210.624 79.0856 209.149 78.866 207.813 78.9367C207.803 78.9372 207.79 78.9382 207.777 78.9393C207.774 78.9394 207.77 78.9396 207.767 78.9399C207.569 78.9511 207.377 78.9687 207.177 78.9938C204.873 79.2868 203.053 80.4542 201.756 82.4684C199.435 81.6556 195.691 81.3627 193.651 84.6701C193.341 85.1727 193.497 85.8315 193.999 86.1416C194.174 86.2496 194.368 86.301 194.56 86.301C194.918 86.301 195.269 86.1207 195.471 85.793C197.378 82.7018 201.566 84.6891 201.741 84.7739C202.264 85.0311 202.896 84.8225 203.163 84.3048C204.146 82.4002 205.547 81.3569 207.444 81.1156C207.59 81.0974 207.732 81.0844 207.877 81.0758C207.899 81.075 207.922 81.0734 207.945 81.0716C209.016 81.0175 210.226 81.2043 211.537 81.6246C211.927 81.7514 212.315 81.8935 212.691 82.0465C213.394 82.3348 214.01 82.6421 214.487 82.9004C213.365 84.3681 212.208 85.7501 211.005 86.1945C210.451 86.3991 210.167 87.0141 210.372 87.5681C210.577 88.1222 211.192 88.4054 211.746 88.2009C213.721 87.4715 215.237 85.4607 216.703 83.5162C217.897 81.9329 219.25 80.1387 220.256 80.1387C220.543 80.1387 220.636 80.2298 220.702 80.3152C221.228 81.0067 220.973 83.1468 220.635 84.3744C220.483 84.9253 220.79 85.4989 221.333 85.6765C221.877 85.8545 222.464 85.5732 222.666 85.0385C222.685 84.9895 224.606 80.1387 227.727 80.1387C228.364 80.1387 228.501 80.356 228.546 80.4273C229.042 81.2141 228.364 83.4786 227.75 84.7605C227.514 85.2529 227.686 85.8448 228.151 86.1328C228.615 86.4208 229.222 86.3122 229.558 85.881C229.565 85.8713 230.319 84.9071 231.338 83.9484C233.02 82.3665 233.919 82.1929 234.231 82.1929H234.235C234.422 82.1939 234.585 82.2447 234.771 82.4894C234.943 82.7141 234.933 83.2453 234.745 83.9107C233.695 87.6283 227.682 94.3885 222.972 96.2085C216.826 98.5831 208.611 97.3001 204.66 93.3487C204.374 93.0627 203.951 92.9626 203.568 93.0898C203.184 93.2171 202.904 93.5499 202.846 93.9501C202.843 93.9663 202.599 95.5907 201.747 97.2127C200.69 99.2252 199.223 100.246 197.386 100.246C197.384 100.246 197.383 100.246 197.382 100.246C197.356 100.245 197.331 100.244 197.306 100.244C196.748 100.244 196.213 100.341 195.715 100.518C194.618 95.8794 194.191 92.1313 194.45 89.3679C194.505 88.7799 194.074 88.2585 193.486 88.2033C192.898 88.1483 192.376 88.58 192.321 89.168C192.026 92.3133 192.53 96.5504 193.816 101.763C193.017 102.618 192.527 103.765 192.527 105.025C192.527 107.31 194.14 109.226 196.288 109.693C196.311 110.401 196.339 111.107 196.375 111.81C196.428 112.841 196.632 113.857 196.976 114.823L191.976 113.739C190.685 113.458 189.355 113.773 188.326 114.603C187.297 115.432 186.707 116.665 186.707 117.986V119.875H186.067C183.825 119.875 182 121.7 182 123.943V126.633C182 128.876 183.825 130.701 186.067 130.701H186.707V142.087C186.707 144.119 188.148 145.906 190.134 146.336L211.542 150.976C211.543 150.976 211.544 150.976 211.545 150.976C211.575 150.983 211.605 150.987 211.636 150.991C211.642 150.992 211.649 150.993 211.656 150.994C211.691 150.998 211.727 151 211.764 151C211.765 151 211.767 151 211.768 151H217.5C217.502 151 217.503 151 217.505 151C217.541 151 217.577 150.998 217.612 150.994C217.619 150.993 217.626 150.992 217.633 150.991C217.663 150.987 217.693 150.983 217.723 150.976C217.724 150.976 217.725 150.976 217.727 150.976L239.134 146.336C241.12 145.906 242.561 144.119 242.561 142.087V140.629C242.561 140.039 242.082 139.56 241.492 139.56C240.901 139.56 240.422 140.039 240.422 140.629V142.087C240.422 143.12 239.69 144.028 238.682 144.246L218.569 148.605V119.985L237.746 115.829C238.402 115.686 239.077 115.846 239.6 116.268C240.123 116.689 240.423 117.315 240.423 117.986V120.23C239.004 120.866 238.013 122.29 238.013 123.942V126.633C238.013 128.286 239.004 129.71 240.423 130.346V136.352C240.423 136.942 240.901 137.421 241.492 137.421C242.082 137.421 242.561 136.942 242.561 136.352V130.701H243.201C245.444 130.701 247.268 128.876 247.268 126.633V123.942C247.268 121.7 245.444 119.875 243.201 119.875V119.875ZM234.075 105.025C234.075 106.099 233.429 107.024 232.505 107.436C232.526 105.824 232.513 104.209 232.467 102.593C233.411 102.996 234.075 103.934 234.075 105.025V105.025ZM194.666 105.025C194.666 103.935 195.328 102.998 196.271 102.595C196.225 104.206 196.215 105.823 196.236 107.436C195.312 107.025 194.666 106.099 194.666 105.025ZM198.512 111.7C198.351 108.593 198.322 105.438 198.421 102.307C200.606 101.976 202.397 100.576 203.641 98.207C204.039 97.4491 204.326 96.6938 204.528 96.0498C206.707 97.6739 209.583 98.8019 212.814 99.2772C216.62 99.8371 220.501 99.4559 223.743 98.2036C225.729 97.4364 227.837 95.9784 229.776 94.2292C230.373 100.038 230.527 105.904 230.231 111.7C230.161 113.047 229.769 114.357 229.094 115.516L217.385 118.053H211.883L199.572 115.385C198.943 114.26 198.578 112.996 198.512 111.7V111.7ZM212.838 120.192H216.43V148.861H212.838V120.192ZM184.139 126.633V123.942C184.139 122.879 185.004 122.014 186.067 122.014H187.189C188.252 122.014 189.117 122.879 189.117 123.942V126.633C189.117 127.697 188.252 128.562 187.189 128.562H186.067C185.004 128.562 184.139 127.697 184.139 126.633ZM188.846 142.087V130.346C190.265 129.71 191.256 128.286 191.256 126.634V123.943C191.256 122.29 190.265 120.866 188.846 120.23V117.986C188.846 117.315 189.146 116.689 189.669 116.268C190.191 115.846 190.867 115.686 191.523 115.829L210.699 119.985V148.605L190.587 144.246C189.578 144.028 188.846 143.12 188.846 142.087V142.087ZM245.13 126.633C245.13 127.697 244.264 128.562 243.201 128.562H242.08C241.017 128.562 240.151 127.697 240.151 126.633V123.942C240.151 122.879 241.017 122.014 242.08 122.014H243.201C244.264 122.014 245.13 122.879 245.13 123.942V126.633Z" fill="black"/>
</g>
<g filter="url(#filter2_d)">
<rect x="16" y="187" width="122" height="152" rx="16" fill="#FFC579"/>
<path d="M27.0645 205.908V220H30.6484V215.869H32.9531C36.0879 215.869 38.2461 213.906 38.2461 210.898C38.2461 207.871 36.1953 205.908 33.168 205.908H27.0645ZM30.6484 208.652H32.2207C33.7246 208.652 34.623 209.443 34.623 210.908C34.623 212.383 33.7246 213.174 32.2012 213.174H30.6484V208.652ZM44.0594 211.572C45.1531 211.572 45.9246 212.334 45.9832 213.467H42.116C42.2039 212.363 42.9949 211.572 44.0594 211.572ZM46.0613 216.641C45.8172 217.363 45.0945 217.803 44.1668 217.803C42.9168 217.803 42.0672 216.924 42.0672 215.654V215.439H49.2449V214.463C49.2449 211.211 47.2039 209.111 44.0008 209.111C40.7488 209.111 38.7078 211.299 38.7078 214.736C38.7078 218.174 40.7293 220.254 44.118 220.254C46.9012 220.254 48.8543 218.838 49.1863 216.641H46.0613ZM50.2926 220H53.7594V214.404C53.7594 212.92 54.5504 212.1 56.0055 212.1C56.4156 212.1 56.816 212.178 57.109 212.295V209.346C56.8746 209.258 56.5816 209.209 56.2301 209.209C54.9801 209.209 54.1207 209.941 53.7301 211.377H53.6617V209.365H50.2926V220ZM57.6879 212.588C57.6879 214.219 58.7816 215.312 60.8617 215.752L62.8734 216.172C63.7035 216.348 64.0258 216.592 64.0258 217.021C64.0258 217.588 63.4594 217.92 62.5414 217.92C61.5258 217.92 60.891 217.451 60.7934 216.66H57.434C57.5805 218.838 59.3773 220.254 62.4828 220.254C65.4516 220.254 67.4535 218.838 67.4535 216.631C67.4535 215.02 66.5453 214.15 64.4262 213.701L62.1996 213.252C61.3988 213.086 61.0082 212.783 61.0082 212.363C61.0082 211.816 61.5551 211.445 62.4047 211.445C63.3617 211.445 63.9672 211.924 63.9965 212.686H67.1605C67.141 210.488 65.3344 209.111 62.434 209.111C59.5043 209.111 57.6879 210.459 57.6879 212.588ZM73.5012 220.254C76.8508 220.254 78.9406 218.232 78.9406 214.678C78.9406 211.191 76.8215 209.111 73.5012 209.111C70.2004 209.111 68.0617 211.201 68.0617 214.678C68.0617 218.223 70.1516 220.254 73.5012 220.254ZM73.5012 217.715C72.3098 217.715 71.5773 216.631 71.5773 214.688C71.5773 212.773 72.3293 211.65 73.5012 211.65C74.6828 211.65 75.4348 212.773 75.4348 214.688C75.4348 216.631 74.6828 217.715 73.5012 217.715ZM79.9785 220H83.4453V213.984C83.4453 212.812 84.1289 211.982 85.2324 211.982C86.3652 211.982 86.9414 212.705 86.9414 213.916V220H90.3984V213.174C90.3984 210.645 89.0801 209.16 86.707 209.16C85.0762 209.16 83.9629 209.951 83.416 211.367H83.3477V209.365H79.9785V220ZM96.1336 217.773C95.3133 217.773 94.7566 217.363 94.7566 216.689C94.7566 216.064 95.2645 215.645 96.1727 215.576L98.1062 215.449V216.182C98.1062 217.129 97.1883 217.773 96.1336 217.773ZM94.9031 220.156C96.1824 220.156 97.4812 219.561 98.0574 218.486H98.1258V220H101.495V212.705C101.495 210.566 99.6102 209.111 96.7684 209.111C93.7996 209.111 91.9441 210.547 91.8465 212.725H94.9617C95.0594 212.07 95.6551 211.582 96.5926 211.582C97.5008 211.582 98.1062 212.051 98.1062 212.9V213.506L95.616 213.652C92.8621 213.818 91.3289 214.932 91.3289 216.924C91.3289 218.848 92.9305 220.156 94.9031 220.156ZM102.914 220H106.38V205.908H102.914V220ZM27.0645 229.908V244H30.6484V239.869H32.9531C36.0879 239.869 38.2461 237.906 38.2461 234.898C38.2461 231.871 36.1953 229.908 33.168 229.908H27.0645ZM30.6484 232.652H32.2207C33.7246 232.652 34.623 233.443 34.623 234.908C34.623 236.383 33.7246 237.174 32.2012 237.174H30.6484V232.652ZM39.3035 244H42.7703V238.404C42.7703 236.92 43.5613 236.1 45.0164 236.1C45.4266 236.1 45.827 236.178 46.1199 236.295V233.346C45.8855 233.258 45.5926 233.209 45.241 233.209C43.991 233.209 43.1316 233.941 42.741 235.377H42.6727V233.365H39.3035V244ZM51.7184 244.254C55.068 244.254 57.1578 242.232 57.1578 238.678C57.1578 235.191 55.0387 233.111 51.7184 233.111C48.4176 233.111 46.2789 235.201 46.2789 238.678C46.2789 242.223 48.3687 244.254 51.7184 244.254ZM51.7184 241.715C50.527 241.715 49.7945 240.631 49.7945 238.688C49.7945 236.773 50.5465 235.65 51.7184 235.65C52.9 235.65 53.652 236.773 53.652 238.688C53.652 240.631 52.9 241.715 51.7184 241.715ZM61.682 233.365H58.225V244.342C58.225 245.055 57.8637 245.348 57.0043 245.348C56.8676 245.348 56.6918 245.338 56.5941 245.328V247.789C56.7797 247.809 57.2875 247.828 57.6098 247.828C60.2172 247.828 61.682 246.637 61.682 244.479V233.365ZM59.9535 232.506C60.9594 232.506 61.7211 231.764 61.7211 230.807C61.7211 229.85 60.9594 229.117 59.9535 229.117C58.9477 229.117 58.1762 229.85 58.1762 230.807C58.1762 231.764 58.9477 232.506 59.9535 232.506ZM68.1008 235.572C69.1945 235.572 69.966 236.334 70.0246 237.467H66.1574C66.2453 236.363 67.0363 235.572 68.1008 235.572ZM70.1027 240.641C69.8586 241.363 69.1359 241.803 68.2082 241.803C66.9582 241.803 66.1086 240.924 66.1086 239.654V239.439H73.2863V238.463C73.2863 235.211 71.2453 233.111 68.0422 233.111C64.7902 233.111 62.7492 235.299 62.7492 238.736C62.7492 242.174 64.7707 244.254 68.1594 244.254C70.9426 244.254 72.8957 242.838 73.2277 240.641H70.1027ZM84.4219 237.564C84.334 234.898 82.3906 233.111 79.3926 233.111C76.082 233.111 74.0117 235.23 74.0117 238.678C74.0117 242.164 76.082 244.254 79.4121 244.254C82.4102 244.254 84.334 242.574 84.4219 239.869H81.248C81.1211 240.973 80.4668 241.627 79.4512 241.627C78.2305 241.627 77.5176 240.572 77.5176 238.678C77.5176 236.803 78.2305 235.748 79.4512 235.748C80.457 235.748 81.1211 236.461 81.2383 237.564H84.4219ZM86.2703 230.982V233.365H84.825V235.914H86.2703V241.08C86.2703 243.17 87.3641 244.02 90.1277 244.02C90.8016 244.02 91.3094 243.961 91.6414 243.893V241.432C91.4363 241.471 91.2313 241.48 90.9578 241.48C90.1277 241.48 89.7371 241.109 89.7371 240.377V235.914H91.6512V233.365H89.7371V230.982H86.2703ZM92.6012 236.588C92.6012 238.219 93.6949 239.312 95.775 239.752L97.7867 240.172C98.6168 240.348 98.9391 240.592 98.9391 241.021C98.9391 241.588 98.3727 241.92 97.4547 241.92C96.4391 241.92 95.8043 241.451 95.7066 240.66H92.3473C92.4938 242.838 94.2906 244.254 97.3961 244.254C100.365 244.254 102.367 242.838 102.367 240.631C102.367 239.02 101.459 238.15 99.3395 237.701L97.1129 237.252C96.3121 237.086 95.9215 236.783 95.9215 236.363C95.9215 235.816 96.4684 235.445 97.318 235.445C98.275 235.445 98.8805 235.924 98.9098 236.686H102.074C102.054 234.488 100.248 233.111 97.3473 233.111C94.4176 233.111 92.6012 234.459 92.6012 236.588Z" fill="#30272D"/>
<path d="M103.799 263H49.2011C46.8847 263 45 264.885 45 267.201V301.85C45 302.43 45.4704 302.9 46.05 302.9H106.95C107.529 302.9 108 302.43 108 301.85V267.201C108 264.885 106.115 263 103.799 263ZM105.9 300.8H47.1V267.201C47.1 266.042 48.0429 265.1 49.2011 265.1H103.799C104.957 265.1 105.9 266.042 105.9 267.201V300.8Z" fill="black"/>
<path d="M106.95 300.8H46.05C45.4704 300.8 45 301.27 45 301.85V307.099C45 309.415 46.8847 311.3 49.2011 311.3H103.799C106.115 311.3 108 309.415 108 307.099V301.85C108 301.27 107.53 300.8 106.95 300.8ZM105.9 307.099C105.9 308.258 104.957 309.2 103.799 309.2H49.2011C48.0429 309.2 47.1 308.258 47.1 307.099V302.9H105.9V307.099H105.9Z" fill="black"/>
<path d="M79.65 305H73.35C72.7705 305 72.3 305.47 72.3 306.05C72.3 306.63 72.7705 307.1 73.35 307.1H79.65C80.2296 307.1 80.7 306.63 80.7 306.05C80.7 305.47 80.2296 305 79.65 305Z" fill="black"/>
<path d="M102.75 267.2H50.2501C49.6705 267.2 49.2001 267.67 49.2001 268.25V301.85C49.2001 302.43 49.6705 302.9 50.2501 302.9H102.75C103.33 302.9 103.8 302.43 103.8 301.85V268.25C103.8 267.67 103.33 267.2 102.75 267.2ZM101.7 300.8H51.3V269.3H101.7V300.8Z" fill="black"/>
<path d="M90.15 317.6H62.85C61.1134 317.6 59.7 319.013 59.7 320.75C59.7 322.487 61.1134 323.9 62.85 323.9H90.1501C91.8868 323.9 93.3001 322.487 93.3001 320.75C93.3001 319.013 91.8866 317.6 90.15 317.6ZM90.15 321.8H62.85C62.2705 321.8 61.8001 321.329 61.8001 320.75C61.8001 320.172 62.2705 319.7 62.85 319.7H90.1501C90.7296 319.7 91.2 320.172 91.2 320.75C91.2 321.329 90.7296 321.8 90.15 321.8Z" fill="black"/>
<path d="M88.05 317.6C84.5661 317.6 82.8 315.127 82.8 310.25C82.8 309.671 82.3296 309.2 81.75 309.2H71.2501C70.6705 309.2 70.2001 309.671 70.2001 310.25C70.2001 315.127 68.434 317.6 64.9501 317.6C64.3705 317.6 63.9001 318.071 63.9001 318.65C63.9001 319.23 64.3705 319.7 64.9501 319.7H88.05C88.6296 319.7 89.1 319.23 89.1 318.65C89.1 318.071 88.6296 317.6 88.05 317.6ZM70.0645 317.6C71.3571 316.168 72.1183 314.035 72.2716 311.3H80.7294C80.8816 314.035 81.6429 316.168 82.9364 317.6H70.0645Z" fill="black"/>
<path d="M95.1732 293.937L92.6386 291.403L94.0487 289.992C94.3102 289.731 94.4151 289.351 94.3248 288.993C94.2345 288.635 93.9626 288.351 93.6087 288.244L83.1087 285.094C82.7381 284.983 82.3381 285.085 82.065 285.358C81.791 285.631 81.6902 286.032 81.8015 286.401L84.9515 296.901C85.0575 297.256 85.342 297.528 85.7001 297.619C86.057 297.707 86.4382 297.604 86.6997 297.342L88.1844 295.857L90.719 298.392C90.9154 298.59 91.1832 298.7 91.4614 298.7C91.7396 298.7 92.0073 298.59 92.2037 298.392L95.1731 295.422C95.5837 295.011 95.5837 294.348 95.1732 293.937ZM91.4614 296.165L89.1535 293.856C88.8858 293.589 88.5351 293.455 88.1844 293.455C87.8326 293.455 87.4819 293.59 87.2153 293.855L86.4572 294.613L84.3729 287.666L91.3207 289.75L90.508 290.563C90.2843 290.787 90.1615 291.085 90.1615 291.403C90.1615 291.721 90.2854 292.021 90.5101 292.244L92.9461 294.68L91.4614 296.165Z" fill="black"/>
<path d="M89.1 271.4H59.7C59.1205 271.4 58.6501 271.87 58.6501 272.45V277.7C58.6501 278.28 59.1205 278.75 59.7 278.75H89.1C89.6796 278.75 90.15 278.28 90.15 277.7V272.45C90.15 271.87 89.6796 271.4 89.1 271.4ZM88.05 276.65H60.75V273.5H88.05V276.65V276.65Z" fill="black"/>
<path d="M72.3 282.95H63.9C63.3204 282.95 62.85 283.42 62.85 284V288.2C62.85 288.78 63.3204 289.25 63.9 289.25H72.3C72.8796 289.25 73.35 288.78 73.35 288.2V284C73.35 283.42 72.8796 282.95 72.3 282.95ZM71.25 287.15H64.95V285.05H71.25V287.15V287.15Z" fill="black"/>
<path d="M89.1 271.4H59.7C59.1205 271.4 58.6501 271.87 58.6501 272.45V292.4C58.6501 292.979 59.1205 293.45 59.7 293.45H84.6964C85.0292 293.45 85.341 293.294 85.5385 293.027C85.737 292.76 85.7979 292.416 85.7023 292.097L84.373 287.665L88.7988 288.994C89.117 289.089 89.4614 289.028 89.7269 288.83C89.9936 288.633 90.1501 288.32 90.1501 287.988V272.45C90.15 271.87 89.6796 271.4 89.1 271.4ZM88.05 286.577L83.1076 285.094C82.737 284.983 82.337 285.085 82.0639 285.358C81.7899 285.632 81.6891 286.032 81.8004 286.403L83.2851 291.35H60.75V273.5H88.05V286.577V286.577Z" fill="black"/>
</g>
<g filter="url(#filter3_d)">
<rect x="292" y="16" width="122" height="152" rx="16" fill="#5E585C"/>
<path d="M311.834 40.2012H311.912L314.285 49H317.664L321.346 34.9082H317.645L315.74 44.4297H315.662L313.309 34.9082H310.438L308.084 44.4297H308.006L306.102 34.9082H302.4L306.082 49H309.461L311.834 40.2012ZM325.391 46.7734C324.571 46.7734 324.014 46.3633 324.014 45.6895C324.014 45.0645 324.522 44.6445 325.43 44.5762L327.364 44.4492V45.1816C327.364 46.1289 326.446 46.7734 325.391 46.7734ZM324.161 49.1562C325.44 49.1562 326.739 48.5605 327.315 47.4863H327.384V49H330.753V41.7051C330.753 39.5664 328.868 38.1113 326.026 38.1113C323.057 38.1113 321.202 39.5469 321.104 41.7246H324.22C324.317 41.0703 324.913 40.582 325.85 40.582C326.759 40.582 327.364 41.0508 327.364 41.9004V42.5059L324.874 42.6523C322.12 42.8184 320.587 43.9316 320.587 45.9238C320.587 47.8477 322.188 49.1562 324.161 49.1562ZM332.982 35.9824V38.3652H331.537V40.9141H332.982V46.0801C332.982 48.1699 334.076 49.0195 336.839 49.0195C337.513 49.0195 338.021 48.9609 338.353 48.8926V46.4316C338.148 46.4707 337.943 46.4805 337.67 46.4805C336.839 46.4805 336.449 46.1094 336.449 45.377V40.9141H338.363V38.3652H336.449V35.9824H332.982ZM344.44 40.5723C345.534 40.5723 346.305 41.334 346.364 42.4668H342.496C342.584 41.3633 343.375 40.5723 344.44 40.5723ZM346.442 45.6406C346.198 46.3633 345.475 46.8027 344.547 46.8027C343.297 46.8027 342.448 45.9238 342.448 44.6543V44.4395H349.625V43.4629C349.625 40.2109 347.584 38.1113 344.381 38.1113C341.129 38.1113 339.088 40.2988 339.088 43.7363C339.088 47.1738 341.11 49.2539 344.498 49.2539C347.282 49.2539 349.235 47.8379 349.567 45.6406H346.442ZM350.673 49H354.14V43.4043C354.14 41.9199 354.931 41.0996 356.386 41.0996C356.796 41.0996 357.196 41.1777 357.489 41.2949V38.3457C357.255 38.2578 356.962 38.209 356.611 38.209C355.361 38.209 354.501 38.9414 354.111 40.377H354.042V38.3652H350.673V49Z" fill="#F9F9F9"/>
<path d="M359.274 91.8911C357.83 89.7685 356.557 87.8156 355.368 86.0326C355.198 85.7779 354.943 85.5232 354.689 85.3534C353.67 84.6741 352.311 85.0138 351.632 86.0326C350.528 87.8156 349.255 89.6836 347.726 91.8911C341.019 101.74 331 116.599 331 125.089C331 131.287 333.547 136.891 337.623 140.967C341.698 144.957 347.302 147.504 353.5 147.504C359.698 147.504 365.302 144.957 369.377 140.882C373.453 136.806 376 131.202 376 125.004C376 116.514 365.981 101.74 359.274 91.8911ZM366.321 137.825C363.009 141.136 358.509 143.089 353.5 143.089C348.491 143.089 343.991 141.052 340.679 137.825C337.368 134.514 335.415 130.014 335.415 125.004C335.415 117.872 345.009 103.693 351.377 94.2685C352.142 93.1647 352.821 92.0609 353.5 91.127C354.179 92.0609 354.858 93.1647 355.623 94.2685C361.991 103.778 371.585 117.872 371.585 125.004C371.585 130.014 369.547 134.514 366.321 137.825Z" fill="#F9F9F9"/>
<path d="M366.66 123.476C365.472 123.391 364.453 124.325 364.368 125.514C364.283 127.382 363.689 129.165 362.755 130.693C361.821 132.221 360.462 133.58 358.849 134.429C357.83 135.023 357.406 136.382 358 137.401C358.679 138.589 360.038 138.929 361.057 138.334C363.349 137.061 365.217 135.193 366.491 133.07C367.849 130.948 368.613 128.401 368.698 125.768C368.783 124.58 367.849 123.561 366.66 123.476Z" fill="#F9F9F9"/>
</g>
<g filter="url(#filter4_d)">
<rect x="430" y="17" width="122" height="152" rx="16" fill="#D4896E"/>
<path d="M440.615 45.918C440.654 48.6523 442.871 50.2441 446.465 50.2441C450.098 50.2441 452.412 48.457 452.412 45.6543C452.412 43.4277 451.162 42.168 448.379 41.6309L446.553 41.2891C445.078 40.9863 444.453 40.5664 444.453 39.8047C444.453 38.9453 445.283 38.3789 446.533 38.3789C447.822 38.3789 448.77 38.9941 448.838 40.0195H452.139C452.1 37.373 450.02 35.6641 446.494 35.6641C443.232 35.6641 440.889 37.4219 440.889 40.1562C440.889 42.2949 442.227 43.7012 444.824 44.1992L446.67 44.5605C448.271 44.8926 448.867 45.2734 448.867 46.0547C448.867 46.9043 447.959 47.5293 446.562 47.5293C445.234 47.5293 444.15 46.8848 444.023 45.918H440.615ZM458.675 50.2539C462.024 50.2539 464.114 48.2324 464.114 44.6777C464.114 41.1914 461.995 39.1113 458.675 39.1113C455.374 39.1113 453.235 41.2012 453.235 44.6777C453.235 48.2227 455.325 50.2539 458.675 50.2539ZM458.675 47.7148C457.483 47.7148 456.751 46.6309 456.751 44.6875C456.751 42.7734 457.503 41.6504 458.675 41.6504C459.856 41.6504 460.608 42.7734 460.608 44.6875C460.608 46.6309 459.856 47.7148 458.675 47.7148ZM475.24 43.5645C475.152 40.8984 473.209 39.1113 470.211 39.1113C466.9 39.1113 464.83 41.2305 464.83 44.6777C464.83 48.1641 466.9 50.2539 470.23 50.2539C473.228 50.2539 475.152 48.5742 475.24 45.8691H472.066C471.939 46.9727 471.285 47.627 470.269 47.627C469.048 47.627 468.336 46.5723 468.336 44.6777C468.336 42.8027 469.048 41.748 470.269 41.748C471.275 41.748 471.939 42.4609 472.056 43.5645H475.24ZM476.248 50H479.705V39.3652H476.248V50ZM477.977 38.5059C478.983 38.5059 479.745 37.7637 479.745 36.8066C479.745 35.8496 478.983 35.1172 477.977 35.1172C476.971 35.1172 476.2 35.8496 476.2 36.8066C476.2 37.7637 476.971 38.5059 477.977 38.5059ZM485.499 47.7734C484.679 47.7734 484.122 47.3633 484.122 46.6895C484.122 46.0645 484.63 45.6445 485.538 45.5762L487.472 45.4492V46.1816C487.472 47.1289 486.554 47.7734 485.499 47.7734ZM484.269 50.1562C485.548 50.1562 486.847 49.5605 487.423 48.4863H487.491V50H490.861V42.7051C490.861 40.5664 488.976 39.1113 486.134 39.1113C483.165 39.1113 481.31 40.5469 481.212 42.7246H484.327C484.425 42.0703 485.021 41.582 485.958 41.582C486.866 41.582 487.472 42.0508 487.472 42.9004V43.5059L484.982 43.6523C482.228 43.8184 480.695 44.9316 480.695 46.9238C480.695 48.8477 482.296 50.1562 484.269 50.1562ZM492.279 50H495.746V35.9082H492.279V50Z" fill="#F9F9F9"/>
<path d="M489.391 97.1937C488.39 97.1937 487.449 97.5837 486.741 98.2919C486.033 98.9996 485.643 99.9408 485.643 100.942C485.643 103.05 484.882 105.043 483.492 106.612C483.581 106.181 483.629 105.736 483.629 105.28C483.629 101.663 480.687 98.7204 477.07 98.7204C473.453 98.7204 470.51 101.663 470.51 105.28C470.51 105.736 470.558 106.181 470.647 106.612C469.31 105.099 468.496 103.114 468.496 100.942C468.496 98.8751 466.815 97.1937 464.748 97.1937C462.681 97.1937 461 98.8751 461 100.942C461 107.179 464.576 112.793 470.174 115.455V127.49C470.174 127.496 470.173 127.502 470.173 127.508V146.798C470.173 147.445 470.697 147.969 471.344 147.969C471.991 147.969 472.515 147.445 472.515 146.798V128.68H483.112V142.113C483.112 142.76 483.637 143.284 484.284 143.284C484.931 143.284 485.455 142.76 485.455 142.113V114.645C486.534 113.983 487.531 113.196 488.427 112.3C491.466 109.261 493.139 105.228 493.139 100.942C493.139 98.8751 491.458 97.1937 489.391 97.1937V97.1937ZM477.07 101.063C479.395 101.063 481.286 102.954 481.286 105.28C481.286 107.605 479.395 109.496 477.07 109.496C474.744 109.496 472.853 107.605 472.853 105.28C472.853 102.954 474.744 101.063 477.07 101.063ZM486.771 110.643C485.864 111.55 484.836 112.326 483.715 112.949C483.343 113.156 483.112 113.548 483.112 113.973V126.337H472.516V114.696C472.516 114.223 472.232 113.797 471.796 113.615C466.661 111.47 463.342 106.495 463.342 100.942C463.342 100.167 463.973 99.5366 464.748 99.5366C465.523 99.5366 466.154 100.167 466.154 100.942C466.154 106.961 471.051 111.858 477.069 111.858H477.07C479.981 111.858 482.72 110.722 484.785 108.658C486.849 106.594 487.986 103.854 487.986 100.942C487.986 100.567 488.132 100.214 488.397 99.9481C488.663 99.6826 489.016 99.5366 489.391 99.5366C490.166 99.5366 490.796 100.167 490.797 100.942C490.797 104.602 489.367 108.047 486.771 110.643Z" fill="#F9F9F9"/>
<path d="M484.284 145.627C483.974 145.627 483.673 145.752 483.456 145.97C483.238 146.188 483.112 146.489 483.112 146.798C483.112 147.106 483.238 147.408 483.456 147.626C483.673 147.844 483.976 147.969 484.284 147.969C484.592 147.969 484.894 147.844 485.112 147.626C485.33 147.408 485.455 147.106 485.455 146.798C485.455 146.49 485.33 146.188 485.112 145.97C484.894 145.752 484.592 145.627 484.284 145.627Z" fill="#F9F9F9"/>
<path d="M477.827 133.436C477.181 133.436 476.656 133.96 476.656 134.607V146.829C476.656 147.475 477.181 148 477.827 148C478.474 148 478.998 147.475 478.998 146.829V134.607C478.998 133.96 478.474 133.436 477.827 133.436Z" fill="#F9F9F9"/>
<path d="M517.221 113.22C516.22 113.22 515.278 113.61 514.571 114.318C513.863 115.026 513.473 115.967 513.473 116.969C513.473 119.077 512.712 121.07 511.322 122.638C511.411 122.208 511.458 121.763 511.458 121.306C511.458 117.69 508.516 114.747 504.9 114.747C501.283 114.747 498.34 117.69 498.34 121.306C498.34 121.763 498.387 122.208 498.477 122.638C497.14 121.126 496.326 119.141 496.326 116.969C496.326 114.902 494.645 113.22 492.578 113.22C490.511 113.22 488.83 114.902 488.83 116.969C488.83 118.397 489.018 119.814 489.391 121.182C489.56 121.806 490.203 122.175 490.828 122.004C491.452 121.835 491.82 121.191 491.65 120.567C491.333 119.4 491.172 118.189 491.172 116.969C491.172 116.194 491.803 115.563 492.578 115.563C493.353 115.563 493.983 116.194 493.983 116.969C493.983 122.988 498.88 127.884 504.899 127.884H504.9C507.81 127.884 510.55 126.748 512.615 124.684C514.679 122.621 515.815 119.88 515.815 116.968C515.815 116.593 515.961 116.24 516.227 115.975C516.492 115.709 516.845 115.563 517.221 115.563C517.996 115.563 518.626 116.194 518.626 116.969C518.626 120.629 517.196 124.074 514.6 126.67C513.694 127.577 512.665 128.353 511.544 128.976C511.173 129.183 510.942 129.575 510.942 130V142.364H500.346V130.723C500.346 130.25 500.062 129.824 499.626 129.642C498.484 129.164 497.408 128.532 496.43 127.764C495.922 127.364 495.186 127.452 494.786 127.96C494.386 128.469 494.474 129.205 494.983 129.605C495.919 130.342 496.933 130.971 498.003 131.482V143.517C498.003 143.523 498.002 143.529 498.002 143.535V146.798C498.002 147.445 498.527 147.969 499.173 147.969C499.82 147.969 500.345 147.445 500.345 146.798V144.706H510.942V146.798C510.942 147.445 511.467 147.969 512.113 147.969C512.76 147.969 513.284 147.445 513.284 146.798V130.671C514.363 130.009 515.361 129.223 516.257 128.326C519.295 125.288 520.969 121.254 520.969 116.968C520.969 114.902 519.288 113.22 517.221 113.22V113.22ZM504.9 117.089C507.225 117.089 509.116 118.981 509.116 121.306C509.116 123.631 507.225 125.523 504.9 125.523C502.575 125.523 500.683 123.631 500.683 121.306C500.683 118.981 502.575 117.089 504.9 117.089V117.089Z" fill="#F9F9F9"/>
<path d="M493.515 124.63C493.153 124.094 492.425 123.953 491.889 124.315C491.353 124.677 491.212 125.405 491.574 125.941L491.587 125.961C491.813 126.299 492.184 126.482 492.563 126.482C492.786 126.482 493.012 126.419 493.211 126.286C493.75 125.927 493.895 125.2 493.536 124.661L493.515 124.63Z" fill="#F9F9F9"/>
<path d="M513.473 103.204C514.12 103.204 514.644 102.68 514.644 102.033V100.415C514.644 99.7686 514.12 99.244 513.473 99.244C512.826 99.244 512.302 99.7686 512.302 100.415V102.033C512.302 102.68 512.826 103.204 513.473 103.204V103.204Z" fill="#F9F9F9"/>
<path d="M513.473 110.957C514.12 110.957 514.644 110.432 514.644 109.785V108.168C514.644 107.521 514.12 106.997 513.473 106.997C512.826 106.997 512.302 107.521 512.302 108.168V109.785C512.302 110.432 512.826 110.957 513.473 110.957V110.957Z" fill="#F9F9F9"/>
<path d="M516.54 106.272H518.158C518.805 106.272 519.329 105.747 519.329 105.101C519.329 104.454 518.805 103.929 518.158 103.929H516.54C515.894 103.929 515.369 104.454 515.369 105.101C515.369 105.747 515.894 106.272 516.54 106.272Z" fill="#F9F9F9"/>
<path d="M508.788 106.272H510.406C511.052 106.272 511.577 105.747 511.577 105.101C511.577 104.454 511.052 103.929 510.406 103.929H508.788C508.141 103.929 507.616 104.454 507.616 105.101C507.616 105.747 508.141 106.272 508.788 106.272Z" fill="#F9F9F9"/>
<path d="M501.292 91.9601C501.939 91.9601 502.463 91.4355 502.463 90.7887V89.1714C502.463 88.5246 501.939 88 501.292 88C500.645 88 500.12 88.5246 500.12 89.1714V90.7887C500.12 91.4355 500.645 91.9601 501.292 91.9601V91.9601Z" fill="#F9F9F9"/>
<path d="M501.292 99.7128C501.939 99.7128 502.463 99.1882 502.463 98.5414V96.9236C502.463 96.2768 501.939 95.7522 501.292 95.7522C500.645 95.7522 500.12 96.2768 500.12 96.9236V98.5414C500.12 99.1882 500.645 99.7128 501.292 99.7128V99.7128Z" fill="#F9F9F9"/>
<path d="M504.359 95.0276H505.977C506.623 95.0276 507.148 94.503 507.148 93.8561C507.148 93.2093 506.623 92.6852 505.977 92.6852H504.359C503.712 92.6852 503.188 93.2093 503.188 93.8561C503.188 94.503 503.712 95.0276 504.359 95.0276Z" fill="#F9F9F9"/>
</g>
<g filter="url(#filter5_d)">
<rect x="154" y="187" width="122" height="152" rx="16" fill="#606060"/>
<path d="M173.834 211.201H173.912L176.285 220H179.664L183.346 205.908H179.645L177.74 215.43H177.662L175.309 205.908H172.438L170.084 215.43H170.006L168.102 205.908H164.4L168.082 220H171.461L173.834 211.201ZM188.163 220.254C191.513 220.254 193.602 218.232 193.602 214.678C193.602 211.191 191.483 209.111 188.163 209.111C184.862 209.111 182.723 211.201 182.723 214.678C182.723 218.223 184.813 220.254 188.163 220.254ZM188.163 217.715C186.971 217.715 186.239 216.631 186.239 214.688C186.239 212.773 186.991 211.65 188.163 211.65C189.345 211.65 190.096 212.773 190.096 214.688C190.096 216.631 189.345 217.715 188.163 217.715ZM194.64 220H198.107V214.404C198.107 212.92 198.898 212.1 200.353 212.1C200.763 212.1 201.164 212.178 201.457 212.295V209.346C201.222 209.258 200.929 209.209 200.578 209.209C199.328 209.209 198.468 209.941 198.078 211.377H198.009V209.365H194.64V220ZM205.795 213.408H205.737V205.908H202.27V220H205.737V216.738L206.362 215.986L208.95 220H212.934L208.93 213.916L212.709 209.365H208.852L205.795 213.408ZM217.849 220.254C221.198 220.254 223.288 218.232 223.288 214.678C223.288 211.191 221.169 209.111 217.849 209.111C214.548 209.111 212.409 211.201 212.409 214.678C212.409 218.223 214.499 220.254 217.849 220.254ZM217.849 217.715C216.657 217.715 215.925 216.631 215.925 214.688C215.925 212.773 216.677 211.65 217.849 211.65C219.03 211.65 219.782 212.773 219.782 214.688C219.782 216.631 219.03 217.715 217.849 217.715ZM234.697 209.365H231.24V215.381C231.24 216.582 230.557 217.383 229.482 217.383C228.398 217.383 227.744 216.709 227.744 215.449V209.365H224.277V216.201C224.277 218.711 225.889 220.205 228.174 220.205C229.775 220.205 230.791 219.385 231.27 217.988H231.338V220H234.697V209.365ZM236.946 206.982V209.365H235.501V211.914H236.946V217.08C236.946 219.17 238.04 220.02 240.804 220.02C241.477 220.02 241.985 219.961 242.317 219.893V217.432C242.112 217.471 241.907 217.48 241.634 217.48C240.804 217.48 240.413 217.109 240.413 216.377V211.914H242.327V209.365H240.413V206.982H236.946Z" fill="#F9F9F9"/>
<path d="M222.225 281.776C221.767 281.319 221.025 281.319 220.568 281.776C220.11 282.235 220.11 282.976 220.568 283.433C221.025 283.892 221.767 283.892 222.225 283.433C222.682 282.976 222.682 282.235 222.225 281.776Z" fill="#F9F9F9"/>
<path d="M243.628 281.918L241.971 280.261C242.032 280.172 243.829 278.708 243.829 275.976C243.829 274.411 243.219 272.939 242.112 271.833L241.284 271.004L242.112 270.175C244.402 267.889 244.404 264.178 242.112 261.89C239.823 259.599 236.117 259.598 233.827 261.889L232.998 262.718L232.169 261.89C229.88 259.599 226.172 259.598 223.882 261.889L223.741 262.031L222.084 260.374C220.252 258.543 217.287 258.541 215.455 260.374C213.622 262.205 213.621 265.171 215.454 267.003L222.083 273.632L199.632 296.083L193.003 289.455C191.175 287.623 188.205 287.62 186.375 289.454C184.542 291.285 184.542 294.251 186.374 296.084L188.031 297.741L187.89 297.882C185.599 300.171 185.598 303.879 187.89 306.169L188.718 306.998L187.89 307.826C185.6 310.113 185.598 313.824 187.889 316.112C190.179 318.402 193.885 318.404 196.175 316.113L197.005 315.284L197.833 316.112C200.122 318.403 203.83 318.404 206.12 316.112L206.261 315.971L207.918 317.628C209.75 319.459 212.715 319.461 214.548 317.628C216.38 315.797 216.381 312.831 214.548 310.999L207.919 304.37L230.37 281.919L236.999 288.547C238.827 290.379 241.797 290.382 243.627 288.548C245.46 286.717 245.46 283.751 243.628 281.918ZM235.485 263.547C236.855 262.175 239.077 262.168 240.456 263.547C241.829 264.919 241.831 267.144 240.455 268.518L239.626 269.347L234.655 264.375L235.485 263.547ZM225.54 263.547C226.913 262.172 229.137 262.171 230.512 263.547L240.455 273.49C241.83 274.864 241.83 277.088 240.455 278.462L240.313 278.604L225.398 263.688L225.54 263.547ZM194.517 314.455C193.147 315.826 190.925 315.834 189.546 314.454C188.173 313.083 188.171 310.858 189.547 309.484L190.375 308.655L195.347 313.626L194.517 314.455ZM204.462 314.455C203.088 315.83 200.865 315.83 199.49 314.455L189.547 304.511C188.172 303.138 188.171 300.914 189.547 299.54L189.688 299.398L204.604 314.313L204.462 314.455ZM212.891 312.657C213.807 313.572 213.807 315.054 212.89 315.97C211.972 316.889 210.49 316.885 209.575 315.97C208.596 314.991 189.104 295.499 188.032 294.427C187.123 293.518 187.107 292.035 188.032 291.111C188.944 290.198 190.428 290.193 191.345 291.112L212.891 312.657ZM206.261 302.713L201.289 297.741L223.741 275.289L228.713 280.261L206.261 302.713ZM241.97 286.891C241.058 287.804 239.574 287.809 238.657 286.89L217.111 265.345C216.195 264.43 216.195 262.948 217.112 262.032C218.03 261.113 219.512 261.117 220.427 262.032C221.499 263.104 241.006 282.611 241.97 283.575C242.879 284.484 242.894 285.967 241.97 286.891Z" fill="#F9F9F9"/>
<path d="M218.91 285.091C218.453 284.634 217.711 284.634 217.253 285.091L207.776 294.568C207.318 295.026 207.318 295.768 207.776 296.226C208.234 296.683 208.976 296.683 209.433 296.226L218.91 286.749C219.368 286.291 219.368 285.549 218.91 285.091Z" fill="#F9F9F9"/>
</g>
<defs>
<filter id="filter0_d" x="0" y="0" width="154" height="184" filterUnits="userSpaceOnUse" color-interpolation-filters="sRGB">
<feFlood flood-opacity="0" result="BackgroundImageFix"/>
<feColorMatrix in="SourceAlpha" type="matrix" values="0 0 0 0 0 0 0 0 0 0 0 0 0 0 0 0 0 0 127 0"/>
<feOffset/>
<feGaussianBlur stdDeviation="8"/>
<feColorMatrix type="matrix" values="0 0 0 0 0 0 0 0 0 0 0 0 0 0 0 0 0 0 0.11 0"/>
<feBlend mode="normal" in2="BackgroundImageFix" result="effect1_dropShadow"/>
<feBlend mode="normal" in="SourceGraphic" in2="effect1_dropShadow" result="shape"/>
</filter>
<filter id="filter1_d" x="138" y="0" width="154" height="184" filterUnits="userSpaceOnUse" color-interpolation-filters="sRGB">
<feFlood flood-opacity="0" result="BackgroundImageFix"/>
<feColorMatrix in="SourceAlpha" type="matrix" values="0 0 0 0 0 0 0 0 0 0 0 0 0 0 0 0 0 0 127 0"/>
<feOffset/>
<feGaussianBlur stdDeviation="8"/>
<feColorMatrix type="matrix" values="0 0 0 0 0 0 0 0 0 0 0 0 0 0 0 0 0 0 0.11 0"/>
<feBlend mode="normal" in2="BackgroundImageFix" result="effect1_dropShadow"/>
<feBlend mode="normal" in="SourceGraphic" in2="effect1_dropShadow" result="shape"/>
</filter>
<filter id="filter2_d" x="0" y="171" width="154" height="184" filterUnits="userSpaceOnUse" color-interpolation-filters="sRGB">
<feFlood flood-opacity="0" result="BackgroundImageFix"/>
<feColorMatrix in="SourceAlpha" type="matrix" values="0 0 0 0 0 0 0 0 0 0 0 0 0 0 0 0 0 0 127 0"/>
<feOffset/>
<feGaussianBlur stdDeviation="8"/>
<feColorMatrix type="matrix" values="0 0 0 0 0 0 0 0 0 0 0 0 0 0 0 0 0 0 0.11 0"/>
<feBlend mode="normal" in2="BackgroundImageFix" result="effect1_dropShadow"/>
<feBlend mode="normal" in="SourceGraphic" in2="effect1_dropShadow" result="shape"/>
</filter>
<filter id="filter3_d" x="276" y="0" width="154" height="184" filterUnits="userSpaceOnUse" color-interpolation-filters="sRGB">
<feFlood flood-opacity="0" result="BackgroundImageFix"/>
<feColorMatrix in="SourceAlpha" type="matrix" values="0 0 0 0 0 0 0 0 0 0 0 0 0 0 0 0 0 0 127 0"/>
<feOffset/>
<feGaussianBlur stdDeviation="8"/>
<feColorMatrix type="matrix" values="0 0 0 0 0 0 0 0 0 0 0 0 0 0 0 0 0 0 0.11 0"/>
<feBlend mode="normal" in2="BackgroundImageFix" result="effect1_dropShadow"/>
<feBlend mode="normal" in="SourceGraphic" in2="effect1_dropShadow" result="shape"/>
</filter>
<filter id="filter4_d" x="414" y="1" width="154" height="184" filterUnits="userSpaceOnUse" color-interpolation-filters="sRGB">
<feFlood flood-opacity="0" result="BackgroundImageFix"/>
<feColorMatrix in="SourceAlpha" type="matrix" values="0 0 0 0 0 0 0 0 0 0 0 0 0 0 0 0 0 0 127 0"/>
<feOffset/>
<feGaussianBlur stdDeviation="8"/>
<feColorMatrix type="matrix" values="0 0 0 0 0 0 0 0 0 0 0 0 0 0 0 0 0 0 0.11 0"/>
<feBlend mode="normal" in2="BackgroundImageFix" result="effect1_dropShadow"/>
<feBlend mode="normal" in="SourceGraphic" in2="effect1_dropShadow" result="shape"/>
</filter>
<filter id="filter5_d" x="138" y="171" width="154" height="184" filterUnits="userSpaceOnUse" color-interpolation-filters="sRGB">
<feFlood flood-opacity="0" result="BackgroundImageFix"/>
<feColorMatrix in="SourceAlpha" type="matrix" values="0 0 0 0 0 0 0 0 0 0 0 0 0 0 0 0 0 0 127 0"/>
<feOffset/>
<feGaussianBlur stdDeviation="8"/>
<feColorMatrix type="matrix" values="0 0 0 0 0 0 0 0 0 0 0 0 0 0 0 0 0 0 0.11 0"/>
<feBlend mode="normal" in2="BackgroundImageFix" result="effect1_dropShadow"/>
<feBlend mode="normal" in="SourceGraphic" in2="effect1_dropShadow" result="shape"/>
</filter>
</defs>
</svg>
