<svg width="333" height="96" viewBox="0 0 333 96" fill="none" xmlns="http://www.w3.org/2000/svg">
<rect x="0.810425" width="331.379" height="96" rx="16" fill="#FFC579"/>
<path d="M25.1845 54.551H19.3867C17.9661 54.551 16.8104 55.7067 16.8104 57.1277V72.1869C16.8104 73.6075 17.9661 74.7632 19.3867 74.7632H25.1845C26.6055 74.7632 27.7612 73.6075 27.7612 72.1869V57.1277C27.7612 55.7067 26.6055 54.551 25.1845 54.551ZM26.0802 72.1869C26.0802 72.6803 25.6783 73.0822 25.1845 73.0822H19.3867C18.8933 73.0822 18.4915 72.6803 18.4915 72.1869V57.1277C18.4915 56.6339 18.8933 56.232 19.3867 56.232H25.1845C25.6783 56.232 26.0802 56.6339 26.0802 57.1277V72.1869Z" fill="black"/>
<path d="M40.661 42.7479H34.8632C33.4426 42.7479 32.2869 43.9036 32.2869 45.3241V50.1033C32.2869 50.5673 32.663 50.9438 33.1274 50.9438C33.5915 50.9438 33.968 50.5673 33.968 50.1033V45.3241C33.968 44.8308 34.3694 44.4289 34.8632 44.4289H40.661C41.1548 44.4289 41.5562 44.8308 41.5562 45.3241V72.1869C41.5562 72.6803 41.1548 73.0822 40.661 73.0822H34.8632C34.3694 73.0822 33.968 72.6803 33.968 72.1869V53.4653C33.968 53.0013 33.5915 52.6248 33.1274 52.6248C32.663 52.6248 32.2869 53.0013 32.2869 53.4653V72.1869C32.2869 73.6075 33.4426 74.7632 34.8632 74.7632H40.661C42.0816 74.7632 43.2373 73.6075 43.2373 72.1869V45.3246C43.2373 43.9036 42.0816 42.7479 40.661 42.7479Z" fill="black"/>
<path d="M56.1369 49.8301H50.3391C48.9185 49.8301 47.7628 50.9858 47.7628 52.4064V72.1869C47.7628 73.6075 48.9185 74.7632 50.3391 74.7632H56.1369C57.5579 74.7632 58.7136 73.6075 58.7136 72.1869V52.4064C58.7136 50.9858 57.5579 49.8301 56.1369 49.8301ZM57.0326 72.1869C57.0326 72.6803 56.6307 73.0822 56.1369 73.0822H50.3391C49.8453 73.0822 49.4438 72.6803 49.4438 72.1869V52.4064C49.4438 51.9126 49.8453 51.5111 50.3391 51.5111H56.1369C56.6307 51.5111 57.0326 51.9126 57.0326 52.4064V72.1869Z" fill="black"/>
<path d="M71.6133 36.8463H65.8155C64.395 36.8463 63.2388 38.002 63.2388 39.4226V63.4394C63.2388 63.9035 63.6153 64.2799 64.0793 64.2799C64.5438 64.2799 64.9199 63.9035 64.9199 63.4394V39.4226C64.9199 38.9288 65.3217 38.5273 65.8155 38.5273H71.6133C72.1067 38.5273 72.5086 38.9288 72.5086 39.4226V72.1869C72.5086 72.6803 72.1067 73.0822 71.6133 73.0822H65.8155C65.3217 73.0822 64.9199 72.6803 64.9199 72.1869V66.8015C64.9199 66.3375 64.5438 65.961 64.0793 65.961C63.6153 65.961 63.2388 66.3375 63.2388 66.8015V72.1869C63.2388 73.6075 64.395 74.7632 65.8155 74.7632H71.6133C73.0339 74.7632 74.1896 73.6075 74.1896 72.1869V39.4226C74.1896 38.002 73.0339 36.8463 71.6133 36.8463Z" fill="black"/>
<path d="M22.2856 38.9415C19.3981 38.9415 17.0486 41.291 17.0486 44.1785C17.0486 47.0665 19.3981 49.416 22.2856 49.416C25.1736 49.416 27.5231 47.0665 27.5231 44.1785C27.5231 43.9491 27.5064 43.7241 27.478 43.5026L35.7356 37.2044C36.359 37.4671 37.0441 37.6129 37.762 37.6129C38.8941 37.6129 39.9426 37.2504 40.8001 36.6375L48.0242 39.9431C48.2702 42.6039 50.5142 44.6946 53.238 44.6946C56.126 44.6946 58.4755 42.3451 58.4755 39.4576C58.4755 39.1446 58.4462 38.8386 58.3936 38.5409L66.9139 31.3922C67.4756 31.5988 68.0823 31.7113 68.7145 31.7113C71.602 31.7113 73.9515 29.3618 73.9515 26.4738C73.9515 23.5863 71.602 21.2368 68.7145 21.2368C65.8265 21.2368 63.477 23.5863 63.477 26.4738C63.477 26.7868 63.5063 27.0928 63.5588 27.3905L55.0381 34.5393C54.4769 34.3331 53.8702 34.2202 53.238 34.2202C52.106 34.2202 51.0575 34.5826 50.1999 35.1959L42.9759 31.8899C42.7298 29.2292 40.4863 27.1384 37.762 27.1384C34.8741 27.1384 32.525 29.4879 32.525 32.3754C32.525 32.6048 32.5412 32.8302 32.5701 33.0517L24.312 39.3495C23.6882 39.0868 23.004 38.9415 22.2856 38.9415ZM68.7145 22.9178C70.6752 22.9178 72.2704 24.5131 72.2704 26.4738C72.2704 28.4346 70.6752 30.0303 68.7145 30.0303C66.783 30.0303 65.158 28.4053 65.158 26.4738C65.158 24.5131 66.7532 22.9178 68.7145 22.9178ZM64.1687 29.0733C64.1827 29.0978 64.198 29.1215 64.2124 29.1455C64.5163 29.6573 64.9072 30.1169 65.3642 30.4982L57.7838 36.8577C57.7698 36.8332 57.54 36.4681 57.4275 36.3179C57.1832 35.9922 56.9017 35.6946 56.5883 35.4328L64.1687 29.0733ZM49.6825 39.4051C49.7114 37.499 51.321 35.9012 53.238 35.9012C55.1493 35.9012 56.794 37.5354 56.794 39.4576C56.794 41.4184 55.1988 43.0136 53.238 43.0136C51.2773 43.0136 49.682 41.4184 49.682 39.4576C49.682 39.4401 49.682 39.4226 49.6825 39.4051ZM42.0806 35.3338C42.4247 34.8287 42.6843 34.267 42.8358 33.6747L48.94 36.4677C48.6292 36.9155 48.3862 37.4128 48.2273 37.9346C48.2046 38.0086 48.1835 38.083 48.1643 38.1579L42.06 35.3649C42.067 35.3548 42.0736 35.3443 42.0806 35.3338ZM37.762 28.8194C39.7228 28.8194 41.318 30.4146 41.318 32.3754C41.318 34.2911 39.6746 35.9318 37.762 35.9318C35.8485 35.9318 34.2056 34.2998 34.2056 32.3754C34.2056 30.4146 35.8008 28.8194 37.762 28.8194ZM33.1002 34.7612C33.1103 34.7805 33.1217 34.7998 33.1318 34.819C33.4128 35.3505 33.7853 35.8338 34.2288 36.2396L26.9474 41.7931C26.8126 41.5304 26.6541 41.2783 26.4772 41.0423C26.2811 40.7806 26.0614 40.5363 25.8188 40.3143L33.1002 34.7612ZM24.4048 41.3536C25.2677 42.0102 25.842 43.0443 25.842 44.1785C25.842 46.1397 24.2468 47.7349 22.2856 47.7349C20.3248 47.7349 18.7296 46.1397 18.7296 44.1785C18.7296 42.2177 20.3248 40.6225 22.2856 40.6225C23.0675 40.6225 23.806 40.897 24.4048 41.3536Z" fill="black"/>
<path d="M173.872 40V35.1484L177.872 28.7266H176.27L173.192 33.7891H173.145L170.067 28.7266H168.466L172.466 35.1484V40H173.872ZM180.533 40.1406C182.775 40.1406 184.291 38.5234 184.291 35.9375C184.291 33.3438 182.775 31.7344 180.533 31.7344C178.283 31.7344 176.767 33.3438 176.767 35.9375C176.767 38.5234 178.283 40.1406 180.533 40.1406ZM180.533 38.9453C179.095 38.9453 178.15 37.8516 178.15 35.9375C178.15 34.0234 179.095 32.9297 180.533 32.9297C181.97 32.9297 182.908 34.0234 182.908 35.9375C182.908 37.8516 181.97 38.9453 180.533 38.9453ZM192.037 31.875H190.678V36.6484C190.678 38.0312 189.881 38.9375 188.561 38.9375C187.303 38.9375 186.686 38.2266 186.686 36.9062V31.875H185.327V37.1484C185.327 38.9922 186.366 40.1406 188.139 40.1406C189.389 40.1406 190.233 39.6172 190.717 38.6797H190.748V40H192.037V31.875ZM194.925 32.7031V28.7266H193.675V32.7031H194.925ZM196.562 40H197.922V34.9375C197.922 33.7891 198.609 33.0312 199.664 33.0312C199.992 33.0312 200.281 33.0703 200.391 33.1094V31.7891C200.281 31.7734 200.078 31.7344 199.844 31.7344C198.891 31.7344 198.141 32.3047 197.875 33.2031H197.844V31.875H196.562V40ZM204.067 32.9141C205.348 32.9141 206.2 33.8828 206.231 35.2422H201.817C201.903 33.8906 202.794 32.9141 204.067 32.9141ZM206.2 37.6719C205.973 38.4375 205.216 38.9609 204.184 38.9609C202.723 38.9609 201.809 37.9375 201.809 36.3828V36.3047H207.637V35.7891C207.637 33.3281 206.286 31.7344 204.091 31.7344C201.848 31.7344 200.411 33.4453 200.411 35.9688C200.411 38.5234 201.825 40.1406 204.153 40.1406C205.927 40.1406 207.302 39.0938 207.536 37.6719H206.2ZM213.123 35.4844V28.7266H211.764V40H213.123V36.9375L213.881 36.2188L216.897 40H218.475L214.842 35.3828L218.366 31.875H216.717L213.123 35.4844ZM222.027 32.9141C223.308 32.9141 224.159 33.8828 224.191 35.2422H219.777C219.862 33.8906 220.753 32.9141 222.027 32.9141ZM224.159 37.6719C223.933 38.4375 223.175 38.9609 222.144 38.9609C220.683 38.9609 219.769 37.9375 219.769 36.3828V36.3047H225.597V35.7891C225.597 33.3281 224.245 31.7344 222.05 31.7344C219.808 31.7344 218.37 33.4453 218.37 35.9688C218.37 38.5234 219.784 40.1406 222.112 40.1406C223.886 40.1406 225.261 39.0938 225.495 37.6719H224.159ZM229.93 32.9141C231.211 32.9141 232.062 33.8828 232.094 35.2422H227.68C227.766 33.8906 228.656 32.9141 229.93 32.9141ZM232.062 37.6719C231.836 38.4375 231.078 38.9609 230.047 38.9609C228.586 38.9609 227.672 37.9375 227.672 36.3828V36.3047H233.5V35.7891C233.5 33.3281 232.148 31.7344 229.953 31.7344C227.711 31.7344 226.273 33.4453 226.273 35.9688C226.273 38.5234 227.687 40.1406 230.016 40.1406C231.789 40.1406 233.164 39.0938 233.398 37.6719H232.062ZM238.52 31.7344C237.341 31.7344 236.395 32.3359 235.895 33.25H235.864V31.875H234.575V42.7109H235.934V38.6797H235.966C236.45 39.5703 237.387 40.1406 238.552 40.1406C240.598 40.1406 241.997 38.4844 241.997 35.9375C241.997 33.3906 240.591 31.7344 238.52 31.7344ZM238.255 38.9453C236.864 38.9453 235.927 37.75 235.927 35.9375C235.927 34.1328 236.864 32.9297 238.255 32.9297C239.7 32.9297 240.606 34.1016 240.606 35.9375C240.606 37.7812 239.7 38.9453 238.255 38.9453ZM243.142 40H244.502V31.875H243.142V40ZM243.822 30.5078C244.291 30.5078 244.673 30.125 244.673 29.6641C244.673 29.1953 244.291 28.8203 243.822 28.8203C243.361 28.8203 242.978 29.1953 242.978 29.6641C242.978 30.125 243.361 30.5078 243.822 30.5078ZM246.037 40H247.397V35.2188C247.397 33.8438 248.233 32.9375 249.514 32.9375C250.764 32.9375 251.381 33.6562 251.381 34.9688V40H252.741V34.7266C252.741 32.8828 251.709 31.7344 249.928 31.7344C248.67 31.7344 247.803 32.2969 247.35 33.1719H247.319V31.875H246.037V40ZM257.48 38.8672C256.081 38.8672 255.167 37.7266 255.167 35.9062C255.167 34.0859 256.081 32.9297 257.48 32.9297C258.894 32.9297 259.839 34.1172 259.839 35.9062C259.839 37.6953 258.894 38.8672 257.48 38.8672ZM257.527 43.0625C259.769 43.0625 261.198 41.7734 261.198 39.8359V31.875H259.902V33.2422H259.878C259.339 32.2969 258.386 31.7344 257.237 31.7344C255.136 31.7344 253.777 33.3594 253.777 35.9062C253.777 38.4297 255.136 40.0625 257.206 40.0625C258.347 40.0625 259.308 39.4844 259.808 38.6016H259.839V39.8828C259.839 41.0938 258.987 41.9062 257.581 41.9062C256.566 41.9062 255.761 41.4141 255.495 40.6719H254.097C254.323 42.0547 255.737 43.0625 257.527 43.0625ZM273.196 59.1406C275.438 59.1406 276.954 57.5234 276.954 54.9375C276.954 52.3438 275.438 50.7344 273.196 50.7344C270.946 50.7344 269.43 52.3438 269.43 54.9375C269.43 57.5234 270.946 59.1406 273.196 59.1406ZM273.196 57.9453C271.758 57.9453 270.813 56.8516 270.813 54.9375C270.813 53.0234 271.758 51.9297 273.196 51.9297C274.633 51.9297 275.571 53.0234 275.571 54.9375C275.571 56.8516 274.633 57.9453 273.196 57.9453ZM278.466 59H279.826V51.9922H281.482V50.875H279.818V49.9766C279.818 49.1719 280.169 48.7812 280.904 48.7812C281.13 48.7812 281.357 48.8047 281.521 48.8281V47.7266C281.326 47.6953 280.997 47.6641 280.693 47.6641C279.193 47.6641 278.466 48.4062 278.466 49.9688V50.875H277.333V51.9922H278.466V59ZM286.241 62.0391C287.71 62.0391 288.382 61.4688 289.077 59.5703L292.272 50.875H290.843L288.593 57.6406H288.569L286.319 50.875H284.866L287.866 59.0078L287.679 59.5781C287.366 60.5234 286.944 60.8906 286.187 60.8906C286.015 60.8906 285.804 60.8828 285.655 60.8516V61.9922C285.804 62.0234 286.077 62.0391 286.241 62.0391ZM296.183 59.1406C298.426 59.1406 299.941 57.5234 299.941 54.9375C299.941 52.3438 298.426 50.7344 296.183 50.7344C293.933 50.7344 292.418 52.3438 292.418 54.9375C292.418 57.5234 293.933 59.1406 296.183 59.1406ZM296.183 57.9453C294.746 57.9453 293.801 56.8516 293.801 54.9375C293.801 53.0234 294.746 51.9297 296.183 51.9297C297.621 51.9297 298.558 53.0234 298.558 54.9375C298.558 56.8516 297.621 57.9453 296.183 57.9453ZM307.688 50.875H306.329V55.6484C306.329 57.0312 305.532 57.9375 304.212 57.9375C302.954 57.9375 302.337 57.2266 302.337 55.9062V50.875H300.977V56.1484C300.977 57.9922 302.016 59.1406 303.79 59.1406C305.04 59.1406 305.883 58.6172 306.368 57.6797H306.399V59H307.688V50.875ZM309.154 59H310.513V53.9375C310.513 52.7891 311.201 52.0312 312.255 52.0312C312.583 52.0312 312.872 52.0703 312.982 52.1094V50.7891C312.872 50.7734 312.669 50.7344 312.435 50.7344C311.482 50.7344 310.732 51.3047 310.466 52.2031H310.435V50.875H309.154V59ZM238.318 78H239.677V73.2656C239.677 71.8594 240.513 70.9375 241.865 70.9375C243.138 70.9375 243.787 71.7109 243.787 73V78H245.146V72.75C245.146 70.9375 244.068 69.7344 242.287 69.7344C241.052 69.7344 240.162 70.2656 239.708 71.1719H239.677V66.7266H238.318V78ZM249.252 76.9844C248.276 76.9844 247.627 76.4766 247.627 75.7031C247.627 74.9375 248.252 74.4531 249.346 74.3828L251.518 74.25V74.9141C251.518 76.0859 250.533 76.9844 249.252 76.9844ZM248.947 78.1406C250.041 78.1406 251.072 77.5312 251.557 76.6016H251.588V78H252.877V72.3828C252.877 70.7656 251.674 69.7344 249.768 69.7344C247.846 69.7344 246.643 70.8125 246.549 72.2188H247.862C248.033 71.4219 248.69 70.9297 249.737 70.9297C250.862 70.9297 251.518 71.5234 251.518 72.5156V73.1953L249.19 73.3281C247.315 73.4375 246.244 74.3125 246.244 75.7031C246.244 77.1641 247.33 78.1406 248.947 78.1406ZM258.343 78.1406C260.421 78.1406 261.796 76.4922 261.796 73.9375C261.796 71.3906 260.413 69.7344 258.366 69.7344C257.218 69.7344 256.272 70.3047 255.765 71.2344H255.733V66.7266H254.374V78H255.671V76.625H255.702C256.226 77.5625 257.155 78.1406 258.343 78.1406ZM258.077 70.9297C259.515 70.9297 260.405 72.0938 260.405 73.9375C260.405 75.7969 259.515 76.9453 258.077 76.9453C256.702 76.9453 255.726 75.75 255.726 73.9375C255.726 72.1328 256.702 70.9297 258.077 70.9297ZM262.949 78H264.308V69.875H262.949V78ZM263.629 68.5078C264.097 68.5078 264.48 68.125 264.48 67.6641C264.48 67.1953 264.097 66.8203 263.629 66.8203C263.168 66.8203 262.785 67.1953 262.785 67.6641C262.785 68.125 263.168 68.5078 263.629 68.5078ZM266.282 67.9141V69.875H265.071V70.9922H266.282V75.8906C266.282 77.4531 266.86 78.0625 268.352 78.0625C268.672 78.0625 269.047 78.0391 269.212 78V76.8594C269.118 76.875 268.805 76.8984 268.649 76.8984C267.954 76.8984 267.641 76.5625 267.641 75.8203V70.9922H269.219V69.875H267.641V67.9141H266.282ZM270.232 72.1172C270.232 73.2266 270.935 73.9609 272.365 74.3281L273.794 74.6953C274.708 74.9375 275.044 75.25 275.044 75.8281C275.044 76.5625 274.365 77.0312 273.263 77.0312C272.162 77.0312 271.521 76.5781 271.372 75.7344H270.013C270.154 77.1719 271.396 78.1406 273.177 78.1406C275.076 78.1406 276.412 77.1406 276.412 75.7266C276.412 74.5312 275.818 73.9375 274.177 73.5234L272.919 73.2188C271.997 72.9844 271.568 72.6094 271.568 72.0469C271.568 71.3359 272.224 70.8438 273.216 70.8438C274.216 70.8438 274.849 71.3281 274.943 72.1094H276.24C276.177 70.7344 274.943 69.7344 273.263 69.7344C271.474 69.7344 270.232 70.7266 270.232 72.1172ZM280.944 67.9141V69.875H279.733V70.9922H280.944V75.8906C280.944 77.4531 281.522 78.0625 283.015 78.0625C283.335 78.0625 283.71 78.0391 283.874 78V76.8594C283.78 76.875 283.468 76.8984 283.312 76.8984C282.616 76.8984 282.304 76.5625 282.304 75.8203V70.9922H283.882V69.875H282.304V67.9141H280.944ZM288.168 78.1406C290.41 78.1406 291.926 76.5234 291.926 73.9375C291.926 71.3438 290.41 69.7344 288.168 69.7344C285.918 69.7344 284.402 71.3438 284.402 73.9375C284.402 76.5234 285.918 78.1406 288.168 78.1406ZM288.168 76.9453C286.73 76.9453 285.785 75.8516 285.785 73.9375C285.785 72.0234 286.73 70.9297 288.168 70.9297C289.605 70.9297 290.543 72.0234 290.543 73.9375C290.543 75.8516 289.605 76.9453 288.168 76.9453ZM296.079 78.1406C297.251 78.1406 298.18 77.5625 298.704 76.625H298.727V78H300.024V66.7266H298.665V71.1953H298.633C298.149 70.3047 297.212 69.7344 296.047 69.7344C294.001 69.7344 292.602 71.3906 292.602 73.9375C292.602 76.4844 294.008 78.1406 296.079 78.1406ZM296.337 70.9297C297.735 70.9297 298.672 72.125 298.672 73.9375C298.672 75.7578 297.735 76.9453 296.337 76.9453C294.899 76.9453 293.993 75.7812 293.993 73.9375C293.993 72.1016 294.899 70.9297 296.337 70.9297ZM304.24 76.9844C303.263 76.9844 302.615 76.4766 302.615 75.7031C302.615 74.9375 303.24 74.4531 304.333 74.3828L306.505 74.25V74.9141C306.505 76.0859 305.521 76.9844 304.24 76.9844ZM303.935 78.1406C305.029 78.1406 306.06 77.5312 306.544 76.6016H306.576V78H307.865V72.3828C307.865 70.7656 306.662 69.7344 304.755 69.7344C302.833 69.7344 301.63 70.8125 301.537 72.2188H302.849C303.021 71.4219 303.677 70.9297 304.724 70.9297C305.849 70.9297 306.505 71.5234 306.505 72.5156V73.1953L304.177 73.3281C302.302 73.4375 301.232 74.3125 301.232 75.7031C301.232 77.1641 302.318 78.1406 303.935 78.1406ZM309.963 81.0391C311.432 81.0391 312.104 80.4688 312.799 78.5703L315.994 69.875H314.565L312.315 76.6406H312.291L310.041 69.875H308.588L311.588 78.0078L311.401 78.5781C311.088 79.5234 310.666 79.8906 309.908 79.8906C309.737 79.8906 309.526 79.8828 309.377 79.8516V80.9922C309.526 81.0234 309.799 81.0391 309.963 81.0391Z" fill="#30272D"/>
<path d="M272.925 40.3906C277.16 40.3906 280.066 38.291 280.066 35.2393C280.066 32.9199 278.393 31.1255 275.928 30.7104V30.6372C277.978 30.1489 279.345 28.5742 279.345 26.6577C279.345 23.9478 276.709 21.9946 272.925 21.9946C269.153 21.9946 266.491 23.96 266.491 26.6455C266.491 28.5864 267.871 30.1611 269.922 30.6372V30.7104C267.468 31.1133 265.783 32.9077 265.783 35.2271C265.783 38.2788 268.652 40.3906 272.925 40.3906ZM272.925 37.7051C270.984 37.7051 269.629 36.5454 269.629 34.9585C269.629 33.3716 270.984 32.2119 272.925 32.2119C274.866 32.2119 276.208 33.3716 276.208 34.9585C276.208 36.5454 274.866 37.7051 272.925 37.7051ZM272.925 29.5264C271.289 29.5264 270.141 28.501 270.141 27.0972C270.141 25.6934 271.289 24.6558 272.925 24.6558C274.548 24.6558 275.708 25.6812 275.708 27.0972C275.708 28.501 274.548 29.5264 272.925 29.5264ZM288.799 40.3906C292.839 40.3906 295.598 37.8516 295.598 34.1162C295.598 30.686 293.181 28.208 289.812 28.208C288.018 28.208 286.614 28.9526 285.894 30.1367H285.82L286.223 25.3149H294.536V22.3853H283.33L282.463 32.5171H285.759C286.37 31.5039 287.517 30.8936 288.848 30.8936C290.752 30.8936 292.083 32.2607 292.083 34.2139C292.083 36.1304 290.752 37.4731 288.823 37.4731C287.114 37.4731 285.796 36.4478 285.588 34.9585H282.183C282.293 38.1445 285.015 40.3906 288.799 40.3906ZM304.685 26.6089C304.685 23.8135 303.135 22.0435 300.669 22.0435C298.216 22.0435 296.653 23.8135 296.653 26.6089C296.653 29.4165 298.216 31.1743 300.669 31.1743C303.135 31.1743 304.685 29.4165 304.685 26.6089ZM300.669 29.0137C299.876 29.0137 299.388 28.1104 299.388 26.5967C299.388 25.083 299.876 24.1675 300.669 24.1675C301.463 24.1675 301.951 25.083 301.951 26.5967C301.951 28.1104 301.463 29.0137 300.669 29.0137ZM301.353 40L307.554 31.4917L314.195 22.3853H311.253L305.235 30.6372L298.399 40H301.353ZM315.94 35.6787C315.94 32.8833 314.39 31.1133 311.924 31.1133C309.471 31.1133 307.908 32.8833 307.908 35.6787C307.908 38.4863 309.471 40.2563 311.924 40.2563C314.39 40.2563 315.94 38.4863 315.94 35.6787ZM311.924 38.0835C311.131 38.0835 310.642 37.1802 310.642 35.6665C310.642 34.1528 311.131 33.2373 311.924 33.2373C312.718 33.2373 313.206 34.1528 313.206 35.6665C313.206 37.1802 312.718 38.0835 311.924 38.0835Z" fill="#30272D"/>
<path d="M272.925 40.3906C277.16 40.3906 280.066 38.291 280.066 35.2393C280.066 32.9199 278.393 31.1255 275.928 30.7104V30.6372C277.978 30.1489 279.345 28.5742 279.345 26.6577C279.345 23.9478 276.709 21.9946 272.925 21.9946C269.153 21.9946 266.491 23.96 266.491 26.6455C266.491 28.5864 267.871 30.1611 269.922 30.6372V30.7104C267.468 31.1133 265.783 32.9077 265.783 35.2271C265.783 38.2788 268.652 40.3906 272.925 40.3906ZM272.925 37.7051C270.984 37.7051 269.629 36.5454 269.629 34.9585C269.629 33.3716 270.984 32.2119 272.925 32.2119C274.866 32.2119 276.208 33.3716 276.208 34.9585C276.208 36.5454 274.866 37.7051 272.925 37.7051ZM272.925 29.5264C271.289 29.5264 270.141 28.501 270.141 27.0972C270.141 25.6934 271.289 24.6558 272.925 24.6558C274.548 24.6558 275.708 25.6812 275.708 27.0972C275.708 28.501 274.548 29.5264 272.925 29.5264ZM288.799 40.3906C292.839 40.3906 295.598 37.8516 295.598 34.1162C295.598 30.686 293.181 28.208 289.812 28.208C288.018 28.208 286.614 28.9526 285.894 30.1367H285.82L286.223 25.3149H294.536V22.3853H283.33L282.463 32.5171H285.759C286.37 31.5039 287.517 30.8936 288.848 30.8936C290.752 30.8936 292.083 32.2607 292.083 34.2139C292.083 36.1304 290.752 37.4731 288.823 37.4731C287.114 37.4731 285.796 36.4478 285.588 34.9585H282.183C282.293 38.1445 285.015 40.3906 288.799 40.3906ZM304.685 26.6089C304.685 23.8135 303.135 22.0435 300.669 22.0435C298.216 22.0435 296.653 23.8135 296.653 26.6089C296.653 29.4165 298.216 31.1743 300.669 31.1743C303.135 31.1743 304.685 29.4165 304.685 26.6089ZM300.669 29.0137C299.876 29.0137 299.388 28.1104 299.388 26.5967C299.388 25.083 299.876 24.1675 300.669 24.1675C301.463 24.1675 301.951 25.083 301.951 26.5967C301.951 28.1104 301.463 29.0137 300.669 29.0137ZM301.353 40L307.554 31.4917L314.195 22.3853H311.253L305.235 30.6372L298.399 40H301.353ZM315.94 35.6787C315.94 32.8833 314.39 31.1133 311.924 31.1133C309.471 31.1133 307.908 32.8833 307.908 35.6787C307.908 38.4863 309.471 40.2563 311.924 40.2563C314.39 40.2563 315.94 38.4863 315.94 35.6787ZM311.924 38.0835C311.131 38.0835 310.642 37.1802 310.642 35.6665C310.642 34.1528 311.131 33.2373 311.924 33.2373C312.718 33.2373 313.206 34.1528 313.206 35.6665C313.206 37.1802 312.718 38.0835 311.924 38.0835Z" fill="#30272D"/>
</svg>
