<svg width="180" height="88" viewBox="0 0 180 88" fill="none" xmlns="http://www.w3.org/2000/svg">
<mask id="path-1-inside-1" fill="white">
<path d="M15.5844 67.2368C15.9182 67.2368 16.246 67.1072 16.4821 66.882C16.7182 66.6554 16.8541 66.3442 16.8541 66.0258C16.8541 65.7075 16.7182 65.3948 16.4821 65.1697C16.246 64.9445 15.9182 64.8149 15.5844 64.8149C15.2507 64.8149 14.9229 64.9445 14.6868 65.1697C14.4507 65.3948 14.3148 65.7061 14.3148 66.0258C14.3148 66.3442 14.4507 66.6568 14.6868 66.882C14.9229 67.1072 15.2507 67.2368 15.5844 67.2368Z"/>
<path d="M63.7304 72.5781H57.4557C58.1258 71.9003 58.6807 71.0952 59.0755 70.179C59.9245 68.2107 59.8988 66.0523 59.0036 64.1025C58.8727 63.8173 58.7239 63.5434 58.5617 63.279C58.9089 63.2052 59.2515 63.0931 59.5838 62.9427C61.2601 62.183 62.3016 60.6111 62.3016 58.8411C62.3016 58.4887 62.1409 58.1543 61.8617 57.9244L52.1194 49.9066L48.4569 39.5191C46.9304 35.1904 42.9321 32.155 38.2599 31.6428C39.6415 30.2724 40.4936 28.4125 40.4936 26.3653V24.7783C40.4936 22.4269 39.3713 20.3219 37.6117 18.9222C37.6117 18.9161 37.6127 18.9099 37.6127 18.9038V17.8745C37.6127 15.1868 35.3199 13 32.502 13C29.684 13 27.3918 15.1868 27.3918 17.8745V18.9038C27.3918 18.9099 27.3923 18.9161 27.3928 18.9222C25.6327 20.3219 24.5104 22.4269 24.5104 24.7783V26.3653C24.5104 28.4125 25.3624 30.2724 26.7446 31.6428C22.0719 32.1546 18.0736 35.19 16.5476 39.5191L12.885 49.9066L3.14278 57.9244C2.86307 58.1543 2.70238 58.4887 2.70238 58.8411C2.70238 60.6111 3.74386 62.183 5.42063 62.9427C5.75291 63.0936 6.09561 63.2052 6.44227 63.2794C6.2801 63.5434 6.13132 63.8173 6.00039 64.1025C5.10522 66.0528 5.07992 68.2107 5.92848 70.1794C6.32325 71.0952 6.8782 71.9003 7.54822 72.5781H1.26961C0.568348 72.5781 0 73.1207 0 73.7891C0 74.4579 0.568348 75 1.26961 75H63.7304C64.4317 75 65 74.4579 65 73.7891C65 73.1207 64.4317 72.5781 63.7304 72.5781ZM42.1877 50.1138L42.6965 51.2718C43.5213 53.1492 44.8316 54.8209 46.486 56.107L48.9285 58.0052L42.1877 55.6203V50.1138ZM32.502 15.4219C33.8063 15.4219 34.884 16.3533 35.0491 17.5547C34.2487 17.2974 33.3927 17.1555 32.502 17.1555C31.6118 17.1555 30.7558 17.2974 29.9553 17.5547C30.12 16.3533 31.1982 15.4219 32.502 15.4219ZM27.0496 24.7783C27.0496 21.9108 29.4956 19.5779 32.502 19.5779C35.5084 19.5779 37.9544 21.9108 37.9544 24.7783V26.3653C37.9544 29.2327 35.5084 31.5657 32.502 31.5657C29.4956 31.5657 27.0496 29.2327 27.0496 26.3653V24.7783ZM5.3021 59.3463L14.8068 51.5239C14.9794 51.382 15.1083 51.1985 15.1812 50.9927L18.9544 40.291C20.2835 36.5206 23.9787 33.9871 28.1496 33.9871H36.8549C41.0252 33.9871 44.7205 36.5206 46.0501 40.291L49.8232 50.9927C49.8956 51.1985 50.0251 51.382 50.1972 51.5239L59.7024 59.3463C59.5516 59.9617 59.1231 60.4702 58.4938 60.7554C57.6998 61.1149 56.8185 61.0137 56.137 60.4839L48.0904 54.2296C46.7578 53.1941 45.7024 51.8474 45.0384 50.3357L42.1877 43.8482V40.6292C42.1877 39.9609 41.6189 39.4183 40.9181 39.4183C40.2168 39.4183 39.6485 39.9609 39.6485 40.6292V55.2513H25.3505V44.1074C25.3505 44.1036 25.3505 44.0993 25.3505 44.0951V40.6292C25.3505 39.9609 24.7822 39.4183 24.0809 39.4183C23.3796 39.4183 22.8113 39.9609 22.8113 40.6292V43.8609L19.9656 50.3357C19.3015 51.8474 18.2462 53.1941 16.9141 54.2296L8.86693 60.4839C8.1855 61.0137 7.30422 61.1154 6.51022 60.7554C5.88136 60.4702 5.45287 59.9617 5.3021 59.3463ZM22.8113 55.6222L16.0759 58.0052L18.5179 56.107C20.1724 54.8209 21.4827 53.1492 22.3074 51.2718L22.8113 50.1261V55.6222ZM8.27676 69.2585C7.69254 67.9028 7.7099 66.4165 8.32635 65.0741C8.94281 63.7317 10.076 62.7113 11.5167 62.2014L24.314 57.6732H40.69L53.4877 62.2014C54.9284 62.7113 56.0612 63.7312 56.6776 65.0741C57.2941 66.4165 57.3114 67.9028 56.7272 69.2585C55.8613 71.2669 53.8845 72.5058 51.7495 72.5781H51.3844C50.7834 72.5611 50.1738 72.4523 49.5772 72.2404L38.1572 68.1875H39.8523C40.3279 68.1875 40.7634 67.9345 40.9811 67.531C41.1988 67.128 41.1621 66.6426 40.8859 66.2737L39.6321 64.5973L49.0684 67.189C49.1859 67.2211 49.304 67.2368 49.4205 67.2368C49.972 67.2368 50.4798 66.891 50.64 66.3607C50.8339 65.7179 50.4451 65.0467 49.7711 64.8617L35.4583 60.9309C33.6253 60.1514 31.5161 60.0019 29.4996 60.6031L19.6611 63.5396C18.9921 63.7397 18.6191 64.419 18.8284 65.0571C19.0382 65.6952 19.7504 66.0509 20.4194 65.8513L30.2579 62.9147C31.6584 62.4966 33.1229 62.5969 34.399 63.1323C34.4446 63.1555 34.4932 63.1759 34.5428 63.1943C35.434 63.5959 36.2255 64.2137 36.8281 65.0188L37.3865 65.7657H33.8995C33.7483 65.7657 33.5985 65.7917 33.4567 65.8418L15.4267 72.2404C14.8316 72.4518 14.2231 72.5606 13.623 72.5781H13.252C11.118 72.5048 9.14267 71.266 8.27676 69.2585ZM32.502 68.7651L43.247 72.5781H21.7569L32.502 68.7651Z"/>
</mask>
<path d="M15.5844 67.2368C15.9182 67.2368 16.246 67.1072 16.4821 66.882C16.7182 66.6554 16.8541 66.3442 16.8541 66.0258C16.8541 65.7075 16.7182 65.3948 16.4821 65.1697C16.246 64.9445 15.9182 64.8149 15.5844 64.8149C15.2507 64.8149 14.9229 64.9445 14.6868 65.1697C14.4507 65.3948 14.3148 65.7061 14.3148 66.0258C14.3148 66.3442 14.4507 66.6568 14.6868 66.882C14.9229 67.1072 15.2507 67.2368 15.5844 67.2368Z" fill="#383637"/>
<path d="M63.7304 72.5781H57.4557C58.1258 71.9003 58.6807 71.0952 59.0755 70.179C59.9245 68.2107 59.8988 66.0523 59.0036 64.1025C58.8727 63.8173 58.7239 63.5434 58.5617 63.279C58.9089 63.2052 59.2515 63.0931 59.5838 62.9427C61.2601 62.183 62.3016 60.6111 62.3016 58.8411C62.3016 58.4887 62.1409 58.1543 61.8617 57.9244L52.1194 49.9066L48.4569 39.5191C46.9304 35.1904 42.9321 32.155 38.2599 31.6428C39.6415 30.2724 40.4936 28.4125 40.4936 26.3653V24.7783C40.4936 22.4269 39.3713 20.3219 37.6117 18.9222C37.6117 18.9161 37.6127 18.9099 37.6127 18.9038V17.8745C37.6127 15.1868 35.3199 13 32.502 13C29.684 13 27.3918 15.1868 27.3918 17.8745V18.9038C27.3918 18.9099 27.3923 18.9161 27.3928 18.9222C25.6327 20.3219 24.5104 22.4269 24.5104 24.7783V26.3653C24.5104 28.4125 25.3624 30.2724 26.7446 31.6428C22.0719 32.1546 18.0736 35.19 16.5476 39.5191L12.885 49.9066L3.14278 57.9244C2.86307 58.1543 2.70238 58.4887 2.70238 58.8411C2.70238 60.6111 3.74386 62.183 5.42063 62.9427C5.75291 63.0936 6.09561 63.2052 6.44227 63.2794C6.2801 63.5434 6.13132 63.8173 6.00039 64.1025C5.10522 66.0528 5.07992 68.2107 5.92848 70.1794C6.32325 71.0952 6.8782 71.9003 7.54822 72.5781H1.26961C0.568348 72.5781 0 73.1207 0 73.7891C0 74.4579 0.568348 75 1.26961 75H63.7304C64.4317 75 65 74.4579 65 73.7891C65 73.1207 64.4317 72.5781 63.7304 72.5781ZM42.1877 50.1138L42.6965 51.2718C43.5213 53.1492 44.8316 54.8209 46.486 56.107L48.9285 58.0052L42.1877 55.6203V50.1138ZM32.502 15.4219C33.8063 15.4219 34.884 16.3533 35.0491 17.5547C34.2487 17.2974 33.3927 17.1555 32.502 17.1555C31.6118 17.1555 30.7558 17.2974 29.9553 17.5547C30.12 16.3533 31.1982 15.4219 32.502 15.4219ZM27.0496 24.7783C27.0496 21.9108 29.4956 19.5779 32.502 19.5779C35.5084 19.5779 37.9544 21.9108 37.9544 24.7783V26.3653C37.9544 29.2327 35.5084 31.5657 32.502 31.5657C29.4956 31.5657 27.0496 29.2327 27.0496 26.3653V24.7783ZM5.3021 59.3463L14.8068 51.5239C14.9794 51.382 15.1083 51.1985 15.1812 50.9927L18.9544 40.291C20.2835 36.5206 23.9787 33.9871 28.1496 33.9871H36.8549C41.0252 33.9871 44.7205 36.5206 46.0501 40.291L49.8232 50.9927C49.8956 51.1985 50.0251 51.382 50.1972 51.5239L59.7024 59.3463C59.5516 59.9617 59.1231 60.4702 58.4938 60.7554C57.6998 61.1149 56.8185 61.0137 56.137 60.4839L48.0904 54.2296C46.7578 53.1941 45.7024 51.8474 45.0384 50.3357L42.1877 43.8482V40.6292C42.1877 39.9609 41.6189 39.4183 40.9181 39.4183C40.2168 39.4183 39.6485 39.9609 39.6485 40.6292V55.2513H25.3505V44.1074C25.3505 44.1036 25.3505 44.0993 25.3505 44.0951V40.6292C25.3505 39.9609 24.7822 39.4183 24.0809 39.4183C23.3796 39.4183 22.8113 39.9609 22.8113 40.6292V43.8609L19.9656 50.3357C19.3015 51.8474 18.2462 53.1941 16.9141 54.2296L8.86693 60.4839C8.1855 61.0137 7.30422 61.1154 6.51022 60.7554C5.88136 60.4702 5.45287 59.9617 5.3021 59.3463ZM22.8113 55.6222L16.0759 58.0052L18.5179 56.107C20.1724 54.8209 21.4827 53.1492 22.3074 51.2718L22.8113 50.1261V55.6222ZM8.27676 69.2585C7.69254 67.9028 7.7099 66.4165 8.32635 65.0741C8.94281 63.7317 10.076 62.7113 11.5167 62.2014L24.314 57.6732H40.69L53.4877 62.2014C54.9284 62.7113 56.0612 63.7312 56.6776 65.0741C57.2941 66.4165 57.3114 67.9028 56.7272 69.2585C55.8613 71.2669 53.8845 72.5058 51.7495 72.5781H51.3844C50.7834 72.5611 50.1738 72.4523 49.5772 72.2404L38.1572 68.1875H39.8523C40.3279 68.1875 40.7634 67.9345 40.9811 67.531C41.1988 67.128 41.1621 66.6426 40.8859 66.2737L39.6321 64.5973L49.0684 67.189C49.1859 67.2211 49.304 67.2368 49.4205 67.2368C49.972 67.2368 50.4798 66.891 50.64 66.3607C50.8339 65.7179 50.4451 65.0467 49.7711 64.8617L35.4583 60.9309C33.6253 60.1514 31.5161 60.0019 29.4996 60.6031L19.6611 63.5396C18.9921 63.7397 18.6191 64.419 18.8284 65.0571C19.0382 65.6952 19.7504 66.0509 20.4194 65.8513L30.2579 62.9147C31.6584 62.4966 33.1229 62.5969 34.399 63.1323C34.4446 63.1555 34.4932 63.1759 34.5428 63.1943C35.434 63.5959 36.2255 64.2137 36.8281 65.0188L37.3865 65.7657H33.8995C33.7483 65.7657 33.5985 65.7917 33.4567 65.8418L15.4267 72.2404C14.8316 72.4518 14.2231 72.5606 13.623 72.5781H13.252C11.118 72.5048 9.14267 71.266 8.27676 69.2585ZM32.502 68.7651L43.247 72.5781H21.7569L32.502 68.7651Z" fill="#383637"/>
<path d="M15.5844 67.2368C15.9182 67.2368 16.246 67.1072 16.4821 66.882C16.7182 66.6554 16.8541 66.3442 16.8541 66.0258C16.8541 65.7075 16.7182 65.3948 16.4821 65.1697C16.246 64.9445 15.9182 64.8149 15.5844 64.8149C15.2507 64.8149 14.9229 64.9445 14.6868 65.1697C14.4507 65.3948 14.3148 65.7061 14.3148 66.0258C14.3148 66.3442 14.4507 66.6568 14.6868 66.882C14.9229 67.1072 15.2507 67.2368 15.5844 67.2368Z" stroke="#383637" stroke-width="50" mask="url(#path-1-inside-1)"/>
<path d="M63.7304 72.5781H57.4557C58.1258 71.9003 58.6807 71.0952 59.0755 70.179C59.9245 68.2107 59.8988 66.0523 59.0036 64.1025C58.8727 63.8173 58.7239 63.5434 58.5617 63.279C58.9089 63.2052 59.2515 63.0931 59.5838 62.9427C61.2601 62.183 62.3016 60.6111 62.3016 58.8411C62.3016 58.4887 62.1409 58.1543 61.8617 57.9244L52.1194 49.9066L48.4569 39.5191C46.9304 35.1904 42.9321 32.155 38.2599 31.6428C39.6415 30.2724 40.4936 28.4125 40.4936 26.3653V24.7783C40.4936 22.4269 39.3713 20.3219 37.6117 18.9222C37.6117 18.9161 37.6127 18.9099 37.6127 18.9038V17.8745C37.6127 15.1868 35.3199 13 32.502 13C29.684 13 27.3918 15.1868 27.3918 17.8745V18.9038C27.3918 18.9099 27.3923 18.9161 27.3928 18.9222C25.6327 20.3219 24.5104 22.4269 24.5104 24.7783V26.3653C24.5104 28.4125 25.3624 30.2724 26.7446 31.6428C22.0719 32.1546 18.0736 35.19 16.5476 39.5191L12.885 49.9066L3.14278 57.9244C2.86307 58.1543 2.70238 58.4887 2.70238 58.8411C2.70238 60.6111 3.74386 62.183 5.42063 62.9427C5.75291 63.0936 6.09561 63.2052 6.44227 63.2794C6.2801 63.5434 6.13132 63.8173 6.00039 64.1025C5.10522 66.0528 5.07992 68.2107 5.92848 70.1794C6.32325 71.0952 6.8782 71.9003 7.54822 72.5781H1.26961C0.568348 72.5781 0 73.1207 0 73.7891C0 74.4579 0.568348 75 1.26961 75H63.7304C64.4317 75 65 74.4579 65 73.7891C65 73.1207 64.4317 72.5781 63.7304 72.5781ZM42.1877 50.1138L42.6965 51.2718C43.5213 53.1492 44.8316 54.8209 46.486 56.107L48.9285 58.0052L42.1877 55.6203V50.1138ZM32.502 15.4219C33.8063 15.4219 34.884 16.3533 35.0491 17.5547C34.2487 17.2974 33.3927 17.1555 32.502 17.1555C31.6118 17.1555 30.7558 17.2974 29.9553 17.5547C30.12 16.3533 31.1982 15.4219 32.502 15.4219ZM27.0496 24.7783C27.0496 21.9108 29.4956 19.5779 32.502 19.5779C35.5084 19.5779 37.9544 21.9108 37.9544 24.7783V26.3653C37.9544 29.2327 35.5084 31.5657 32.502 31.5657C29.4956 31.5657 27.0496 29.2327 27.0496 26.3653V24.7783ZM5.3021 59.3463L14.8068 51.5239C14.9794 51.382 15.1083 51.1985 15.1812 50.9927L18.9544 40.291C20.2835 36.5206 23.9787 33.9871 28.1496 33.9871H36.8549C41.0252 33.9871 44.7205 36.5206 46.0501 40.291L49.8232 50.9927C49.8956 51.1985 50.0251 51.382 50.1972 51.5239L59.7024 59.3463C59.5516 59.9617 59.1231 60.4702 58.4938 60.7554C57.6998 61.1149 56.8185 61.0137 56.137 60.4839L48.0904 54.2296C46.7578 53.1941 45.7024 51.8474 45.0384 50.3357L42.1877 43.8482V40.6292C42.1877 39.9609 41.6189 39.4183 40.9181 39.4183C40.2168 39.4183 39.6485 39.9609 39.6485 40.6292V55.2513H25.3505V44.1074C25.3505 44.1036 25.3505 44.0993 25.3505 44.0951V40.6292C25.3505 39.9609 24.7822 39.4183 24.0809 39.4183C23.3796 39.4183 22.8113 39.9609 22.8113 40.6292V43.8609L19.9656 50.3357C19.3015 51.8474 18.2462 53.1941 16.9141 54.2296L8.86693 60.4839C8.1855 61.0137 7.30422 61.1154 6.51022 60.7554C5.88136 60.4702 5.45287 59.9617 5.3021 59.3463ZM22.8113 55.6222L16.0759 58.0052L18.5179 56.107C20.1724 54.8209 21.4827 53.1492 22.3074 51.2718L22.8113 50.1261V55.6222ZM8.27676 69.2585C7.69254 67.9028 7.7099 66.4165 8.32635 65.0741C8.94281 63.7317 10.076 62.7113 11.5167 62.2014L24.314 57.6732H40.69L53.4877 62.2014C54.9284 62.7113 56.0612 63.7312 56.6776 65.0741C57.2941 66.4165 57.3114 67.9028 56.7272 69.2585C55.8613 71.2669 53.8845 72.5058 51.7495 72.5781H51.3844C50.7834 72.5611 50.1738 72.4523 49.5772 72.2404L38.1572 68.1875H39.8523C40.3279 68.1875 40.7634 67.9345 40.9811 67.531C41.1988 67.128 41.1621 66.6426 40.8859 66.2737L39.6321 64.5973L49.0684 67.189C49.1859 67.2211 49.304 67.2368 49.4205 67.2368C49.972 67.2368 50.4798 66.891 50.64 66.3607C50.8339 65.7179 50.4451 65.0467 49.7711 64.8617L35.4583 60.9309C33.6253 60.1514 31.5161 60.0019 29.4996 60.6031L19.6611 63.5396C18.9921 63.7397 18.6191 64.419 18.8284 65.0571C19.0382 65.6952 19.7504 66.0509 20.4194 65.8513L30.2579 62.9147C31.6584 62.4966 33.1229 62.5969 34.399 63.1323C34.4446 63.1555 34.4932 63.1759 34.5428 63.1943C35.434 63.5959 36.2255 64.2137 36.8281 65.0188L37.3865 65.7657H33.8995C33.7483 65.7657 33.5985 65.7917 33.4567 65.8418L15.4267 72.2404C14.8316 72.4518 14.2231 72.5606 13.623 72.5781H13.252C11.118 72.5048 9.14267 71.266 8.27676 69.2585ZM32.502 68.7651L43.247 72.5781H21.7569L32.502 68.7651Z" stroke="#383637" stroke-width="50" mask="url(#path-1-inside-1)"/>
<path d="M94.4891 33.1172H81.7156V26.0078H93.7664V21.4766H81.7156V14.6797H94.4891V9.81641H75.8172V38H94.4891V33.1172ZM105.927 34.2109C103.994 34.2109 102.705 33.2344 102.705 31.6719C102.705 30.1875 103.916 29.2305 106.045 29.0742L110.459 28.8008V30.3242C110.459 32.5898 108.408 34.2109 105.927 34.2109ZM104.052 38.332C106.67 38.332 109.267 37.0234 110.439 34.7969H110.556V38H116.064V23.6055C116.064 19.3867 112.568 16.6133 107.197 16.6133C101.65 16.6133 98.193 19.4062 97.9781 23.4688H103.193C103.466 21.9258 104.814 20.8711 106.943 20.8711C109.091 20.8711 110.459 22.0039 110.459 23.957V25.3438L105.185 25.6562C99.9703 25.9688 97.0406 28.1758 97.0406 31.9844C97.0406 35.7539 100.068 38.332 104.052 38.332ZM119.104 23.2148C119.104 26.3008 121.135 28.3711 125.1 29.2695L128.967 30.1289C130.842 30.5781 131.545 31.1641 131.545 32.2188C131.545 33.5859 130.237 34.4453 128.069 34.4453C125.803 34.4453 124.416 33.4297 124.143 31.6719H118.577C118.889 35.7539 122.327 38.4492 127.913 38.4492C133.44 38.4492 137.229 35.7344 137.229 31.6133C137.229 28.4883 135.53 26.8281 131.33 25.8906L127.327 25.0312C125.491 24.6016 124.592 23.8984 124.592 22.8633C124.592 21.5156 125.881 20.6172 127.854 20.6172C129.963 20.6172 131.311 21.6523 131.428 23.332H136.682C136.604 19.2695 133.186 16.6133 127.932 16.6133C122.561 16.6133 119.104 19.2305 119.104 23.2148ZM142.339 45.7539C147.691 45.7539 150.308 43.8398 152.105 38.4688L159.312 17.0625H153.296L148.843 33.4297H148.745L144.292 17.0625H138.023L145.308 38.0195C145.347 38.0977 145.132 38.9375 145.132 39.0156C144.741 40.6758 143.706 41.3398 141.616 41.3398C141.402 41.3398 140.366 41.3398 140.191 41.3008V45.6953C140.366 45.7344 142.144 45.7539 142.339 45.7539Z" fill="#FFC579"/>
<path d="M103.452 77V43.1797H99.2328V57.8047H80.6703V43.1797H76.4516V77H80.6703V61.6016H99.2328V77H103.452ZM116.417 73.9531C113.487 73.9531 111.542 72.4297 111.542 70.1094C111.542 67.8125 113.417 66.3594 116.698 66.1484L123.214 65.75V67.7422C123.214 71.2578 120.261 73.9531 116.417 73.9531ZM115.503 77.4219C118.784 77.4219 121.878 75.5938 123.331 72.8047H123.425V77H127.292V60.1484C127.292 55.2969 123.683 52.2031 117.964 52.2031C112.198 52.2031 108.589 55.4375 108.308 59.6562H112.245C112.761 57.2656 114.73 55.7891 117.87 55.7891C121.245 55.7891 123.214 57.5703 123.214 60.5469V62.5859L116.23 62.9844C110.605 63.3125 107.394 65.9375 107.394 70.1094C107.394 74.4922 110.652 77.4219 115.503 77.4219ZM144.289 77.4219C150.523 77.4219 154.648 72.4766 154.648 64.8125C154.648 57.1719 150.5 52.2031 144.359 52.2031C140.914 52.2031 138.078 53.9141 136.555 56.7031H136.461V43.1797H132.383V77H136.273V72.875H136.367C137.938 75.6875 140.727 77.4219 144.289 77.4219ZM143.492 55.7891C147.805 55.7891 150.477 59.2812 150.477 64.8125C150.477 70.3906 147.805 73.8359 143.492 73.8359C139.367 73.8359 136.438 70.25 136.438 64.8125C136.438 59.3984 139.367 55.7891 143.492 55.7891ZM158.708 77H162.786V52.625H158.708V77ZM160.747 48.5234C162.153 48.5234 163.302 47.375 163.302 45.9922C163.302 44.5859 162.153 43.4609 160.747 43.4609C159.364 43.4609 158.216 44.5859 158.216 45.9922C158.216 47.375 159.364 48.5234 160.747 48.5234ZM169.306 46.7422V52.625H165.673V55.9766H169.306V70.6719C169.306 75.3594 171.041 77.1875 175.517 77.1875C176.478 77.1875 177.603 77.1172 178.095 77V73.5781C177.814 73.625 176.877 73.6953 176.408 73.6953C174.322 73.6953 173.384 72.6875 173.384 70.4609V55.9766H178.119V52.625H173.384V46.7422H169.306Z" fill="#383637"/>
</svg>
