<svg width="312" height="191" viewBox="0 0 312 191" fill="none" xmlns="http://www.w3.org/2000/svg">
<path d="M311.49 153.05H13.32C13.1874 153.05 13.0602 152.997 12.9665 152.903C12.8727 152.81 12.82 152.682 12.82 152.55C12.82 152.417 12.8727 152.29 12.9665 152.196C13.0602 152.102 13.1874 152.05 13.32 152.05H311.49C311.623 152.05 311.75 152.102 311.844 152.196C311.937 152.29 311.99 152.417 311.99 152.55C311.99 152.682 311.937 152.81 311.844 152.903C311.75 152.997 311.623 153.05 311.49 153.05Z" fill="#D1D3D4"/>
<path d="M46.2 177.97C45.803 177.967 45.423 177.808 45.1423 177.528C44.8615 177.247 44.7026 176.867 44.7 176.47V128.65C44.7 128.252 44.8581 127.871 45.1394 127.589C45.4207 127.308 45.8022 127.15 46.2 127.15C46.5978 127.15 46.9794 127.308 47.2607 127.589C47.542 127.871 47.7 128.252 47.7 128.65V176.47C47.7 176.868 47.542 177.249 47.2607 177.531C46.9794 177.812 46.5978 177.97 46.2 177.97Z" fill="#231F20"/>
<path d="M243.5 134.31C243.603 140.879 242.183 147.382 239.35 153.31C231.07 170.62 211.6 181.31 192.43 185.79C176.38 189.53 159.71 189.68 143.23 188.99C125.73 188.26 107.48 186.34 92.73 176.9C78.8318 167.87 68.4291 154.37 63.24 138.63C57.24 119.87 55.38 100.06 54.52 80.3899C54.242 75.7264 54.2687 71.0498 54.6 66.3899C54.7604 64.5835 55.0208 62.7874 55.38 61.0099C57.023 53.22 60.8366 46.054 66.38 40.3399C67.6448 39.0219 68.9801 37.7734 70.38 36.5999C86.67 23.0499 112.14 19.6699 130.25 31.6899C142.97 40.1099 155.84 46.2099 164.68 59.3499C167.36 63.3499 169.6 67.5899 172.26 71.5699C180.035 82.9397 191.151 91.6128 204.07 96.3899C207.336 97.5468 210.704 98.3906 214.13 98.9099C223.42 100.47 232.28 101.19 237.88 110.8C241.66 117.27 243.05 124.88 243.43 132.36C243.43 132.87 243.48 133.36 243.49 133.85C243.49 134 243.5 134.15 243.5 134.31Z" fill="white"/>
<path d="M104.74 24.31C113.783 24.2022 122.656 26.7735 130.24 31.7C142.96 40.12 155.83 46.22 164.67 59.36C167.35 63.36 169.59 67.6 172.25 71.58C180.025 82.9498 191.141 91.6229 204.06 96.4C207.329 97.5541 210.701 98.3946 214.13 98.91C223.41 100.47 232.28 101.19 237.88 110.8C241.66 117.27 243.05 124.88 243.43 132.36C243.43 132.87 243.48 133.36 243.49 133.85C243.49 134.02 243.49 134.17 243.49 134.33C243.593 140.899 242.173 147.402 239.34 153.33C231.06 170.64 211.59 181.33 192.42 185.81C180.9 188.5 169.05 189.33 157.19 189.33C152.53 189.33 147.87 189.2 143.19 189.01C125.69 188.28 107.44 186.36 92.69 176.92C78.7918 167.89 68.3891 154.391 63.2 138.65C57.2 119.89 55.34 100.08 54.48 80.41C54.202 75.7465 54.2287 71.0699 54.56 66.41C54.7205 64.6036 54.9809 62.8075 55.34 61.03C56.983 53.2401 60.7966 46.0741 66.34 40.36C67.6048 39.0419 68.9401 37.7934 70.34 36.62C80.0425 28.6916 92.1802 24.3479 104.71 24.32L104.74 24.31ZM104.71 23.32C91.951 23.3555 79.5926 27.7798 69.71 35.85C68.2799 37.0462 66.9177 38.3216 65.63 39.67C59.9742 45.5251 56.0822 52.855 54.4 60.82C54.0345 62.6338 53.7707 64.4667 53.61 66.31C53.2647 71.016 53.2346 75.7399 53.52 80.45C54.3 98.2 55.94 119.02 62.29 138.95C67.5802 154.896 78.1206 168.578 92.19 177.76C107.05 187.27 125.48 189.27 143.19 190.01C148.38 190.23 152.96 190.33 157.19 190.33C171 190.33 182.26 189.2 192.65 186.78C215.39 181.48 232.74 169.44 240.24 153.78C243.141 147.709 244.596 141.048 244.49 134.32V134.06C244.485 133.99 244.485 133.92 244.49 133.85C244.49 133.363 244.47 132.873 244.43 132.38V132.31C243.97 123.25 242.11 116.05 238.74 110.31C233.34 101.02 225.11 99.69 216.41 98.31L214.3 97.91C210.934 97.4087 207.623 96.5917 204.41 95.47C191.688 90.7639 180.741 82.2242 173.08 71.03C171.78 69.09 170.55 67.03 169.36 65.03C168.17 63.03 166.87 60.84 165.5 58.81C158.32 48.15 148.67 42.13 138.45 35.75C135.94 34.18 133.34 32.56 130.79 30.87C123.055 25.8494 114.011 23.223 104.79 23.32H104.71Z" fill="#231F20"/>
<path d="M165.43 82.76H165.32C165.256 82.7459 165.195 82.7191 165.141 82.681C165.088 82.643 165.042 82.5945 165.008 82.5385C164.973 82.4825 164.95 82.4202 164.94 82.3551C164.93 82.2901 164.934 82.2237 164.95 82.16C165.86 78.27 170.87 76.04 171.08 75.95C171.141 75.9149 171.208 75.893 171.278 75.8857C171.348 75.8785 171.419 75.886 171.486 75.9079C171.552 75.9298 171.614 75.9655 171.666 76.0127C171.718 76.0599 171.759 76.1175 171.788 76.1819C171.816 76.2462 171.83 76.3157 171.83 76.386C171.83 76.4563 171.814 76.5256 171.785 76.5896C171.756 76.6536 171.714 76.7108 171.661 76.7574C171.609 76.8039 171.547 76.8389 171.48 76.86C171.48 76.86 166.72 78.98 165.92 82.39C165.89 82.4965 165.825 82.5902 165.737 82.657C165.649 82.7238 165.541 82.7599 165.43 82.76Z" fill="#D1D3D4"/>
<path d="M133.35 142.69C133.274 142.693 133.198 142.675 133.13 142.64C133.012 142.58 132.923 142.476 132.882 142.35C132.841 142.225 132.851 142.088 132.91 141.97C136.32 135.23 142.19 129.68 145.71 126.74C144.26 127.26 142.6 127.81 140.82 128.39C133.28 130.86 123.91 133.92 122.57 138.27C122.529 138.396 122.439 138.5 122.321 138.56C122.203 138.62 122.066 138.631 121.94 138.59C121.815 138.551 121.71 138.464 121.648 138.348C121.586 138.231 121.572 138.096 121.61 137.97C123.11 133.14 132.76 129.97 140.51 127.44C143.3 126.622 146.033 125.62 148.69 124.44C148.802 124.382 148.932 124.369 149.053 124.404C149.174 124.44 149.277 124.521 149.34 124.63C149.408 124.736 149.432 124.865 149.406 124.989C149.379 125.112 149.305 125.22 149.2 125.29C149.1 125.36 138.75 132.62 133.8 142.43C133.756 142.51 133.691 142.577 133.611 142.623C133.532 142.669 133.442 142.692 133.35 142.69Z" fill="#D1D3D4"/>
<path d="M198.28 136.69C198.189 136.69 198.099 136.665 198.022 136.618C197.944 136.57 197.881 136.501 197.84 136.42C197.781 136.302 197.771 136.165 197.812 136.04C197.853 135.914 197.942 135.81 198.06 135.75C205.12 132.25 213.41 128.95 221.38 131.01C221.816 131.08 222.234 131.235 222.61 131.466C222.986 131.698 223.312 132.002 223.57 132.36C223.611 132.417 223.64 132.481 223.655 132.55C223.669 132.618 223.669 132.689 223.655 132.757C223.64 132.826 223.612 132.89 223.571 132.947C223.53 133.004 223.477 133.051 223.417 133.086C223.356 133.121 223.289 133.144 223.22 133.151C223.15 133.159 223.08 133.152 223.013 133.13C222.947 133.109 222.885 133.074 222.833 133.027C222.781 132.981 222.739 132.924 222.71 132.86C222.311 132.38 221.748 132.067 221.13 131.98C213.48 129.98 205.4 133.23 198.5 136.64C198.433 136.676 198.357 136.694 198.28 136.69Z" fill="#D1D3D4"/>
<path d="M122.72 101.14C122.647 101.154 122.573 101.154 122.5 101.14C122.424 101.1 122.36 101.041 122.312 100.97C122.265 100.898 122.237 100.816 122.23 100.73C121.58 99.73 114.06 93.73 104.03 90.94C94.62 88.27 86.35 89.19 79.44 93.65C79.3858 93.6871 79.3248 93.713 79.2604 93.7261C79.196 93.7392 79.1297 93.7392 79.0653 93.7261C79.001 93.7131 78.9399 93.6872 78.8857 93.6501C78.8315 93.6129 78.7854 93.5653 78.75 93.51C78.6786 93.3985 78.6543 93.2633 78.6824 93.134C78.7105 93.0046 78.7888 92.8917 78.9 92.82C96.22 81.62 117.79 95.29 122.21 99.28C123.13 100.11 123.37 100.52 123.21 100.92C123.157 100.999 123.083 101.061 122.996 101.1C122.91 101.139 122.814 101.153 122.72 101.14Z" fill="#D1D3D4"/>
<path d="M99.83 134.03C99.7312 134.034 99.6336 134.007 99.5502 133.954C99.4667 133.901 99.4012 133.824 99.3622 133.733C99.3233 133.642 99.3127 133.542 99.332 133.445C99.3512 133.348 99.3993 133.259 99.47 133.19C118.94 112.6 132.47 118.53 133.01 118.79C133.131 118.846 133.224 118.947 133.27 119.072C133.316 119.196 133.311 119.334 133.255 119.455C133.199 119.576 133.098 119.669 132.973 119.715C132.849 119.761 132.711 119.756 132.59 119.7C132.46 119.64 119.13 113.86 100.19 133.88C100.143 133.928 100.087 133.967 100.026 133.992C99.9636 134.018 99.8971 134.031 99.83 134.03Z" fill="#D1D3D4"/>
<path d="M216.78 76.1698L222.22 64.7998C222.22 64.7998 260.01 78.1998 265.07 83.5598C270.13 88.9198 270.84 92.4698 277.07 92.2698H277.16C280.16 91.8398 283.11 89.1298 285.39 87.2698C289.531 83.8925 293.461 80.2657 297.16 76.4098C300.824 72.7605 304.207 68.8393 307.28 64.6798C308.41 63.0998 310.22 60.9098 310.46 58.9498C310.76 56.4998 308.56 52.8798 306.46 51.7398C301.24 48.8298 292.46 57.1498 288.46 59.7398C286.15 61.2198 282.25 64.9198 279.56 64.9698C278.02 64.9698 275.8 63.6398 274.4 63.0998C267.17 60.2898 259.99 57.2998 252.79 54.3898C244.22 50.9198 235.64 47.4498 226.96 44.2498C223.78 43.0798 220.59 41.8998 217.34 40.9498C216.01 40.5598 213.86 39.6098 212.44 40.0198C207.87 41.3598 193.39 64.7598 193.39 64.7598" fill="white"/>
<path d="M276.57 92.77C272.05 92.77 270.36 90.68 267.84 87.56C266.96 86.47 265.97 85.24 264.71 83.91C260.07 78.99 226.64 66.91 222.47 65.42L217.23 76.42C217.205 76.4839 217.167 76.5419 217.118 76.5905C217.07 76.6391 217.012 76.6772 216.948 76.7023C216.884 76.7275 216.816 76.7393 216.747 76.7369C216.678 76.7344 216.611 76.7179 216.549 76.6883C216.487 76.6587 216.432 76.6167 216.387 76.5648C216.342 76.5129 216.308 76.4523 216.288 76.3868C216.267 76.3213 216.26 76.2523 216.267 76.184C216.275 76.1157 216.296 76.0496 216.33 75.99L221.77 64.62C221.822 64.5096 221.913 64.4222 222.026 64.3743C222.138 64.3264 222.264 64.3213 222.38 64.36C223.93 64.91 260.38 77.87 265.44 83.26C266.72 84.63 267.73 85.87 268.62 86.97C271.21 90.18 272.62 91.97 277.03 91.81C279.56 91.45 282.08 89.3699 284.12 87.7L285.05 86.94C289.176 83.5749 293.093 79.9615 296.78 76.12C300.426 72.4895 303.793 68.5884 306.85 64.45L307.37 63.73C308.43 62.29 309.75 60.5 309.94 58.94C310.22 56.7 308.09 53.26 306.24 52.23C302.37 50.08 295.98 54.88 291.76 58.06C290.59 58.94 289.58 59.7 288.76 60.24C288.16 60.63 287.42 61.19 286.64 61.78C284.34 63.53 281.73 65.51 279.59 65.55C278.18 65.3953 276.818 64.9492 275.59 64.24C275.11 64.01 274.66 63.8 274.27 63.65C269.18 61.65 264.03 59.57 259.06 57.54L252.66 54.93C244.28 51.54 235.61 48.03 226.83 44.8C223.89 43.71 220.55 42.48 217.25 41.51L216.34 41.21C215.13 40.8 213.62 40.29 212.63 40.58C209.03 41.64 197.86 58.64 193.86 65.1C193.826 65.1555 193.782 65.2038 193.729 65.242C193.677 65.2802 193.617 65.3075 193.554 65.3224C193.49 65.3373 193.425 65.3395 193.361 65.3287C193.296 65.318 193.235 65.2946 193.18 65.26C193.123 65.226 193.074 65.1812 193.035 65.1281C192.995 65.075 192.967 65.0146 192.951 64.9504C192.935 64.8863 192.932 64.8196 192.942 64.7543C192.953 64.689 192.976 64.6263 193.01 64.57C193.61 63.57 207.65 41 212.35 39.57C213.64 39.2 215.35 39.76 216.66 40.22L217.53 40.5C220.86 41.5 224.22 42.72 227.18 43.81C235.97 47.05 244.64 50.56 253.03 53.96L259.43 56.56C264.43 58.56 269.55 60.69 274.64 62.67C275.04 62.82 275.51 63.05 276.02 63.29C277.115 63.9081 278.316 64.3183 279.56 64.5C281.37 64.5 283.95 62.5 286.02 60.93C286.81 60.33 287.56 59.76 288.2 59.35C289.01 58.83 290.01 58.08 291.2 57.21C295.89 53.67 302.33 48.84 306.77 51.31C308.94 52.52 311.31 56.31 310.97 59.02C310.75 60.83 309.35 62.74 308.22 64.28C308.04 64.52 307.87 64.75 307.71 64.98C304.621 69.1597 301.221 73.1008 297.54 76.77C293.824 80.6385 289.876 84.2785 285.72 87.67L284.79 88.42C282.66 90.18 280.02 92.36 277.25 92.75H276.61L276.57 92.77Z" fill="#231F20"/>
<path d="M117.67 46.7899L105.6 48.4299L87.32 34.3199L95.81 30.5099L91.57 19.7999C91.57 19.7999 61.47 12.6599 56.43 20.1099C43.16 39.7399 73.29 51.0399 93.53 72.2499C93.53 72.2499 111.62 104.56 135.53 126.1C135.53 126.1 157.16 111.1 171.53 91.8299L156.4 52.6699C156.4 52.6699 168 6.42988 162.6 1.53988C157.2 -3.35012 121.87 11.4499 121.87 11.4499L128.6 20.1099L141.83 19.7999L139.54 32.5099C139.54 32.5099 123.86 38.6399 117.67 46.7899Z" fill="#FFC579"/>
<path d="M89.75 15.36C90.5424 14.6068 91.5427 14.1088 92.6214 13.9305C93.7 13.7522 94.8074 13.9018 95.8 14.36C95.3107 13.5995 95.0332 12.7221 94.9963 11.8185C94.9594 10.915 95.1643 10.0179 95.59 9.22C96.4712 7.65555 97.6703 6.29298 99.11 5.22C100.971 3.50848 103.13 2.15273 105.48 1.22C111.65 -0.949998 118.48 1.96 123.69 5.94C126.46 8.06 129.78 11.34 129.94 15.08C130.08 18.55 126.83 23.34 125.11 26.28C122.65 30.47 119.56 34.43 115.44 37.01C104.52 43.84 91.44 37.01 87.94 25.29C87.11 22.54 86.94 19.4 88.42 16.92C88.7743 16.3302 89.2237 15.8031 89.75 15.36Z" fill="white"/>
<path d="M106.2 40.2499C104.046 40.2444 101.91 39.8445 99.9 39.0699C96.9226 37.9027 94.2528 36.0679 92.0961 33.7066C89.9394 31.3453 88.3534 28.5206 87.46 25.4499C86.46 22.0899 86.64 18.9799 87.99 16.6699C88.3707 16.029 88.8576 15.4575 89.43 14.9799C90.1466 14.339 91.0005 13.8706 91.9261 13.6106C92.8517 13.3506 93.8245 13.3059 94.77 13.4799C94.3121 12.0114 94.4449 10.4222 95.14 9.04991C96.0398 7.39764 97.2846 5.95838 98.79 4.82991C100.702 3.08611 102.914 1.70372 105.32 0.749912C110.73 -1.15009 117.54 0.599912 123.99 5.54991C126.84 7.73991 130.27 11.1599 130.44 15.0699C130.57 18.2099 128.11 22.2799 126.31 25.2499C126.03 25.7099 125.77 26.1399 125.54 26.5399C122.54 31.5999 119.35 35.1699 115.71 37.4499C112.866 39.258 109.57 40.2284 106.2 40.2499ZM90.07 15.7399C89.5896 16.1495 89.1807 16.6361 88.86 17.1799C87.22 19.9599 87.86 23.3699 88.42 25.1799C89.2655 28.1076 90.7718 30.8022 92.8228 33.056C94.8738 35.3099 97.4148 37.0629 100.25 38.1799C102.685 39.1147 105.305 39.4624 107.899 39.1949C110.493 38.9273 112.988 38.052 115.18 36.6399C118.68 34.4499 121.79 30.9899 124.67 26.0699C124.91 25.6699 125.17 25.2299 125.46 24.7699C127.19 21.9099 129.56 17.9899 129.46 15.1599C129.31 11.6299 126.08 8.43991 123.41 6.38991C120.48 4.13991 112.9 -0.800086 105.67 1.73991C103.378 2.64907 101.271 3.96715 99.45 5.62991C98.0427 6.65706 96.8672 7.9688 96 9.47991C95.6115 10.1941 95.4214 10.9993 95.4496 11.8117C95.4777 12.6242 95.723 13.4144 96.16 14.0999C96.2293 14.1912 96.2652 14.3036 96.2615 14.4182C96.2579 14.5328 96.215 14.6426 96.14 14.7293C96.065 14.816 95.9624 14.8743 95.8496 14.8945C95.7367 14.9146 95.6204 14.8953 95.52 14.8399C94.6187 14.4293 93.6157 14.2956 92.6383 14.4559C91.6609 14.6161 90.7531 15.063 90.03 15.7399H90.07Z" fill="#231F20"/>
<path d="M130.26 40.5999L135.48 48.8699C135.48 48.8699 136.64 55.4299 127.75 57.4699C118.86 59.5099 114.92 53.5499 114.92 53.5499L103.61 36.8399C103.61 36.8399 107.93 30.7699 99.83 18.8399C107.695 18.3892 115.295 15.8297 121.83 11.4299C121.83 11.4299 132.34 23.4299 134.44 30.1099C136.54 36.7899 130.26 40.5999 130.26 40.5999Z" fill="white"/>
<path d="M124.2 58.3898C122.34 58.439 120.493 58.0523 118.809 57.2605C117.125 56.4687 115.649 55.2938 114.5 53.8298L103.2 37.1198C103.142 37.0361 103.111 36.9367 103.111 36.8348C103.111 36.733 103.142 36.6335 103.2 36.5498C103.2 36.4898 107.2 30.5498 99.42 19.1398C99.3712 19.0619 99.3453 18.9718 99.3453 18.8798C99.3453 18.7879 99.3712 18.6978 99.42 18.6198C99.464 18.5416 99.5278 18.4764 99.6051 18.4307C99.6823 18.3851 99.7703 18.3606 99.86 18.3598C107.637 17.8974 115.149 15.3669 121.62 11.0298C121.723 10.9632 121.846 10.9357 121.967 10.9522C122.088 10.9687 122.199 11.0282 122.28 11.1198C122.71 11.6198 132.87 23.3298 134.99 29.9698C136.86 35.8498 132.39 39.6898 130.99 40.7398L135.99 48.6098C136.021 48.6665 136.045 48.7271 136.06 48.7898C136.06 48.8598 137.19 55.7898 127.94 57.9498C126.715 58.2432 125.46 58.3909 124.2 58.3898ZM104.2 36.8198L115.33 53.2698C115.49 53.5098 119.22 58.9098 127.64 56.9798C135.47 55.1798 135.1 49.8498 135 49.0498L129.83 40.9098C129.761 40.7958 129.74 40.6595 129.77 40.5298C129.785 40.4637 129.813 40.4012 129.852 40.3462C129.892 40.2912 129.942 40.2448 130 40.2098C130.24 40.0598 136 36.4798 134 30.3198C132.14 24.4798 123.46 14.1298 121.77 12.1498C115.47 16.2455 108.257 18.7222 100.77 19.3598C107.42 29.5898 105 35.4498 104.2 36.8198Z" fill="#231F20"/>
<path d="M110.58 40.2399C109.986 40.954 109.258 41.544 108.436 41.9764C107.614 42.4088 106.715 42.675 105.79 42.7599C104.49 42.831 103.193 42.5677 102.024 41.9952C100.855 41.4228 99.8513 40.5603 99.11 39.4899C98.5029 38.7346 98.0724 37.8531 97.85 36.9099C97.7437 36.4396 97.7387 35.9521 97.8352 35.4797C97.9318 35.0073 98.1277 34.5608 98.41 34.1699C99.2383 33.3489 100.307 32.813 101.46 32.6399C103.13 32.2099 103.72 32.8599 105.24 33.2499C105.09 33.2499 104.81 33.0199 104.66 32.9999" fill="white"/>
<path d="M105.2 43.28C103.922 43.245 102.671 42.911 101.545 42.3049C100.42 41.6989 99.4523 40.8375 98.72 39.79C98.0616 38.9823 97.5964 38.0349 97.36 37.02C97.2432 36.4857 97.2398 35.9328 97.3501 35.3971C97.4603 34.8614 97.6817 34.3548 98 33.91C98.8915 32.9962 100.057 32.3992 101.32 32.21C102.295 31.942 103.334 32.0307 104.25 32.46L104.53 32.56C104.593 32.5501 104.657 32.5501 104.72 32.56C104.88 32.59 105.033 32.6512 105.17 32.74L105.31 32.81C105.443 32.8365 105.559 32.9146 105.634 33.0271C105.709 33.1397 105.737 33.2774 105.71 33.41C105.683 33.5426 105.605 33.6592 105.493 33.7342C105.38 33.8093 105.243 33.8365 105.11 33.81H104.99C104.61 33.7062 104.237 33.5827 103.87 33.44C103.144 33.0782 102.31 32.9998 101.53 33.22C100.485 33.3583 99.5129 33.832 98.76 34.57C98.5203 34.9025 98.3544 35.2824 98.2734 35.6842C98.1923 36.086 98.198 36.5005 98.29 36.9C98.4948 37.7656 98.8951 38.5729 99.46 39.26C100.149 40.2651 101.085 41.0762 102.177 41.6155C103.27 42.1549 104.483 42.4044 105.7 42.34C106.574 42.253 107.421 41.9935 108.194 41.5763C108.966 41.1592 109.648 40.5928 110.2 39.91C110.241 39.8593 110.293 39.8174 110.351 39.7869C110.409 39.7563 110.472 39.7377 110.537 39.7321C110.603 39.7265 110.668 39.7341 110.731 39.7543C110.793 39.7746 110.85 39.8071 110.9 39.85C110.951 39.8907 110.994 39.9414 111.026 39.999C111.057 40.0566 111.077 40.1199 111.083 40.1852C111.09 40.2504 111.083 40.3164 111.064 40.3791C111.044 40.4417 111.012 40.4998 110.97 40.55C110.333 41.3161 109.551 41.949 108.669 42.4123C107.787 42.8757 106.822 43.1603 105.83 43.25C105.62 43.28 105.41 43.28 105.2 43.28Z" fill="#231F20"/>
<path d="M134.69 47.6199C131.866 48.6991 128.75 48.7381 125.9 47.7299C120.73 46.1099 119.59 43.1498 119.59 43.1498C119.59 43.1498 125.59 44.2399 130.26 40.5999L134.69 47.6199Z" fill="#231F20"/>
<path d="M130.31 48.9099C128.762 48.9054 127.224 48.6625 125.75 48.1899C120.41 46.5099 119.17 43.4299 119.12 43.2999C119.09 43.2176 119.082 43.1288 119.098 43.0426C119.114 42.9564 119.153 42.8761 119.21 42.8099C119.264 42.7402 119.337 42.6873 119.421 42.6573C119.504 42.6272 119.594 42.6212 119.68 42.6399C119.74 42.6399 125.51 43.6399 129.95 40.1899C130.005 40.1471 130.067 40.1161 130.134 40.0989C130.202 40.0817 130.272 40.0786 130.34 40.0899C130.478 40.1153 130.6 40.1945 130.68 40.3099L135.11 47.3099C135.149 47.3682 135.174 47.4342 135.184 47.5033C135.195 47.5724 135.19 47.6429 135.17 47.7099C135.128 47.8463 135.035 47.961 134.91 48.0299C133.454 48.6384 131.888 48.9381 130.31 48.9099ZM120.54 43.7399C121.965 45.4546 123.892 46.6787 126.05 47.2399C128.604 48.0985 131.363 48.1369 133.94 47.3499L130.12 41.3499C127.29 43.2119 123.914 44.0613 120.54 43.7599V43.7399Z" fill="#231F20"/>
<path d="M117.67 22.6899C117.67 22.6899 125.06 26.5699 124.67 28.1499C124.28 29.7299 121.18 30.5099 121.18 30.5099" fill="white"/>
<path d="M121.18 31.0099C121.067 31.0109 120.958 30.9739 120.869 30.905C120.78 30.836 120.717 30.7391 120.69 30.6299C120.66 30.5026 120.68 30.3686 120.748 30.2564C120.815 30.1442 120.923 30.0629 121.05 30.0299C121.78 29.8399 123.92 29.0299 124.18 28.0299C124.32 27.3899 121.1 25.0299 117.44 23.1399C117.381 23.1093 117.329 23.0674 117.287 23.0166C117.244 22.9658 117.212 22.907 117.193 22.8438C117.173 22.7805 117.167 22.714 117.173 22.6481C117.179 22.5822 117.199 22.5182 117.23 22.4599C117.292 22.3438 117.397 22.2568 117.522 22.2175C117.647 22.1782 117.783 22.1898 117.9 22.2499C120.23 23.4699 125.59 26.4999 125.15 28.2499C124.71 29.9999 121.65 30.8899 121.3 30.9799L121.18 31.0099Z" fill="#231F20"/>
<path d="M113.164 26.4255C113.746 26.1707 113.927 25.2998 113.568 24.4802C113.209 23.6607 112.446 23.2028 111.864 23.4576C111.283 23.7124 111.102 24.5833 111.461 25.4029C111.82 26.2224 112.582 26.6803 113.164 26.4255Z" fill="#231F20"/>
<path d="M123.141 21.0116C123.622 20.5967 123.538 19.7112 122.954 19.0338C122.369 18.3564 121.506 18.1436 121.025 18.5585C120.544 18.9735 120.628 19.8589 121.212 20.5363C121.797 21.2137 122.66 21.4265 123.141 21.0116Z" fill="#231F20"/>
<path d="M125.6 38.8099C124.528 38.8065 123.47 38.5567 122.51 38.0799C121.069 37.3436 119.825 36.2739 118.88 34.9599C118.84 34.9024 118.812 34.8371 118.798 34.7683C118.784 34.6995 118.785 34.6285 118.8 34.5599C118.86 34.2699 118.89 34.1599 128.06 29.0299C128.162 28.9729 128.282 28.9537 128.397 28.9756C128.512 28.9976 128.616 29.0593 128.69 29.1499C128.8 29.2799 131.36 32.4499 130.69 35.4799C130.515 36.0888 130.208 36.6514 129.789 37.1269C129.371 37.6025 128.852 37.9792 128.27 38.2299C127.436 38.6233 126.522 38.8217 125.6 38.8099ZM120 34.8099C120.797 35.8134 121.8 36.6351 122.94 37.2199C123.691 37.6088 124.519 37.8233 125.364 37.8475C126.209 37.8717 127.048 37.7051 127.82 37.3599C128.259 37.1822 128.655 36.9113 128.979 36.5661C129.304 36.2208 129.55 35.8093 129.7 35.3599C130.15 33.2899 128.75 31.0299 128.15 30.1999C125.33 31.6899 121.28 33.9799 120 34.7699V34.8099Z" fill="#231F20"/>
<path d="M122.72 37.6299C126.29 39.3599 129.72 37.4999 130.19 35.3799C129.617 34.9301 128.949 34.6178 128.236 34.467C127.524 34.3161 126.786 34.3308 126.08 34.5099C124.627 35.1209 123.437 36.2261 122.72 37.6299Z" fill="#231F20"/>
<path d="M125.6 38.8098C124.528 38.8064 123.47 38.5566 122.51 38.0798C122.449 38.0502 122.395 38.0086 122.35 37.9574C122.306 37.9062 122.273 37.8465 122.252 37.782C122.232 37.7175 122.224 37.6494 122.231 37.582C122.237 37.5146 122.257 37.4492 122.29 37.3898C123.071 35.8865 124.351 34.702 125.91 34.0398C127.21 33.5498 128.74 33.8598 130.46 34.9598C130.545 35.0163 130.61 35.0973 130.648 35.192C130.685 35.2867 130.693 35.3906 130.67 35.4898C130.496 36.095 130.189 36.6539 129.772 37.126C129.355 37.5982 128.839 37.9718 128.26 38.2198C127.429 38.6152 126.52 38.8169 125.6 38.8098ZM123.44 37.3998C124.136 37.6896 124.885 37.8321 125.638 37.8184C126.392 37.8046 127.135 37.6349 127.82 37.3198C128.602 36.9809 129.234 36.3698 129.6 35.5998C129.122 35.2546 128.575 35.019 127.995 34.9101C127.416 34.8012 126.82 34.8216 126.25 34.9698C125.08 35.4622 124.096 36.313 123.44 37.3998Z" fill="#231F20"/>
<path d="M171.52 91.8299C171.52 91.8299 190.67 58.5399 192 57.9099C193.33 57.2799 222.22 75.9099 222.22 75.9099L202.85 117.03C202.85 117.03 168 109.91 171.52 91.8299Z" fill="#231F20"/>
<path d="M202.85 117.57H202.75C196.858 116.237 191.131 114.262 185.67 111.68C174.67 106.27 169.57 99.3698 171.04 91.7498C171.051 91.6948 171.067 91.6411 171.09 91.5898C175.6 83.7498 190.42 58.1198 191.75 57.4598C193.08 56.7998 209.18 66.9298 222.49 75.5398C222.591 75.6056 222.664 75.7055 222.698 75.8212C222.731 75.937 222.721 76.0607 222.67 76.1698L203.3 117.28C203.261 117.367 203.198 117.44 203.118 117.492C203.038 117.543 202.945 117.57 202.85 117.57ZM172 92.0098C169 108.31 198.82 115.65 202.57 116.5L221.57 76.1298C211.01 69.3098 194.17 58.7698 192.14 58.3798C190.76 59.7698 179.41 79.1198 172 92.0098Z" fill="#231F20"/>
<path d="M206.44 92.16C206.44 92.16 249.52 74.04 255.44 79.35C261.36 84.66 267.81 163.79 269.44 164.53C276.49 167.72 288.8 172.6 289.26 172.62C291.57 172.71 302.44 173.5 298.33 178.07C294.97 181.81 290.24 180.55 285.77 180.79C279.84 181.11 278.54 181.31 272.61 181.47C267.203 181.61 261.797 181.713 256.39 181.78C254.853 181.796 253.354 181.31 252.118 180.397C250.882 179.484 249.977 178.193 249.54 176.72L235.07 110.63L216.38 119.82L206.44 92.16Z" fill="white"/>
<path d="M256.29 182.28C254.66 182.285 253.071 181.766 251.758 180.799C250.445 179.832 249.478 178.469 249 176.91L234.66 111.41L216.54 120.32C216.477 120.349 216.409 120.365 216.34 120.365C216.271 120.365 216.203 120.349 216.14 120.32C216.072 120.295 216.011 120.255 215.961 120.203C215.91 120.151 215.873 120.088 215.85 120.02L206 92.3299C205.959 92.2089 205.966 92.077 206.017 91.9604C206.069 91.8438 206.163 91.7508 206.28 91.6999C208.05 90.9499 249.72 73.5199 255.76 78.9699C259.4 82.2599 262.97 110.2 266.62 141.04C267.95 152.25 269.21 162.86 269.77 164.13C276.77 167.28 288.54 171.95 289.34 172.13C291.42 172.21 298.46 172.71 299.6 175.41C299.99 176.32 299.69 177.33 298.72 178.41C295.98 181.41 292.37 181.41 288.88 181.3C287.88 181.3 286.82 181.3 285.8 181.3C283.8 181.41 282.28 181.51 280.96 181.59C278.39 181.76 276.54 181.87 272.63 181.98C267.1 182.12 261.63 182.23 256.41 182.29L256.29 182.28ZM235.05 110.13C235.165 110.123 235.279 110.159 235.369 110.231C235.46 110.303 235.521 110.406 235.54 110.52L250 176.61C250.411 177.959 251.244 179.14 252.376 179.981C253.508 180.822 254.88 181.277 256.29 181.28H256.36C261.6 181.22 267.05 181.11 272.58 180.97C276.46 180.87 278.31 180.75 280.87 180.58C282.19 180.5 283.68 180.4 285.72 180.3C286.72 180.24 287.84 180.3 288.88 180.3C292.29 180.38 295.51 180.45 297.94 177.74C298.63 176.97 298.87 176.32 298.65 175.8C297.98 174.2 293.29 173.29 289.22 173.13C288.55 173.13 275.51 167.85 269.22 165C268.49 164.67 268.01 161.55 265.6 141.16C262.86 118.01 258.72 83.0299 255.06 79.7299C250.49 75.5999 219.3 87.3399 207.06 92.4399L216.63 119.14L234.81 110.19C234.882 110.146 234.966 110.125 235.05 110.13Z" fill="#231F20"/>
<path d="M135.53 126.1C135.53 126.1 154.02 148.62 174.31 148.62C194.6 148.62 225 120.14 225 120.14L209 85.52L171.57 91.83C171.57 91.83 139.57 117.91 135.53 126.1Z" fill="#231F20"/>
<path d="M174.31 149.11C163.69 149.11 153.6 142.93 147.01 137.75C142.697 134.364 138.725 130.566 135.15 126.41C135.087 126.338 135.048 126.249 135.038 126.154C135.027 126.06 135.045 125.964 135.09 125.88C139.09 117.72 169.9 92.5099 171.21 91.4499C171.274 91.3918 171.354 91.3536 171.44 91.3399L208.86 85.0299C208.968 85.0107 209.08 85.0277 209.177 85.0783C209.275 85.129 209.353 85.2103 209.4 85.3099L225.4 119.93C225.447 120.025 225.462 120.134 225.442 120.238C225.422 120.343 225.369 120.438 225.29 120.51C219.662 125.635 213.721 130.404 207.5 134.79C194 144.29 182.82 149.11 174.31 149.11ZM136.13 126.03C138.23 128.49 155.64 148.12 174.31 148.12C193.17 148.12 221.36 122.8 224.39 120.02L208.65 86.0799L171.74 92.2999C169.77 93.9099 140.53 117.99 136.13 126.03Z" fill="#231F20"/>
<path d="M166.83 101.14C166.764 101.152 166.697 101.151 166.632 101.136C166.567 101.122 166.505 101.095 166.45 101.057C166.395 101.019 166.349 100.971 166.312 100.914C166.276 100.858 166.252 100.796 166.24 100.73C166.228 100.664 166.229 100.597 166.244 100.532C166.258 100.467 166.285 100.405 166.323 100.35C166.361 100.295 166.409 100.249 166.466 100.212C166.522 100.176 166.584 100.152 166.65 100.14C185.03 92.6599 208.56 85.08 208.79 85.01C208.852 84.9882 208.918 84.9793 208.984 84.9838C209.05 84.9882 209.114 85.0059 209.173 85.0358C209.232 85.0657 209.284 85.1071 209.327 85.1577C209.369 85.2082 209.401 85.2668 209.42 85.33C209.458 85.456 209.446 85.5919 209.387 85.7093C209.327 85.8268 209.224 85.9166 209.1 85.96C208.86 86.03 185.37 93.5999 167.02 101.06C166.965 101.102 166.899 101.13 166.83 101.14Z" fill="white"/>
<path d="M296.36 57.9099C296.36 57.9099 275.47 72.7799 270.9 82.9099L296.36 57.9099Z" fill="white"/>
<path d="M270.9 83.36C270.831 83.3737 270.759 83.3737 270.69 83.36C270.57 83.3054 270.476 83.2053 270.429 83.0816C270.382 82.9579 270.386 82.8207 270.44 82.7C275.02 72.58 295.21 58.13 296.07 57.52C296.177 57.4446 296.308 57.4139 296.437 57.4345C296.566 57.455 296.682 57.5252 296.76 57.63C296.836 57.7382 296.867 57.8716 296.846 58.0022C296.826 58.1328 296.755 58.2503 296.65 58.33C296.44 58.48 275.82 73.23 271.36 83.11C271.313 83.1893 271.246 83.2545 271.165 83.2985C271.084 83.3425 270.992 83.3638 270.9 83.36Z" fill="#231F20"/>
<path d="M108.63 53.1699C108.551 53.1704 108.474 53.1516 108.404 53.1149C108.334 53.0783 108.274 53.0251 108.23 52.9599C99.67 41.1199 79.14 29.9599 78.93 29.8999C78.8226 29.8327 78.7448 29.7273 78.7121 29.6049C78.6795 29.4825 78.6945 29.3523 78.7542 29.2405C78.8139 29.1288 78.9138 29.0439 79.0336 29.0029C79.1535 28.962 79.2845 28.968 79.4 29.0199C79.61 29.1299 100.35 40.3499 109.04 52.3799C109.078 52.4329 109.105 52.4929 109.12 52.5565C109.134 52.62 109.136 52.6859 109.125 52.7502C109.114 52.8144 109.09 52.8758 109.055 52.9307C109.02 52.9856 108.974 53.033 108.92 53.0699C108.838 53.1355 108.735 53.1708 108.63 53.1699Z" fill="#231F20"/>
<path d="M141.83 20.3H141.74C141.61 20.2756 141.494 20.2014 141.417 20.0931C141.341 19.9848 141.31 19.851 141.33 19.72C141.822 16.4878 143.279 13.4797 145.51 11.09C145.557 11.04 145.613 11.0001 145.676 10.9728C145.739 10.9456 145.807 10.9316 145.876 10.9316C145.944 10.9317 146.012 10.9459 146.075 10.9733C146.138 11.0007 146.194 11.0407 146.241 11.0908C146.288 11.141 146.324 11.2002 146.346 11.2648C146.369 11.3295 146.379 11.3981 146.374 11.4665C146.369 11.5349 146.35 11.6015 146.319 11.6624C146.287 11.7232 146.243 11.7768 146.19 11.82C144.131 14.0764 142.785 16.8909 142.32 19.91C142.293 20.0202 142.231 20.1184 142.142 20.1891C142.053 20.2597 141.943 20.2987 141.83 20.3Z" fill="#231F20"/>
<path d="M46.2 141.21C71.4339 141.21 91.89 135.587 91.89 128.65C91.89 121.713 71.4339 116.09 46.2 116.09C20.9661 116.09 0.51001 121.713 0.51001 128.65C0.51001 135.587 20.9661 141.21 46.2 141.21Z" fill="white"/>
<path d="M46.2 141.71C20.3 141.71 0 135.97 0 128.65C0 121.33 20.3 115.58 46.2 115.58C72.1 115.58 92.39 121.32 92.39 128.65C92.39 135.98 72.1 141.71 46.2 141.71ZM46.2 116.58C21.71 116.58 1 122.11 1 128.65C1 135.19 21.71 140.71 46.2 140.71C70.69 140.71 91.39 135.18 91.39 128.65C91.39 122.12 70.7 116.58 46.2 116.58Z" fill="#231F20"/>
<path d="M63.75 188.6C63.3522 188.6 62.9706 188.442 62.6893 188.161C62.408 187.879 62.25 187.498 62.25 187.1C62.25 183.94 52.82 179.88 46.25 178.02C39.64 179.88 30.25 183.94 30.25 187.1C30.25 187.498 30.092 187.879 29.8107 188.161C29.5294 188.442 29.1478 188.6 28.75 188.6C28.3522 188.6 27.9706 188.442 27.6893 188.161C27.408 187.879 27.25 187.498 27.25 187.1C27.25 180.42 42.79 175.86 45.9 175.02C46.1587 174.95 46.4313 174.95 46.69 175.02C49.8 175.86 65.34 180.42 65.34 187.1C65.3404 187.305 65.2988 187.507 65.2178 187.695C65.1369 187.884 65.0183 188.053 64.8693 188.194C64.7204 188.334 64.5442 188.443 64.3517 188.513C64.1592 188.582 63.9544 188.612 63.75 188.6Z" fill="#231F20"/>
<path d="M20.24 98.86C24.0618 98.86 27.16 95.7618 27.16 91.94C27.16 88.1182 24.0618 85.02 20.24 85.02C16.4182 85.02 13.32 88.1182 13.32 91.94C13.32 95.7618 16.4182 98.86 20.24 98.86Z" fill="white"/>
<path d="M20.24 99.38C18.7698 99.38 17.3325 98.9444 16.1097 98.1282C14.8868 97.312 13.9332 96.1518 13.3692 94.7941C12.8053 93.4363 12.6562 91.9419 12.9408 90.4995C13.2255 89.0571 13.9311 87.7314 14.9686 86.6897C16.0061 85.648 17.329 84.9371 18.7702 84.6466C20.2115 84.3562 21.7064 84.4993 23.0664 85.0578C24.4264 85.6163 25.5905 86.5652 26.4116 87.7848C27.2327 89.0043 27.6741 90.4398 27.68 91.91C27.6826 92.8892 27.4922 93.8593 27.1196 94.7648C26.747 95.6704 26.1996 96.4936 25.5086 97.1873C24.8176 97.8811 23.9966 98.4319 23.0925 98.8081C22.1885 99.1844 21.2192 99.3787 20.24 99.38ZM20.24 85.53C18.9709 85.53 17.7304 85.9067 16.6757 86.6124C15.6209 87.3181 14.7994 88.321 14.3151 89.494C13.8308 90.667 13.7057 91.9574 13.9554 93.2016C14.2052 94.4458 14.8187 95.5879 15.7182 96.4832C16.6176 97.3784 17.7626 97.9865 19.008 98.2305C20.2533 98.4744 21.5431 98.3432 22.7139 97.8534C23.8846 97.3637 24.8836 96.5374 25.5843 95.4793C26.285 94.4213 26.6559 93.179 26.65 91.91C26.6421 90.2152 25.9632 88.5925 24.762 87.3968C23.5607 86.2012 21.9348 85.53 20.24 85.53Z" fill="#231F20"/>
<path d="M22.25 128.52H40.45L42.63 92.29H20.06L22.25 128.52Z" fill="white"/>
<path d="M40.45 129.04H22.25C22.1171 129.04 21.9892 128.989 21.8925 128.898C21.7958 128.807 21.7377 128.683 21.73 128.55L19.55 92.3199C19.5445 92.2496 19.5536 92.179 19.5767 92.1124C19.5999 92.0458 19.6365 91.9848 19.6845 91.9331C19.7324 91.8814 19.7905 91.8402 19.8551 91.8121C19.9198 91.784 19.9895 91.7697 20.06 91.7699H42.63C42.6979 91.7674 42.7656 91.7785 42.8291 91.8025C42.8927 91.8266 42.9508 91.8631 43 91.9099C43.0488 91.9618 43.0864 92.0232 43.1105 92.0903C43.1346 92.1574 43.1446 92.2287 43.14 92.2999L41 128.55C40.9975 128.619 40.9811 128.686 40.9519 128.748C40.9226 128.811 40.881 128.866 40.8296 128.912C40.7782 128.958 40.7181 128.993 40.6528 129.015C40.5876 129.037 40.5186 129.045 40.45 129.04ZM22.73 128.04H40L42.12 92.8299H20.61L22.73 128.04Z" fill="#231F20"/>
<path d="M24.89 125.69H37.8L38.89 106.62H23.81L24.89 125.69Z" fill="#FFC579"/>
<path d="M34.92 124.76C34.801 124.756 34.6864 124.714 34.5929 124.64C34.4994 124.566 34.4318 124.465 34.4 124.35C34.23 123.64 36.4 93.7399 37.4 80.9099C37.4107 80.7789 37.4716 80.6571 37.57 80.5699L46.63 72.3799C46.6806 72.334 46.7397 72.2984 46.804 72.2753C46.8683 72.2522 46.9365 72.242 47.0047 72.2452C47.073 72.2485 47.1399 72.2651 47.2018 72.2943C47.2636 72.3234 47.319 72.3644 47.365 72.4149C47.411 72.4655 47.4465 72.5246 47.4696 72.5889C47.4928 72.6532 47.503 72.7214 47.4997 72.7897C47.4965 72.8579 47.4798 72.9249 47.4507 72.9867C47.4216 73.0485 47.3806 73.104 47.33 73.1499L38.42 81.15C37.55 92.9 35.36 122.94 35.42 124.15C35.4362 124.214 35.4391 124.281 35.4286 124.347C35.418 124.413 35.3943 124.475 35.3587 124.531C35.3232 124.588 35.2766 124.636 35.2218 124.673C35.167 124.711 35.1052 124.737 35.04 124.75L34.92 124.76Z" fill="#231F20"/>
<path d="M42.63 131.02L41.98 136.07L71.95 137.06L82.32 120.95L82.07 114.7L42.63 131.02Z" fill="white"/>
<path d="M72 137.56L42 136.56C41.9292 136.557 41.8597 136.54 41.796 136.509C41.7323 136.478 41.6758 136.434 41.63 136.38C41.5851 136.328 41.5521 136.268 41.5331 136.202C41.5141 136.136 41.5096 136.067 41.52 136L42.16 131C42.1724 130.912 42.2075 130.829 42.2619 130.759C42.3162 130.689 42.388 130.634 42.47 130.6L81.91 114.28C81.9811 114.243 82.0599 114.224 82.14 114.224C82.22 114.224 82.2989 114.243 82.37 114.28C82.4371 114.324 82.4929 114.383 82.5328 114.452C82.5728 114.522 82.5958 114.6 82.6 114.68L82.85 120.93C82.8591 121.033 82.8307 121.136 82.77 121.22L72.4 137.33C72.3555 137.396 72.2963 137.452 72.2269 137.492C72.1575 137.532 72.0799 137.555 72 137.56ZM42.6 135.56L71.73 136.56L81.87 120.82L81.65 115.45L43.09 131.37L42.6 135.56Z" fill="#231F20"/>
<path d="M54.87 113.37L42.63 131.02L71.33 131.87L82.07 114.7L54.87 113.37Z" fill="white"/>
<path d="M71.33 132.37L42.63 131.52C42.5412 131.515 42.4551 131.488 42.3798 131.441C42.3045 131.394 42.2426 131.328 42.2 131.25C42.1532 131.173 42.1284 131.085 42.1284 130.995C42.1284 130.905 42.1532 130.817 42.2 130.74L54.44 113.09C54.4879 113.021 54.5523 112.964 54.6273 112.926C54.7023 112.887 54.7857 112.868 54.87 112.87L82.07 114.2C82.158 114.204 82.2434 114.23 82.3177 114.278C82.392 114.325 82.4525 114.391 82.4931 114.469C82.5337 114.547 82.553 114.635 82.5489 114.723C82.5448 114.811 82.5176 114.896 82.47 114.97L71.73 132.13C71.6885 132.2 71.6302 132.259 71.5604 132.301C71.4906 132.343 71.4114 132.366 71.33 132.37ZM43.57 130.55L71.06 131.36L81.19 115.16L55.12 113.91L43.57 130.55Z" fill="#231F20"/>
<path d="M72 137.56C71.8778 137.559 71.76 137.514 71.6683 137.433C71.5765 137.352 71.5168 137.241 71.5 137.12L70.88 131.93C70.8658 131.798 70.9039 131.665 70.9861 131.56C71.0683 131.456 71.1881 131.387 71.32 131.37C71.4518 131.358 71.5831 131.397 71.6871 131.479C71.7912 131.561 71.8601 131.679 71.88 131.81L72.49 137C72.4984 137.066 72.4936 137.132 72.4759 137.196C72.4583 137.26 72.4281 137.32 72.3872 137.372C72.3462 137.424 72.2953 137.468 72.2374 137.5C72.1796 137.532 72.1158 137.553 72.05 137.56H72Z" fill="#231F20"/>
<path d="M72.4 122.03L54.47 121.26C54.3802 121.254 54.2934 121.226 54.2181 121.177C54.1427 121.128 54.0813 121.06 54.04 120.98C53.9961 120.904 53.973 120.818 53.973 120.73C53.973 120.642 53.9961 120.556 54.04 120.48L57.04 116.12C57.0884 116.052 57.1531 115.997 57.2283 115.96C57.3034 115.923 57.3865 115.906 57.47 115.91L75.25 116.78C75.3386 116.785 75.4241 116.814 75.4979 116.863C75.5717 116.912 75.6311 116.98 75.67 117.06C75.7139 117.136 75.737 117.222 75.737 117.31C75.737 117.398 75.7139 117.484 75.67 117.56L72.82 121.81C72.7743 121.879 72.7118 121.936 72.6384 121.974C72.5649 122.013 72.4829 122.032 72.4 122.03ZM55.4 120.3L72.15 121.02L74.36 117.73L57.72 116.91L55.4 120.3Z" fill="#D1D3D4"/>
</svg>
