<svg width="524" height="329" viewBox="0 0 524 329" fill="none" xmlns="http://www.w3.org/2000/svg">
<path d="M497.547 0H26.4524C12.5475 0 1.27526 11.2675 1.27526 25.1667V125.833C1.27526 139.732 12.5475 151 26.4524 151H497.547C511.452 151 522.724 139.732 522.724 125.833V25.1667C522.724 11.2675 511.452 0 497.547 0Z" fill="#FFC579"/>
<path d="M39.6297 85.8042H30.5064C28.271 85.8042 26.4524 87.622 26.4524 89.8571V113.544C26.4524 115.778 28.271 117.596 30.5064 117.596H39.6297C41.8657 117.596 43.6843 115.778 43.6843 113.544V89.8571C43.6843 87.622 41.8657 85.8042 39.6297 85.8042ZM41.0391 113.544C41.0391 114.32 40.4067 114.952 39.6297 114.952H30.5064C29.73 114.952 29.0977 114.32 29.0977 113.544V89.8571C29.0977 89.0804 29.73 88.4483 30.5064 88.4483H39.6297C40.4067 88.4483 41.0391 89.0804 41.0391 89.8571V113.544Z" fill="black"/>
<path d="M63.9831 67.2389H54.8598C52.6244 67.2389 50.8058 69.0567 50.8058 71.291V78.8083C50.8058 79.5382 51.3976 80.1304 52.1284 80.1304C52.8587 80.1304 53.4511 79.5382 53.4511 78.8083V71.291C53.4511 70.5151 54.0828 69.883 54.8598 69.883H63.9831C64.7601 69.883 65.3917 70.5151 65.3917 71.291V113.544C65.3917 114.32 64.7601 114.952 63.9831 114.952H54.8598C54.0828 114.952 53.4511 114.32 53.4511 113.544V84.0965C53.4511 83.3666 52.8587 82.7744 52.1284 82.7744C51.3976 82.7744 50.8058 83.3666 50.8058 84.0965V113.544C50.8058 115.778 52.6244 117.596 54.8598 117.596H63.9831C66.2185 117.596 68.0371 115.778 68.0371 113.544V71.2918C68.0371 69.0567 66.2185 67.2389 63.9831 67.2389Z" fill="black"/>
<path d="M88.3355 78.3785H79.2123C76.9769 78.3785 75.1583 80.1964 75.1583 82.4308V113.544C75.1583 115.778 76.9769 117.596 79.2123 117.596H88.3355C90.5716 117.596 92.3902 115.778 92.3902 113.544V82.4308C92.3902 80.1964 90.5716 78.3785 88.3355 78.3785ZM89.745 113.544C89.745 114.32 89.1126 114.952 88.3355 114.952H79.2123C78.4352 114.952 77.8035 114.32 77.8035 113.544V82.4308C77.8035 81.6541 78.4352 81.0226 79.2123 81.0226H88.3355C89.1126 81.0226 89.745 81.6541 89.745 82.4308V113.544Z" fill="black"/>
<path d="M112.689 57.9562H103.566C101.33 57.9562 99.5109 59.774 99.5109 62.0085V99.7849C99.5109 100.515 100.103 101.107 100.833 101.107C101.564 101.107 102.156 100.515 102.156 99.7849V62.0085C102.156 61.2318 102.789 60.6003 103.566 60.6003H112.689C113.465 60.6003 114.098 61.2318 114.098 62.0085V113.544C114.098 114.32 113.465 114.952 112.689 114.952H103.566C102.789 114.952 102.156 114.32 102.156 113.544V105.073C102.156 104.343 101.564 103.751 100.833 103.751C100.103 103.751 99.5109 104.343 99.5109 105.073V113.544C99.5109 115.778 101.33 117.596 103.566 117.596H112.689C114.924 117.596 116.743 115.778 116.743 113.544V62.0085C116.743 59.774 114.924 57.9562 112.689 57.9562Z" fill="black"/>
<path d="M35.068 61.2517C30.5243 61.2517 26.8272 64.9473 26.8272 69.4891C26.8272 74.0317 30.5243 77.7272 35.068 77.7272C39.6125 77.7272 43.3096 74.0317 43.3096 69.4891C43.3096 69.1282 43.2833 68.7743 43.2387 68.4259L56.2326 58.5194C57.2136 58.9326 58.2916 59.1619 59.4213 59.1619C61.2027 59.1619 62.8526 58.5918 64.202 57.6277L75.5696 62.8271C75.9567 67.0124 79.4878 70.3009 83.7739 70.3009C88.3184 70.3009 92.0155 66.6053 92.0155 62.0635C92.0155 61.5712 91.9694 61.0899 91.8866 60.6216L105.294 49.3773C106.178 49.7023 107.133 49.8792 108.127 49.8792C112.671 49.8792 116.368 46.1836 116.368 41.6411C116.368 37.0993 112.671 33.4037 108.127 33.4037C103.583 33.4037 99.8857 37.0993 99.8857 41.6411C99.8857 42.1334 99.9318 42.6147 100.014 43.0829L86.6065 54.3274C85.7234 54.0031 84.7687 53.8255 83.7739 53.8255C81.9926 53.8255 80.3427 54.3955 78.9932 55.3602L67.6257 50.1601C67.2385 45.9751 63.7082 42.6864 59.4213 42.6864C54.877 42.6864 51.1805 46.382 51.1805 50.9238C51.1805 51.2846 51.206 51.6391 51.2514 51.9875L38.2567 61.8935C37.2751 61.4803 36.1985 61.2517 35.068 61.2517ZM108.127 36.0478C111.213 36.0478 113.723 38.557 113.723 41.6411C113.723 44.7252 111.213 47.2351 108.127 47.2351C105.088 47.2351 102.531 44.6791 102.531 41.6411C102.531 38.557 105.041 36.0478 108.127 36.0478ZM100.974 45.7298C100.996 45.7684 101.02 45.8057 101.043 45.8434C101.521 46.6484 102.136 47.3713 102.855 47.9711L90.9271 57.9741C90.905 57.9355 90.5434 57.3613 90.3664 57.125C89.982 56.6127 89.539 56.1446 89.0459 55.7328L100.974 45.7298ZM78.1791 61.9809C78.2245 58.9828 80.7574 56.4696 83.7739 56.4696C86.7815 56.4696 89.3695 59.04 89.3695 62.0635C89.3695 65.1477 86.8594 67.6568 83.7739 67.6568C80.6886 67.6568 78.1783 65.1477 78.1783 62.0635C78.1783 62.036 78.1783 62.0084 78.1791 61.9809ZM66.2169 55.5771C66.7584 54.7826 67.1669 53.8991 67.4053 52.9675L77.0107 57.3606C76.5216 58.065 76.1392 58.8472 75.8892 59.6679C75.8535 59.7843 75.8203 59.9014 75.7901 60.0192L66.1845 55.626C66.1955 55.6101 66.2059 55.5936 66.2169 55.5771ZM59.4213 45.3305C62.5067 45.3305 65.0169 47.8396 65.0169 50.9238C65.0169 53.937 62.4309 56.5177 59.4213 56.5177C56.4103 56.5177 53.825 53.9507 53.825 50.9238C53.825 47.8396 56.3352 45.3305 59.4213 45.3305ZM52.0856 54.6764C52.1015 54.7068 52.1194 54.7372 52.1353 54.7674C52.5775 55.6034 53.1637 56.3636 53.8615 57.0018L42.4037 65.737C42.1916 65.3238 41.9422 64.9273 41.6638 64.5561C41.3552 64.1445 41.0095 63.7602 40.6278 63.411L52.0856 54.6764ZM38.4027 65.0457C39.7606 66.0785 40.6643 67.7051 40.6643 69.4891C40.6643 72.5739 38.1541 75.083 35.068 75.083C31.9826 75.083 29.4724 72.5739 29.4724 69.4891C29.4724 66.4049 31.9826 63.8958 35.068 63.8958C36.2984 63.8958 37.4605 64.3275 38.4027 65.0457Z" fill="black"/>
<path d="M321.064 48.7604L327.604 31.0283H325.281L320.007 46.0693H319.933L314.66 31.0283H312.335L318.875 48.7604H321.064ZM332.406 48.9815C335.934 48.9815 338.32 46.4378 338.32 42.3704C338.32 38.2907 335.934 35.7593 332.406 35.7593C328.866 35.7593 326.48 38.2907 326.48 42.3704C326.48 46.4378 328.866 48.9815 332.406 48.9815ZM332.406 47.1014C330.144 47.1014 328.657 45.3811 328.657 42.3704C328.657 39.3597 330.144 37.6394 332.406 37.6394C334.668 37.6394 336.144 39.3597 336.144 42.3704C336.144 45.3811 334.668 47.1014 332.406 47.1014ZM350.633 40.1708C350.362 37.8728 348.457 35.7593 345.261 35.7593C341.731 35.7593 339.384 38.3398 339.384 42.3704C339.384 46.487 341.744 48.9815 345.285 48.9815C348.186 48.9815 350.325 47.1875 350.657 44.6437H348.554C348.186 46.1799 347.042 47.1014 345.297 47.1014C343.085 47.1014 341.56 45.3442 341.56 42.3704C341.56 39.4704 343.06 37.6394 345.272 37.6394C347.154 37.6394 348.235 38.7821 348.542 40.1708H350.633ZM357.278 37.6148C359.294 37.6148 360.635 39.1385 360.684 41.2768H353.738C353.873 39.1508 355.275 37.6148 357.278 37.6148ZM360.635 45.0985C360.278 46.3027 359.085 47.126 357.462 47.126C355.163 47.126 353.725 45.5162 353.725 43.0708V42.948H362.896V42.137C362.896 38.266 360.77 35.7593 357.315 35.7593C353.787 35.7593 351.525 38.4504 351.525 42.4196C351.525 46.4378 353.75 48.9815 357.414 48.9815C360.204 48.9815 362.367 47.335 362.737 45.0985H360.635ZM358.139 30.4507H356.492L353.148 34.1371H355.151L357.278 31.7778H357.352L359.478 34.1371H361.483L358.139 30.4507ZM374.405 37.6148C376.422 37.6148 377.762 39.1385 377.81 41.2768H370.865C371 39.1508 372.402 37.6148 374.405 37.6148ZM377.762 45.0985C377.406 46.3027 376.213 47.126 374.591 47.126C372.292 47.126 370.854 45.5162 370.854 43.0708V42.948H380.024V42.137C380.024 38.266 377.897 35.7593 374.443 35.7593C370.915 35.7593 368.652 38.4504 368.652 42.4196C368.652 46.4378 370.877 48.9815 374.54 48.9815C377.332 48.9815 379.496 47.335 379.864 45.0985H377.762ZM381.494 39.5072C381.494 41.2522 382.6 42.4072 384.85 42.9848L387.101 43.5624C388.539 43.9433 389.068 44.4349 389.068 45.3442C389.068 46.4993 387.998 47.2365 386.264 47.2365C384.531 47.2365 383.522 46.5238 383.289 45.1968H381.149C381.371 47.4578 383.326 48.9815 386.128 48.9815C389.116 48.9815 391.219 47.4086 391.219 45.1845C391.219 43.3042 390.284 42.3704 387.702 41.7191L385.724 41.2399C384.273 40.8713 383.596 40.2814 383.596 39.3966C383.596 38.2783 384.629 37.5043 386.19 37.5043C387.763 37.5043 388.759 38.266 388.907 39.495H390.948C390.849 37.3322 388.907 35.7593 386.264 35.7593C383.448 35.7593 381.494 37.3199 381.494 39.5072ZM393.659 32.8961V35.9804H391.754V37.7377H393.659V45.4425C393.659 47.9002 394.569 48.8587 396.918 48.8587C397.422 48.8587 398.012 48.8219 398.27 48.7604V46.9663C398.122 46.9908 397.631 47.0277 397.386 47.0277C396.29 47.0277 395.799 46.4993 395.799 45.3319V37.7377H398.282V35.9804H395.799V32.8961H393.659ZM404.067 47.1629C402.531 47.1629 401.51 46.3642 401.51 45.1475C401.51 43.9433 402.493 43.1814 404.215 43.0708L407.633 42.8619V43.9065C407.633 45.7497 406.084 47.1629 404.067 47.1629ZM403.589 48.9815C405.308 48.9815 406.932 48.023 407.694 46.5608H407.743V48.7604H409.771V39.925C409.771 37.3813 407.878 35.7593 404.879 35.7593C401.855 35.7593 399.961 37.455 399.814 39.667H401.88C402.15 38.4136 403.183 37.6394 404.83 37.6394C406.6 37.6394 407.633 38.5732 407.633 40.1339V41.203L403.969 41.4119C401.019 41.5839 399.335 42.9602 399.335 45.1475C399.335 47.4456 401.044 48.9815 403.589 48.9815ZM405.702 34.1371L408.726 30.4507H406.416L403.834 34.1371H405.702ZM422.917 35.7593C421.06 35.7593 419.573 36.7054 418.786 38.1432H418.736V35.9804H416.707V53.0244H418.848V46.6837H418.896C419.658 48.0845 421.134 48.9815 422.966 48.9815C426.187 48.9815 428.387 46.3765 428.387 42.3704C428.387 38.3643 426.174 35.7593 422.917 35.7593ZM422.498 47.1014C420.309 47.1014 418.835 45.2213 418.835 42.3704C418.835 39.5318 420.309 37.6394 422.498 37.6394C424.772 37.6394 426.198 39.4827 426.198 42.3704C426.198 45.2704 424.772 47.1014 422.498 47.1014ZM430.078 48.7604H432.217V40.7975C432.217 38.9912 433.299 37.799 434.959 37.799C435.475 37.799 435.93 37.8605 436.102 37.922V35.8453C435.93 35.8206 435.611 35.7593 435.241 35.7593C433.741 35.7593 432.561 36.6563 432.144 38.0694H432.094V35.9804H430.078V48.7604ZM441.346 47.1629C439.809 47.1629 438.789 46.3642 438.789 45.1475C438.789 43.9433 439.773 43.1814 441.494 43.0708L444.912 42.8619V43.9065C444.912 45.7497 443.362 47.1629 441.346 47.1629ZM440.867 48.9815C442.588 48.9815 444.21 48.023 444.974 46.5608H445.022V48.7604H447.051V39.925C447.051 37.3813 445.158 35.7593 442.158 35.7593C439.134 35.7593 437.241 37.455 437.093 39.667H439.158C439.428 38.4136 440.462 37.6394 442.108 37.6394C443.878 37.6394 444.912 38.5732 444.912 40.1339V41.203L441.249 41.4119C438.298 41.5839 436.613 42.9602 436.613 45.1475C436.613 47.4456 438.322 48.9815 440.867 48.9815ZM449.984 32.8961V35.9804H448.078V37.7377H449.984V45.4425C449.984 47.9002 450.893 48.8587 453.241 48.8587C453.746 48.8587 454.336 48.8219 454.594 48.7604V46.9663C454.446 46.9908 453.955 47.0277 453.708 47.0277C452.615 47.0277 452.122 46.4993 452.122 45.3319V37.7377H454.607V35.9804H452.122V32.8961H449.984ZM456.531 48.7604H458.67V35.9804H456.531V48.7604ZM457.601 33.8299C458.338 33.8299 458.941 33.2278 458.941 32.5029C458.941 31.7655 458.338 31.1756 457.601 31.1756C456.876 31.1756 456.273 31.7655 456.273 32.5029C456.273 33.2278 456.876 33.8299 457.601 33.8299ZM471.709 40.1708C471.438 37.8728 469.534 35.7593 466.336 35.7593C462.808 35.7593 460.461 38.3398 460.461 42.3704C460.461 46.487 462.821 48.9815 466.362 48.9815C469.263 48.9815 471.402 47.1875 471.734 44.6437H469.631C469.263 46.1799 468.119 47.1014 466.374 47.1014C464.16 47.1014 462.637 45.3442 462.637 42.3704C462.637 39.4704 464.137 37.6394 466.349 37.6394C468.229 37.6394 469.312 38.7821 469.619 40.1708H471.709ZM478.527 48.9815C482.055 48.9815 484.44 46.4378 484.44 42.3704C484.44 38.2907 482.055 35.7593 478.527 35.7593C474.986 35.7593 472.602 38.2907 472.602 42.3704C472.602 46.4378 474.986 48.9815 478.527 48.9815ZM478.527 47.1014C476.266 47.1014 474.777 45.3811 474.777 42.3704C474.777 39.3597 476.266 37.6394 478.527 37.6394C480.79 37.6394 482.264 39.3597 482.264 42.3704C482.264 45.3811 480.79 47.1014 478.527 47.1014ZM496.631 35.9804H494.491V43.4886C494.491 45.6636 493.238 47.0892 491.16 47.0892C489.18 47.0892 488.209 45.971 488.209 43.8941V35.9804H486.071V44.275C486.071 47.1752 487.706 48.9815 490.495 48.9815C492.462 48.9815 493.791 48.1583 494.554 46.6837H494.602V48.7604H496.631V35.9804ZM413.708 96.169C415.552 96.169 417.016 95.2597 417.839 93.7851H417.875V95.9479H419.916V78.2158H417.777V85.2447H417.729C416.966 83.8438 415.491 82.9468 413.659 82.9468C410.438 82.9468 408.237 85.5519 408.237 89.5579C408.237 93.564 410.451 96.169 413.708 96.169ZM414.114 84.8269C416.314 84.8269 417.79 86.707 417.79 89.5579C417.79 92.4211 416.314 94.2889 414.114 94.2889C411.851 94.2889 410.426 92.4579 410.426 89.5579C410.426 86.6702 411.851 84.8269 414.114 84.8269ZM427.631 96.169C431.161 96.169 433.545 93.6253 433.545 89.5579C433.545 85.4782 431.161 82.9468 427.631 82.9468C424.091 82.9468 421.707 85.4782 421.707 89.5579C421.707 93.6253 424.091 96.169 427.631 96.169ZM427.631 94.2889C425.37 94.2889 423.883 92.5686 423.883 89.5579C423.883 86.5472 425.37 84.8269 427.631 84.8269C429.894 84.8269 431.368 86.5472 431.368 89.5579C431.368 92.5686 429.894 94.2889 427.631 94.2889ZM435.016 86.6947C435.016 88.4397 436.122 89.5947 438.371 90.1723L440.621 90.7499C442.059 91.1308 442.588 91.6224 442.588 92.5317C442.588 93.6868 441.518 94.424 439.785 94.424C438.051 94.424 437.044 93.7114 436.81 92.3843H434.671C434.892 94.6454 436.848 96.169 439.65 96.169C442.637 96.169 444.739 94.5961 444.739 92.372C444.739 90.4918 443.806 89.5579 441.224 88.9066L439.244 88.4275C437.793 88.0588 437.118 87.4689 437.118 86.5842C437.118 85.4658 438.151 84.6918 439.712 84.6918C441.285 84.6918 442.281 85.4535 442.429 86.6825H444.468C444.371 84.5197 442.429 82.9468 439.785 82.9468C436.97 82.9468 435.016 84.5074 435.016 86.6947ZM450.963 86.6947C450.963 88.4397 452.069 89.5947 454.319 90.1723L456.568 90.7499C458.007 91.1308 458.535 91.6224 458.535 92.5317C458.535 93.6868 457.466 94.424 455.732 94.424C454 94.424 452.991 93.7114 452.758 92.3843H450.618C450.84 94.6454 452.794 96.169 455.597 96.169C458.585 96.169 460.687 94.5961 460.687 92.372C460.687 90.4918 459.753 89.5579 457.17 88.9066L455.191 88.4275C453.742 88.0588 453.065 87.4689 453.065 86.5842C453.065 85.4658 454.097 84.6918 455.658 84.6918C457.232 84.6918 458.228 85.4535 458.376 86.6825H460.417C460.317 84.5197 458.376 82.9468 455.732 82.9468C452.917 82.9468 450.963 84.5074 450.963 86.6947ZM467.567 84.8024C469.583 84.8024 470.922 86.326 470.972 88.4643H464.026C464.16 86.3383 465.562 84.8024 467.567 84.8024ZM470.922 92.286C470.566 93.4902 469.373 94.3135 467.751 94.3135C465.452 94.3135 464.014 92.7037 464.014 90.2583V90.1355H473.185V89.3245C473.185 85.4535 471.057 82.9468 467.603 82.9468C464.075 82.9468 461.812 85.6379 461.812 89.6071C461.812 93.6253 464.037 96.169 467.701 96.169C470.492 96.169 472.656 94.5225 473.024 92.286H470.922ZM485.375 83.1679H483.235V90.6761C483.235 92.8511 481.981 94.2767 479.904 94.2767C477.924 94.2767 476.953 93.1585 476.953 91.0816V83.1679H474.815V91.4626C474.815 94.3627 476.45 96.169 479.24 96.169C481.207 96.169 482.535 95.3458 483.296 93.8712H483.347V95.9479H485.375V83.1679ZM487.46 86.6947C487.46 88.4397 488.566 89.5947 490.815 90.1723L493.065 90.7499C494.503 91.1308 495.032 91.6224 495.032 92.5317C495.032 93.6868 493.962 94.424 492.23 94.424C490.495 94.424 489.488 93.7114 489.254 92.3843H487.115C487.337 94.6454 489.292 96.169 492.094 96.169C495.081 96.169 497.183 94.5961 497.183 92.372C497.183 90.4918 496.25 89.5579 493.668 88.9066L491.688 88.4275C490.237 88.0588 489.562 87.4689 489.562 86.5842C489.562 85.4658 490.595 84.6918 492.156 84.6918C493.729 84.6918 494.725 85.4535 494.873 86.6825H496.913C496.815 84.5197 494.873 82.9468 492.23 82.9468C489.414 82.9468 487.46 84.5074 487.46 86.6947ZM321.072 125.833H323.21V118.386C323.21 116.175 324.526 114.725 326.653 114.725C328.657 114.725 329.676 115.941 329.676 117.969V125.833H331.816V117.575C331.816 114.725 330.12 112.832 327.316 112.832C325.374 112.832 323.972 113.668 323.259 115.093H323.21V108.101H321.072V125.833ZM338.277 124.236C336.74 124.236 335.72 123.437 335.72 122.22C335.72 121.016 336.704 120.254 338.425 120.144L341.843 119.935V120.979C341.843 122.823 340.293 124.236 338.277 124.236ZM337.797 126.054C339.519 126.054 341.141 125.096 341.905 123.634H341.953V125.833H343.982V116.998C343.982 114.454 342.089 112.832 339.089 112.832C336.065 112.832 334.172 114.528 334.024 116.74H336.089C336.359 115.487 337.393 114.712 339.039 114.712C340.809 114.712 341.843 115.646 341.843 117.207V118.276L338.18 118.485C335.229 118.657 333.544 120.033 333.544 122.22C333.544 124.519 335.253 126.054 337.797 126.054ZM339.912 111.21L342.937 107.524H340.625L338.045 111.21H339.912ZM352.583 126.054C355.853 126.054 358.016 123.462 358.016 119.443C358.016 115.437 355.84 112.832 352.619 112.832C350.812 112.832 349.324 113.729 348.526 115.192H348.476V108.101H346.337V125.833H348.378V123.671H348.427C349.25 125.145 350.713 126.054 352.583 126.054ZM352.164 114.712C354.427 114.712 355.827 116.543 355.827 119.443C355.827 122.368 354.427 124.174 352.164 124.174C350.001 124.174 348.463 122.294 348.463 119.443C348.463 116.605 350.001 114.712 352.164 114.712ZM359.831 125.833H361.969V113.053H359.831V125.833ZM360.901 110.903C361.637 110.903 362.24 110.301 362.24 109.576C362.24 108.838 361.637 108.249 360.901 108.249C360.175 108.249 359.573 108.838 359.573 109.576C359.573 110.301 360.175 110.903 360.901 110.903ZM365.075 109.969V113.053H363.17V114.811H365.075V122.515C365.075 124.973 365.985 125.932 368.333 125.932C368.836 125.932 369.426 125.895 369.684 125.833V124.039C369.538 124.064 369.045 124.101 368.8 124.101C367.706 124.101 367.214 123.572 367.214 122.405V114.811H369.697V113.053H367.214V109.969H365.075ZM376.441 126.054C379.969 126.054 382.355 123.511 382.355 119.443C382.355 115.364 379.969 112.832 376.441 112.832C372.901 112.832 370.517 115.364 370.517 119.443C370.517 123.511 372.901 126.054 376.441 126.054ZM376.441 124.174C374.18 124.174 372.691 122.454 372.691 119.443C372.691 116.433 374.18 114.712 376.441 114.712C378.704 114.712 380.179 116.433 380.179 119.443C380.179 122.454 378.704 124.174 376.441 124.174ZM383.825 116.58C383.825 118.325 384.931 119.48 387.181 120.058L389.431 120.635C390.869 121.016 391.398 121.508 391.398 122.417C391.398 123.572 390.328 124.309 388.596 124.309C386.861 124.309 385.853 123.597 385.62 122.27H383.481C383.702 124.531 385.656 126.054 388.46 126.054C391.447 126.054 393.549 124.482 393.549 122.257C393.549 120.377 392.614 119.443 390.034 118.792L388.054 118.313C386.603 117.944 385.927 117.354 385.927 116.47C385.927 115.351 386.961 114.577 388.522 114.577C390.095 114.577 391.091 115.339 391.238 116.568H393.279C393.181 114.405 391.238 112.832 388.596 112.832C385.78 112.832 383.825 114.393 383.825 116.58ZM406.202 112.832C404.345 112.832 402.858 113.778 402.072 115.216H402.021V113.053H399.993V130.097H402.133V123.757H402.182C402.943 125.157 404.419 126.054 406.251 126.054C409.472 126.054 411.672 123.449 411.672 119.443C411.672 115.437 409.46 112.832 406.202 112.832ZM405.784 124.174C403.595 124.174 402.12 122.294 402.12 119.443C402.12 116.605 403.595 114.712 405.784 114.712C408.058 114.712 409.485 116.556 409.485 119.443C409.485 122.343 408.058 124.174 405.784 124.174ZM417.581 124.236C416.043 124.236 415.024 123.437 415.024 122.22C415.024 121.016 416.007 120.254 417.729 120.144L421.146 119.935V120.979C421.146 122.823 419.597 124.236 417.581 124.236ZM417.101 126.054C418.822 126.054 420.445 125.096 421.208 123.634H421.257V125.833H423.285V116.998C423.285 114.454 421.392 112.832 418.393 112.832C415.368 112.832 413.475 114.528 413.327 116.74H415.392C415.663 115.487 416.695 114.712 418.342 114.712C420.113 114.712 421.146 115.646 421.146 117.207V118.276L417.482 118.485C414.531 118.657 412.847 120.033 412.847 122.22C412.847 124.519 414.556 126.054 417.101 126.054ZM425.529 125.833H427.669V117.87C427.669 116.064 428.75 114.872 430.41 114.872C430.926 114.872 431.381 114.933 431.554 114.995V112.918C431.381 112.894 431.062 112.832 430.693 112.832C429.194 112.832 428.014 113.729 427.595 115.142H427.546V113.053H425.529V125.833ZM436.797 124.236C435.261 124.236 434.24 123.437 434.24 122.22C434.24 121.016 435.224 120.254 436.945 120.144L440.363 119.935V120.979C440.363 122.823 438.815 124.236 436.797 124.236ZM436.319 126.054C438.039 126.054 439.663 125.096 440.424 123.634H440.473V125.833H442.501V116.998C442.501 114.454 440.608 112.832 437.609 112.832C434.585 112.832 432.692 114.528 432.544 116.74H434.61C434.881 115.487 435.913 114.712 437.56 114.712C439.331 114.712 440.363 115.646 440.363 117.207V118.276L436.7 118.485C433.749 118.657 432.066 120.033 432.066 122.22C432.066 124.519 433.774 126.054 436.319 126.054ZM449.55 125.833H451.688V118.386C451.688 116.175 453.004 114.725 455.129 114.725C457.134 114.725 458.154 115.941 458.154 117.969V125.833H460.294V117.575C460.294 114.725 458.598 112.832 455.793 112.832C453.852 112.832 452.45 113.668 451.737 115.093H451.688V108.101H449.55V125.833ZM467.836 126.054C471.366 126.054 473.75 123.511 473.75 119.443C473.75 115.364 471.366 112.832 467.836 112.832C464.295 112.832 461.912 115.364 461.912 119.443C461.912 123.511 464.295 126.054 467.836 126.054ZM467.836 124.174C465.575 124.174 464.088 122.454 464.088 119.443C464.088 116.433 465.575 114.712 467.836 114.712C470.099 114.712 471.573 116.433 471.573 119.443C471.573 122.454 470.099 124.174 467.836 124.174ZM477.691 113.053H475.553V126.485C475.553 127.91 475.048 128.438 473.658 128.438C473.647 128.438 473.351 128.438 473.326 128.438V130.22C473.351 130.233 473.696 130.233 473.732 130.233C476.462 130.233 477.691 129.053 477.691 126.46V113.053ZM476.621 110.903C477.359 110.903 477.962 110.301 477.962 109.576C477.962 108.838 477.359 108.249 476.621 108.249C475.896 108.249 475.293 108.838 475.293 109.576C475.293 110.301 475.896 110.903 476.621 110.903ZM485.235 114.688C487.251 114.688 488.59 116.211 488.64 118.35H481.694C481.83 116.224 483.23 114.688 485.235 114.688ZM488.59 122.171C488.234 123.376 487.041 124.199 485.419 124.199C483.12 124.199 481.682 122.589 481.682 120.144V120.021H490.853V119.21C490.853 115.339 488.725 112.832 485.271 112.832C481.743 112.832 479.48 115.523 479.48 119.493C479.48 123.511 481.705 126.054 485.37 126.054C488.16 126.054 490.324 124.408 490.692 122.171H488.59ZM494.351 125.956C495.137 125.956 495.753 125.342 495.753 124.555C495.753 123.769 495.137 123.154 494.351 123.154C493.564 123.154 492.95 123.769 492.95 124.555C492.95 125.342 493.564 125.956 494.351 125.956Z" fill="#30272D"/>
<path d="M334.753 96.5623C341.418 96.5623 345.989 93.2598 345.989 88.4598C345.989 84.8115 343.358 81.9891 339.478 81.3362V81.221C342.705 80.453 344.857 77.9761 344.857 74.9616C344.857 70.6992 340.707 67.627 334.753 67.627C328.817 67.627 324.63 70.7184 324.63 74.9424C324.63 77.9953 326.8 80.4722 330.027 81.221V81.3362C326.166 81.9699 323.516 84.7924 323.516 88.4406C323.516 93.2406 328.03 96.5623 334.753 96.5623ZM334.753 92.3383C331.698 92.3383 329.566 90.5141 329.566 88.0181C329.566 85.522 331.698 83.6979 334.753 83.6979C337.807 83.6979 339.92 85.522 339.92 88.0181C339.92 90.5141 337.807 92.3383 334.753 92.3383ZM334.753 79.4739C332.178 79.4739 330.373 77.861 330.373 75.6529C330.373 73.4449 332.178 71.8128 334.753 71.8128C337.308 71.8128 339.132 73.4257 339.132 75.6529C339.132 77.861 337.308 79.4739 334.753 79.4739ZM359.732 96.5623C366.09 96.5623 370.432 92.5687 370.432 86.6932C370.432 81.2978 366.628 77.4001 361.326 77.4001C358.503 77.4001 356.293 78.5713 355.16 80.4338H355.045L355.68 72.8495H368.761V68.2415H351.127L349.763 84.178H354.949C355.909 82.5843 357.716 81.6243 359.809 81.6243C362.805 81.6243 364.899 83.7747 364.899 86.8469C364.899 89.8614 362.805 91.9733 359.771 91.9733C357.082 91.9733 355.006 90.3606 354.68 88.0181H349.321C349.494 93.0294 353.777 96.5623 359.732 96.5623ZM384.731 74.8849C384.731 70.4879 382.292 67.7039 378.411 67.7039C374.55 67.7039 372.092 70.4879 372.092 74.8849C372.092 79.301 374.55 82.0659 378.411 82.0659C382.292 82.0659 384.731 79.301 384.731 74.8849ZM378.411 78.6674C377.162 78.6674 376.394 77.2466 376.394 74.8657C376.394 72.4847 377.162 71.0447 378.411 71.0447C379.659 71.0447 380.427 72.4847 380.427 74.8657C380.427 77.2466 379.659 78.6674 378.411 78.6674ZM379.486 95.9479L389.244 82.5651L399.694 68.2415H395.065L385.595 81.221L374.838 95.9479H379.486ZM402.441 89.1509C402.441 84.754 400.001 81.9699 396.122 81.9699C392.26 81.9699 389.801 84.754 389.801 89.1509C389.801 93.567 392.26 96.3511 396.122 96.3511C400.001 96.3511 402.441 93.567 402.441 89.1509ZM396.122 92.9335C394.873 92.9335 394.105 91.5126 394.105 89.1317C394.105 86.7508 394.873 85.3108 396.122 85.3108C397.37 85.3108 398.138 86.7508 398.138 89.1317C398.138 91.5126 397.37 92.9335 396.122 92.9335Z" fill="#30272D"/>
<path d="M334.753 96.5623C341.418 96.5623 345.989 93.2598 345.989 88.4598C345.989 84.8115 343.358 81.9891 339.478 81.3362V81.221C342.705 80.453 344.857 77.9761 344.857 74.9616C344.857 70.6992 340.707 67.627 334.753 67.627C328.817 67.627 324.63 70.7184 324.63 74.9424C324.63 77.9953 326.8 80.4722 330.027 81.221V81.3362C326.166 81.9699 323.516 84.7924 323.516 88.4406C323.516 93.2406 328.03 96.5623 334.753 96.5623ZM334.753 92.3383C331.698 92.3383 329.566 90.5141 329.566 88.0181C329.566 85.522 331.698 83.6979 334.753 83.6979C337.807 83.6979 339.92 85.522 339.92 88.0181C339.92 90.5141 337.807 92.3383 334.753 92.3383ZM334.753 79.4739C332.178 79.4739 330.373 77.861 330.373 75.6529C330.373 73.4449 332.178 71.8128 334.753 71.8128C337.308 71.8128 339.132 73.4257 339.132 75.6529C339.132 77.861 337.308 79.4739 334.753 79.4739ZM359.732 96.5623C366.09 96.5623 370.432 92.5687 370.432 86.6932C370.432 81.2978 366.628 77.4001 361.326 77.4001C358.503 77.4001 356.293 78.5713 355.16 80.4338H355.045L355.68 72.8495H368.761V68.2415H351.127L349.763 84.178H354.949C355.909 82.5843 357.716 81.6243 359.809 81.6243C362.805 81.6243 364.899 83.7747 364.899 86.8469C364.899 89.8614 362.805 91.9733 359.771 91.9733C357.082 91.9733 355.006 90.3606 354.68 88.0181H349.321C349.494 93.0294 353.777 96.5623 359.732 96.5623ZM384.731 74.8849C384.731 70.4879 382.292 67.7039 378.411 67.7039C374.55 67.7039 372.092 70.4879 372.092 74.8849C372.092 79.301 374.55 82.0659 378.411 82.0659C382.292 82.0659 384.731 79.301 384.731 74.8849ZM378.411 78.6674C377.162 78.6674 376.394 77.2466 376.394 74.8657C376.394 72.4847 377.162 71.0447 378.411 71.0447C379.659 71.0447 380.427 72.4847 380.427 74.8657C380.427 77.2466 379.659 78.6674 378.411 78.6674ZM379.486 95.9479L389.244 82.5651L399.694 68.2415H395.065L385.595 81.221L374.838 95.9479H379.486ZM402.441 89.1509C402.441 84.754 400.001 81.9699 396.122 81.9699C392.26 81.9699 389.801 84.754 389.801 89.1509C389.801 93.567 392.26 96.3511 396.122 96.3511C400.001 96.3511 402.441 93.567 402.441 89.1509ZM396.122 92.9335C394.873 92.9335 394.105 91.5126 394.105 89.1317C394.105 86.7508 394.873 85.3108 396.122 85.3108C397.37 85.3108 398.138 86.7508 398.138 89.1317C398.138 91.5126 397.37 92.9335 396.122 92.9335Z" fill="#30272D"/>
<rect x="115" y="184" width="408" height="145" rx="30" fill="#507594"/>
<path d="M144.277 227L149.961 210.09H146.105L142.238 223.355H142.156L138.289 210.09H134.328L140.012 227H144.277ZM155.227 227.27C159.024 227.27 161.45 224.844 161.45 220.707C161.45 216.629 158.989 214.168 155.227 214.168C151.466 214.168 149.005 216.641 149.005 220.707C149.005 224.832 151.43 227.27 155.227 227.27ZM155.227 224.656C153.54 224.656 152.473 223.238 152.473 220.719C152.473 218.223 153.563 216.781 155.227 216.781C156.891 216.781 157.97 218.223 157.97 220.719C157.97 223.238 156.903 224.656 155.227 224.656ZM174.334 219.113C174.181 216.266 172.025 214.168 168.627 214.168C164.865 214.168 162.462 216.676 162.462 220.707C162.462 224.809 164.865 227.27 168.65 227.27C171.955 227.27 174.17 225.359 174.345 222.395H171.158C170.947 223.766 170.056 224.586 168.685 224.586C166.986 224.586 165.931 223.18 165.931 220.707C165.931 218.281 166.986 216.852 168.673 216.852C170.08 216.852 170.959 217.789 171.158 219.113H174.334ZM181.334 216.699C182.858 216.699 183.901 217.801 183.971 219.406H178.639C178.756 217.836 179.834 216.699 181.334 216.699ZM184.018 223.156C183.702 224.117 182.741 224.738 181.487 224.738C179.741 224.738 178.604 223.508 178.604 221.715V221.504H187.264V220.461C187.264 216.641 184.955 214.168 181.299 214.168C177.584 214.168 175.241 216.77 175.241 220.777C175.241 224.797 177.561 227.27 181.428 227.27C184.534 227.27 186.784 225.617 187.159 223.156H184.018ZM182.612 209.059H179.987L176.893 212.785H179.518L181.252 210.605H181.334L183.08 212.785H185.694L182.612 209.059ZM198.828 216.699C200.352 216.699 201.395 217.801 201.465 219.406H196.133C196.25 217.836 197.328 216.699 198.828 216.699ZM201.512 223.156C201.195 224.117 200.234 224.738 198.98 224.738C197.234 224.738 196.098 223.508 196.098 221.715V221.504H204.758V220.461C204.758 216.641 202.449 214.168 198.793 214.168C195.078 214.168 192.734 216.77 192.734 220.777C192.734 224.797 195.055 227.27 198.922 227.27C202.027 227.27 204.277 225.617 204.652 223.156H201.512ZM206.016 218.129C206.016 219.98 207.235 221.223 209.614 221.762L211.934 222.277C213.059 222.547 213.481 222.898 213.481 223.531C213.481 224.352 212.696 224.867 211.395 224.867C210.036 224.867 209.204 224.258 209.04 223.203H205.7C205.887 225.652 207.95 227.27 211.302 227.27C214.618 227.27 216.891 225.641 216.891 223.168C216.891 221.293 215.872 220.297 213.352 219.734L210.95 219.219C209.848 218.961 209.309 218.539 209.309 217.918C209.309 217.109 210.083 216.57 211.266 216.57C212.532 216.57 213.341 217.191 213.411 218.199H216.563C216.516 215.762 214.466 214.168 211.313 214.168C208.091 214.168 206.016 215.738 206.016 218.129ZM219.216 211.543V214.438H217.447V217.016H219.216V223.613C219.216 226.062 220.365 227.047 223.318 227.047C224.009 227.047 224.595 226.988 224.947 226.906V224.387C224.736 224.422 224.42 224.445 224.115 224.445C223.107 224.445 222.638 223.988 222.638 223.027V217.016H224.959V214.438H222.638V211.543H219.216ZM231.268 224.727C230.108 224.727 229.334 224.141 229.334 223.203C229.334 222.312 230.061 221.738 231.338 221.645L233.987 221.48V222.395C233.987 223.754 232.756 224.727 231.268 224.727ZM230.143 227.199C231.713 227.199 233.272 226.414 233.975 225.078H234.045V227H237.35V218.363C237.35 215.832 235.252 214.168 232.03 214.168C228.702 214.168 226.627 215.844 226.498 218.281H229.627C229.791 217.355 230.6 216.723 231.877 216.723C233.166 216.723 233.987 217.402 233.987 218.574V219.406L230.823 219.594C227.694 219.781 225.936 221.105 225.936 223.391C225.936 225.652 227.752 227.199 230.143 227.199ZM233.272 212.668L236.272 209.035H233.131L230.541 212.668H233.272ZM248.574 224.727C247.414 224.727 246.641 224.141 246.641 223.203C246.641 222.312 247.367 221.738 248.645 221.645L251.293 221.48V222.395C251.293 223.754 250.062 224.727 248.574 224.727ZM247.449 227.199C249.02 227.199 250.578 226.414 251.281 225.078H251.352V227H254.656V218.363C254.656 215.832 252.559 214.168 249.336 214.168C246.008 214.168 243.934 215.844 243.805 218.281H246.934C247.098 217.355 247.906 216.723 249.184 216.723C250.473 216.723 251.293 217.402 251.293 218.574V219.406L248.129 219.594C245 219.781 243.242 221.105 243.242 223.391C243.242 225.652 245.059 227.199 247.449 227.199ZM256.571 227H259.993V219.98C259.993 218.211 260.977 217.18 262.665 217.18C263.157 217.18 263.626 217.262 263.907 217.379V214.367C263.673 214.297 263.333 214.238 262.934 214.238C261.458 214.238 260.391 215.105 259.946 216.699H259.876V214.438H256.571V227ZM265.013 227H268.435V219.98C268.435 218.211 269.42 217.18 271.107 217.18C271.599 217.18 272.068 217.262 272.349 217.379V214.367C272.115 214.297 271.775 214.238 271.377 214.238C269.9 214.238 268.834 215.105 268.388 216.699H268.318V214.438H265.013V227ZM278.67 216.699C280.194 216.699 281.237 217.801 281.307 219.406H275.975C276.092 217.836 277.17 216.699 278.67 216.699ZM281.354 223.156C281.038 224.117 280.077 224.738 278.823 224.738C277.077 224.738 275.94 223.508 275.94 221.715V221.504H284.6V220.461C284.6 216.641 282.291 214.168 278.635 214.168C274.92 214.168 272.577 216.77 272.577 220.777C272.577 224.797 274.897 227.27 278.764 227.27C281.87 227.27 284.12 225.617 284.495 223.156H281.354ZM293.534 227.199C296.698 227.199 298.632 224.762 298.632 220.719C298.632 216.664 296.687 214.238 293.523 214.238C291.73 214.238 290.335 215.129 289.644 216.617H289.573V210.09H286.152V227H289.527V224.844H289.597C290.288 226.309 291.695 227.199 293.534 227.199ZM292.351 216.98C294.05 216.98 295.128 218.434 295.128 220.719C295.128 223.016 294.062 224.445 292.351 224.445C290.687 224.445 289.562 222.992 289.562 220.719C289.562 218.469 290.698 216.98 292.351 216.98ZM305.75 216.699C307.273 216.699 308.316 217.801 308.387 219.406H303.055C303.172 217.836 304.25 216.699 305.75 216.699ZM308.434 223.156C308.117 224.117 307.156 224.738 305.902 224.738C304.156 224.738 303.02 223.508 303.02 221.715V221.504H311.68V220.461C311.68 216.641 309.371 214.168 305.715 214.168C302 214.168 299.656 216.77 299.656 220.777C299.656 224.797 301.977 227.27 305.844 227.27C308.949 227.27 311.199 225.617 311.574 223.156H308.434ZM313.149 227H316.571V219.793C316.571 218.164 317.544 217.039 319.079 217.039C320.614 217.039 321.387 217.977 321.387 219.617V227H324.809V218.902C324.809 215.961 323.239 214.203 320.45 214.203C318.516 214.203 317.192 215.117 316.524 216.676H316.454V214.438H313.149V227ZM327.591 211.543V214.438H325.822V217.016H327.591V223.613C327.591 226.062 328.74 227.047 331.693 227.047C332.384 227.047 332.97 226.988 333.322 226.906V224.387C333.111 224.422 332.795 224.445 332.49 224.445C331.482 224.445 331.013 223.988 331.013 223.027V217.016H333.334V214.438H331.013V211.543H327.591ZM339.643 224.727C338.483 224.727 337.709 224.141 337.709 223.203C337.709 222.312 338.436 221.738 339.713 221.645L342.362 221.48V222.395C342.362 223.754 341.131 224.727 339.643 224.727ZM338.518 227.199C340.088 227.199 341.647 226.414 342.35 225.078H342.42V227H345.725V218.363C345.725 215.832 343.627 214.168 340.405 214.168C337.077 214.168 335.002 215.844 334.873 218.281H338.002C338.166 217.355 338.975 216.723 340.252 216.723C341.541 216.723 342.362 217.402 342.362 218.574V219.406L339.198 219.594C336.069 219.781 334.311 221.105 334.311 223.391C334.311 225.652 336.127 227.199 338.518 227.199ZM347.64 227H351.062V219.793C351.062 218.164 352.034 217.039 353.57 217.039C355.105 217.039 355.878 217.977 355.878 219.617V227H359.3V218.902C359.3 215.961 357.73 214.203 354.941 214.203C353.007 214.203 351.683 215.117 351.015 216.676H350.945V214.438H347.64V227ZM365.832 227.199C367.684 227.199 369.137 226.227 369.746 224.844H369.805V227H373.18V210.09H369.758V216.594H369.688C369.078 215.199 367.672 214.238 365.855 214.238C362.703 214.238 360.711 216.711 360.711 220.695C360.711 224.715 362.691 227.199 365.832 227.199ZM366.992 216.98C368.691 216.98 369.781 218.434 369.781 220.719C369.781 223.016 368.691 224.445 366.992 224.445C365.27 224.445 364.215 223.027 364.215 220.719C364.215 218.422 365.27 216.98 366.992 216.98ZM380.93 227.27C384.727 227.27 387.153 224.844 387.153 220.707C387.153 216.629 384.692 214.168 380.93 214.168C377.169 214.168 374.708 216.641 374.708 220.707C374.708 224.832 377.134 227.27 380.93 227.27ZM380.93 224.656C379.243 224.656 378.177 223.238 378.177 220.719C378.177 218.223 379.266 216.781 380.93 216.781C382.595 216.781 383.673 218.223 383.673 220.719C383.673 223.238 382.606 224.656 380.93 224.656ZM140.75 245.699C142.273 245.699 143.316 246.801 143.387 248.406H138.055C138.172 246.836 139.25 245.699 140.75 245.699ZM143.434 252.156C143.117 253.117 142.156 253.738 140.902 253.738C139.156 253.738 138.02 252.508 138.02 250.715V250.504H146.68V249.461C146.68 245.641 144.371 243.168 140.715 243.168C137 243.168 134.656 245.77 134.656 249.777C134.656 253.797 136.977 256.27 140.844 256.27C143.949 256.27 146.199 254.617 146.574 252.156H143.434ZM147.938 247.129C147.938 248.98 149.157 250.223 151.536 250.762L153.856 251.277C154.981 251.547 155.403 251.898 155.403 252.531C155.403 253.352 154.618 253.867 153.317 253.867C151.958 253.867 151.126 253.258 150.962 252.203H147.622C147.809 254.652 149.872 256.27 153.223 256.27C156.54 256.27 158.813 254.641 158.813 252.168C158.813 250.293 157.794 249.297 155.274 248.734L152.872 248.219C151.77 247.961 151.231 247.539 151.231 246.918C151.231 246.109 152.005 245.57 153.188 245.57C154.454 245.57 155.262 246.191 155.333 247.199H158.485C158.438 244.762 156.387 243.168 153.235 243.168C150.012 243.168 147.938 244.738 147.938 247.129ZM160.013 247.129C160.013 248.98 161.232 250.223 163.611 250.762L165.931 251.277C167.056 251.547 167.478 251.898 167.478 252.531C167.478 253.352 166.693 253.867 165.392 253.867C164.033 253.867 163.201 253.258 163.037 252.203H159.697C159.884 254.652 161.947 256.27 165.298 256.27C168.615 256.27 170.888 254.641 170.888 252.168C170.888 250.293 169.869 249.297 167.349 248.734L164.947 248.219C163.845 247.961 163.306 247.539 163.306 246.918C163.306 246.109 164.08 245.57 165.263 245.57C166.529 245.57 167.337 246.191 167.408 247.199H170.56C170.513 244.762 168.462 243.168 165.31 243.168C162.087 243.168 160.013 244.738 160.013 247.129ZM177.151 253.727C175.991 253.727 175.217 253.141 175.217 252.203C175.217 251.312 175.944 250.738 177.221 250.645L179.87 250.48V251.395C179.87 252.754 178.639 253.727 177.151 253.727ZM176.026 256.199C177.596 256.199 179.155 255.414 179.858 254.078H179.928V256H183.233V247.363C183.233 244.832 181.135 243.168 177.912 243.168C174.584 243.168 172.51 244.844 172.381 247.281H175.51C175.674 246.355 176.483 245.723 177.76 245.723C179.049 245.723 179.87 246.402 179.87 247.574V248.406L176.705 248.594C173.577 248.781 171.819 250.105 171.819 252.391C171.819 254.652 173.635 256.199 176.026 256.199ZM189.395 247.129C189.395 248.98 190.613 250.223 192.992 250.762L195.312 251.277C196.438 251.547 196.859 251.898 196.859 252.531C196.859 253.352 196.074 253.867 194.773 253.867C193.414 253.867 192.582 253.258 192.418 252.203H189.078C189.266 254.652 191.328 256.27 194.68 256.27C197.996 256.27 200.27 254.641 200.27 252.168C200.27 250.293 199.25 249.297 196.73 248.734L194.328 248.219C193.227 247.961 192.688 247.539 192.688 246.918C192.688 246.109 193.461 245.57 194.645 245.57C195.91 245.57 196.719 246.191 196.789 247.199H199.941C199.895 244.762 197.844 243.168 194.691 243.168C191.469 243.168 189.395 244.738 189.395 247.129ZM207.317 245.699C208.841 245.699 209.884 246.801 209.954 248.406H204.622C204.739 246.836 205.817 245.699 207.317 245.699ZM210.001 252.156C209.684 253.117 208.723 253.738 207.47 253.738C205.723 253.738 204.587 252.508 204.587 250.715V250.504H213.247V249.461C213.247 245.641 210.938 243.168 207.282 243.168C203.567 243.168 201.223 245.77 201.223 249.777C201.223 253.797 203.544 256.27 207.411 256.27C210.516 256.27 212.766 254.617 213.141 252.156H210.001ZM214.716 256H218.138V248.418C218.138 247.012 219.017 246.027 220.318 246.027C221.584 246.027 222.345 246.824 222.345 248.172V256H225.638V248.371C225.638 246.977 226.494 246.027 227.795 246.027C229.119 246.027 229.845 246.824 229.845 248.277V256H233.267V247.422C233.267 244.891 231.615 243.203 229.154 243.203C227.314 243.203 225.814 244.199 225.252 245.781H225.181C224.759 244.141 223.494 243.203 221.677 243.203C219.966 243.203 218.619 244.199 218.091 245.711H218.021V243.438H214.716V256ZM239.987 253.727C238.827 253.727 238.053 253.141 238.053 252.203C238.053 251.312 238.78 250.738 240.057 250.645L242.705 250.48V251.395C242.705 252.754 241.475 253.727 239.987 253.727ZM238.862 256.199C240.432 256.199 241.991 255.414 242.694 254.078H242.764V256H246.069V247.363C246.069 244.832 243.971 243.168 240.748 243.168C237.42 243.168 235.346 244.844 235.217 247.281H238.346C238.51 246.355 239.319 245.723 240.596 245.723C241.885 245.723 242.705 246.402 242.705 247.574V248.406L239.541 248.594C236.412 248.781 234.655 250.105 234.655 252.391C234.655 254.652 236.471 256.199 238.862 256.199ZM247.984 256H251.405V248.793C251.405 247.164 252.378 246.039 253.913 246.039C255.448 246.039 256.222 246.977 256.222 248.617V256H259.644V247.902C259.644 244.961 258.073 243.203 255.284 243.203C253.351 243.203 252.027 244.117 251.359 245.676H251.288V243.438H247.984V256ZM266.363 253.727C265.203 253.727 264.43 253.141 264.43 252.203C264.43 251.312 265.156 250.738 266.434 250.645L269.082 250.48V251.395C269.082 252.754 267.852 253.727 266.363 253.727ZM265.238 256.199C266.809 256.199 268.367 255.414 269.07 254.078H269.141V256H272.445V247.363C272.445 244.832 270.348 243.168 267.125 243.168C263.797 243.168 261.723 244.844 261.594 247.281H264.723C264.887 246.355 265.695 245.723 266.973 245.723C268.262 245.723 269.082 246.402 269.082 247.574V248.406L265.918 248.594C262.789 248.781 261.031 250.105 261.031 252.391C261.031 254.652 262.848 256.199 265.238 256.199ZM275.286 239.09L275.567 250.434H278.52L278.802 239.09H275.286ZM277.044 256.293C278.11 256.293 278.954 255.484 278.954 254.453C278.954 253.422 278.11 252.613 277.044 252.613C275.977 252.613 275.134 253.422 275.134 254.453C275.134 255.484 275.977 256.293 277.044 256.293Z" fill="#FAFAFA"/>
<path d="M222.554 288L227.75 273.908H225.904L221.714 285.861H221.656L217.466 273.908H215.621L220.816 288H222.554ZM231.639 288.176C234.442 288.176 236.336 286.154 236.336 282.922C236.336 279.68 234.442 277.668 231.639 277.668C228.827 277.668 226.932 279.68 226.932 282.922C226.932 286.154 228.827 288.176 231.639 288.176ZM231.639 286.682C229.842 286.682 228.661 285.314 228.661 282.922C228.661 280.529 229.842 279.162 231.639 279.162C233.436 279.162 234.608 280.529 234.608 282.922C234.608 285.314 233.436 286.682 231.639 286.682ZM246.193 281.174C245.978 279.348 244.464 277.668 241.925 277.668C239.122 277.668 237.257 279.719 237.257 282.922C237.257 286.193 239.132 288.176 241.945 288.176C244.249 288.176 245.948 286.75 246.212 284.729H244.542C244.249 285.949 243.341 286.682 241.954 286.682C240.196 286.682 238.986 285.285 238.986 282.922C238.986 280.617 240.177 279.162 241.935 279.162C243.429 279.162 244.288 280.07 244.532 281.174H246.193ZM251.547 279.143C253.148 279.143 254.213 280.354 254.252 282.053H248.734C248.842 280.363 249.955 279.143 251.547 279.143ZM254.213 285.09C253.93 286.047 252.982 286.701 251.693 286.701C249.867 286.701 248.725 285.422 248.725 283.479V283.381H256.01V282.736C256.01 279.66 254.32 277.668 251.576 277.668C248.773 277.668 246.977 279.807 246.977 282.961C246.977 286.154 248.744 288.176 251.654 288.176C253.871 288.176 255.59 286.867 255.883 285.09H254.213ZM252.23 273.449H250.922L248.266 276.379H249.857L251.547 274.504H251.605L253.295 276.379H254.887L252.23 273.449ZM266.162 277.668C264.687 277.668 263.505 278.42 262.88 279.562H262.841V277.844H261.23V291.389H262.929V286.35H262.968C263.574 287.463 264.746 288.176 266.201 288.176C268.759 288.176 270.507 286.105 270.507 282.922C270.507 279.738 268.75 277.668 266.162 277.668ZM265.83 286.682C264.091 286.682 262.92 285.188 262.92 282.922C262.92 280.666 264.091 279.162 265.83 279.162C267.636 279.162 268.769 280.627 268.769 282.922C268.769 285.227 267.636 286.682 265.83 286.682ZM271.926 288H273.625V281.672C273.625 280.236 274.485 279.289 275.803 279.289C276.213 279.289 276.575 279.338 276.711 279.387V277.736C276.575 277.717 276.321 277.668 276.028 277.668C274.836 277.668 273.899 278.381 273.567 279.504H273.528V277.844H271.926V288ZM280.952 286.73C279.732 286.73 278.921 286.096 278.921 285.129C278.921 284.172 279.702 283.566 281.07 283.479L283.784 283.312V284.143C283.784 285.607 282.554 286.73 280.952 286.73ZM280.571 288.176C281.939 288.176 283.228 287.414 283.833 286.252H283.872V288H285.484V280.979C285.484 278.957 283.98 277.668 281.597 277.668C279.195 277.668 277.691 279.016 277.573 280.773H279.214C279.429 279.777 280.249 279.162 281.558 279.162C282.964 279.162 283.784 279.904 283.784 281.145V281.994L280.874 282.16C278.53 282.297 277.193 283.391 277.193 285.129C277.193 286.955 278.55 288.176 280.571 288.176ZM287.889 275.393V277.844H286.375V279.24H287.889V285.363C287.889 287.316 288.611 288.078 290.477 288.078C290.877 288.078 291.346 288.049 291.551 288V286.574C291.434 286.594 291.043 286.623 290.848 286.623C289.979 286.623 289.588 286.203 289.588 285.275V279.24H291.561V277.844H289.588V275.393H287.889ZM293.165 288H294.864V277.844H293.165V288ZM294.014 276.135C294.6 276.135 295.079 275.656 295.079 275.08C295.079 274.494 294.6 274.025 294.014 274.025C293.438 274.025 292.96 274.494 292.96 275.08C292.96 275.656 293.438 276.135 294.014 276.135ZM305.296 281.174C305.082 279.348 303.568 277.668 301.029 277.668C298.226 277.668 296.361 279.719 296.361 282.922C296.361 286.193 298.236 288.176 301.048 288.176C303.353 288.176 305.052 286.75 305.316 284.729H303.646C303.353 285.949 302.445 286.682 301.058 286.682C299.3 286.682 298.089 285.285 298.089 282.922C298.089 280.617 299.281 279.162 301.039 279.162C302.533 279.162 303.392 280.07 303.636 281.174H305.296ZM310.787 288.176C313.59 288.176 315.485 286.154 315.485 282.922C315.485 279.68 313.59 277.668 310.787 277.668C307.975 277.668 306.08 279.68 306.08 282.922C306.08 286.154 307.975 288.176 310.787 288.176ZM310.787 286.682C308.991 286.682 307.809 285.314 307.809 282.922C307.809 280.529 308.991 279.162 310.787 279.162C312.584 279.162 313.756 280.529 313.756 282.922C313.756 285.314 312.584 286.682 310.787 286.682ZM325.243 277.844H323.544V283.811C323.544 285.539 322.548 286.672 320.898 286.672C319.325 286.672 318.554 285.783 318.554 284.133V277.844H316.855V284.436C316.855 286.74 318.154 288.176 320.37 288.176C321.933 288.176 322.987 287.521 323.593 286.35H323.632V288H325.243V277.844ZM330.903 277.971V277.98H332.602V277.971C332.602 276.398 333.852 275.207 335.503 275.207C337.055 275.207 338.296 276.291 338.296 277.648C338.296 278.82 337.846 279.572 335.952 281.564L330.991 286.789V288H340.288V286.438H333.423V286.398L336.987 282.717C339.341 280.285 340.054 279.113 340.054 277.541C340.054 275.383 338.071 273.674 335.552 273.674C332.895 273.674 330.903 275.51 330.903 277.971ZM346.863 288.234C349.802 288.234 351.882 286.252 351.882 283.42C351.882 280.686 349.929 278.703 347.224 278.703C345.877 278.703 344.705 279.211 344.07 280.061H344.031L344.461 275.471H351.082V273.908H343.015L342.244 281.799H343.894C344.47 280.812 345.593 280.217 346.912 280.217C348.787 280.217 350.125 281.574 350.125 283.469C350.125 285.363 348.796 286.691 346.882 286.691C345.193 286.691 343.914 285.656 343.757 284.152H342.029C342.175 286.555 344.168 288.234 346.863 288.234ZM358.682 277.238C358.682 275.109 357.51 273.732 355.723 273.732C353.936 273.732 352.764 275.109 352.764 277.238C352.764 279.367 353.936 280.744 355.723 280.744C357.51 280.744 358.682 279.367 358.682 277.238ZM355.723 279.553C354.864 279.553 354.327 278.674 354.327 277.238C354.327 275.803 354.864 274.924 355.723 274.924C356.582 274.924 357.12 275.803 357.12 277.238C357.12 278.674 356.582 279.553 355.723 279.553ZM355.293 288L360.293 281.154L365.586 273.908H363.907L359.034 280.568L353.594 288H355.293ZM366.426 284.641C366.426 282.512 365.254 281.135 363.467 281.135C361.68 281.135 360.508 282.512 360.508 284.641C360.508 286.77 361.68 288.146 363.467 288.146C365.254 288.146 366.426 286.77 366.426 284.641ZM363.467 286.955C362.608 286.955 362.071 286.076 362.071 284.641C362.071 283.205 362.608 282.326 363.467 282.326C364.327 282.326 364.864 283.205 364.864 284.641C364.864 286.076 364.327 286.955 363.467 286.955ZM371.51 288H373.209V281.633C373.209 280.227 374.186 279.172 375.533 279.172C376.793 279.172 377.613 279.973 377.613 281.193V288H379.312V281.545C379.312 280.168 380.26 279.172 381.607 279.172C382.945 279.172 383.717 279.992 383.717 281.379V288H385.416V280.988C385.416 278.977 384.117 277.668 382.105 277.668C380.68 277.668 379.488 278.391 378.922 279.602H378.883C378.443 278.371 377.418 277.668 376.031 277.668C374.664 277.668 373.629 278.391 373.15 279.465H373.111V277.844H371.51V288ZM390.634 286.73C389.413 286.73 388.602 286.096 388.602 285.129C388.602 284.172 389.384 283.566 390.751 283.479L393.466 283.312V284.143C393.466 285.607 392.235 286.73 390.634 286.73ZM390.253 288.176C391.62 288.176 392.909 287.414 393.514 286.252H393.554V288H395.165V280.979C395.165 278.957 393.661 277.668 391.278 277.668C388.876 277.668 387.372 279.016 387.255 280.773H388.895C389.11 279.777 389.93 279.162 391.239 279.162C392.645 279.162 393.466 279.904 393.466 281.145V281.994L390.555 282.16C388.212 282.297 386.874 283.391 386.874 285.129C386.874 286.955 388.231 288.176 390.253 288.176ZM397.111 288H398.81V277.844H397.111V288ZM397.961 276.135C398.546 276.135 399.025 275.656 399.025 275.08C399.025 274.494 398.546 274.025 397.961 274.025C397.384 274.025 396.906 274.494 396.906 275.08C396.906 275.656 397.384 276.135 397.961 276.135ZM400.629 280.646C400.629 282.033 401.508 282.951 403.295 283.41L405.082 283.869C406.225 284.172 406.645 284.562 406.645 285.285C406.645 286.203 405.795 286.789 404.418 286.789C403.041 286.789 402.241 286.223 402.055 285.168H400.356C400.532 286.965 402.084 288.176 404.311 288.176C406.684 288.176 408.354 286.926 408.354 285.158C408.354 283.664 407.612 282.922 405.561 282.404L403.989 282.023C402.836 281.73 402.299 281.262 402.299 280.559C402.299 279.67 403.12 279.055 404.36 279.055C405.61 279.055 406.401 279.66 406.518 280.637H408.139C408.061 278.918 406.518 277.668 404.418 277.668C402.182 277.668 400.629 278.908 400.629 280.646ZM413.711 288H415.41V282.082C415.41 280.324 416.455 279.172 418.145 279.172C419.736 279.172 420.547 280.139 420.547 281.75V288H422.246V281.438C422.246 279.172 420.898 277.668 418.672 277.668C417.129 277.668 416.016 278.332 415.449 279.465H415.41V273.908H413.711V288ZM427.454 286.73C426.233 286.73 425.423 286.096 425.423 285.129C425.423 284.172 426.204 283.566 427.571 283.479L430.286 283.312V284.143C430.286 285.607 429.055 286.73 427.454 286.73ZM427.073 288.176C428.44 288.176 429.729 287.414 430.335 286.252H430.374V288H431.985V280.979C431.985 278.957 430.481 277.668 428.098 277.668C425.696 277.668 424.192 279.016 424.075 280.773H425.716C425.93 279.777 426.751 279.162 428.059 279.162C429.466 279.162 430.286 279.904 430.286 281.145V281.994L427.376 282.16C425.032 282.297 423.694 283.391 423.694 285.129C423.694 286.955 425.052 288.176 427.073 288.176ZM428.753 276.379L431.155 273.449H429.319L427.268 276.379H428.753ZM438.892 288.176C441.49 288.176 443.209 286.115 443.209 282.922C443.209 279.738 441.48 277.668 438.921 277.668C437.486 277.668 436.304 278.381 435.67 279.543H435.63V273.908H433.931V288H435.552V286.281H435.591C436.246 287.453 437.408 288.176 438.892 288.176ZM438.56 279.162C440.357 279.162 441.47 280.617 441.47 282.922C441.47 285.246 440.357 286.682 438.56 286.682C436.841 286.682 435.621 285.188 435.621 282.922C435.621 280.666 436.841 279.162 438.56 279.162ZM444.725 288H446.424V277.844H444.725V288ZM445.575 276.135C446.161 276.135 446.639 275.656 446.639 275.08C446.639 274.494 446.161 274.025 445.575 274.025C444.998 274.025 444.52 274.494 444.52 275.08C444.52 275.656 444.998 276.135 445.575 276.135ZM448.966 275.393V277.844H447.452V279.24H448.966V285.363C448.966 287.316 449.689 288.078 451.554 288.078C451.954 288.078 452.423 288.049 452.628 288V286.574C452.511 286.594 452.12 286.623 451.925 286.623C451.056 286.623 450.665 286.203 450.665 285.275V279.24H452.638V277.844H450.665V275.393H448.966ZM458.07 288.176C460.873 288.176 462.768 286.154 462.768 282.922C462.768 279.68 460.873 277.668 458.07 277.668C455.258 277.668 453.363 279.68 453.363 282.922C453.363 286.154 455.258 288.176 458.07 288.176ZM458.07 286.682C456.273 286.682 455.092 285.314 455.092 282.922C455.092 280.529 456.273 279.162 458.07 279.162C459.867 279.162 461.039 280.529 461.039 282.922C461.039 285.314 459.867 286.682 458.07 286.682ZM464.011 280.646C464.011 282.033 464.889 282.951 466.677 283.41L468.464 283.869C469.606 284.172 470.026 284.562 470.026 285.285C470.026 286.203 469.177 286.789 467.8 286.789C466.423 286.789 465.622 286.223 465.436 285.168H463.737C463.913 286.965 465.466 288.176 467.692 288.176C470.065 288.176 471.735 286.926 471.735 285.158C471.735 283.664 470.993 282.922 468.942 282.404L467.37 282.023C466.218 281.73 465.68 281.262 465.68 280.559C465.68 279.67 466.501 279.055 467.741 279.055C468.991 279.055 469.782 279.66 469.899 280.637H471.52C471.442 278.918 469.899 277.668 467.8 277.668C465.563 277.668 464.011 278.908 464.011 280.646ZM480.852 288.176C482.317 288.176 483.479 287.453 484.133 286.281H484.163V288H485.784V273.908H484.084V279.494H484.045C483.44 278.381 482.268 277.668 480.813 277.668C478.254 277.668 476.506 279.738 476.506 282.922C476.506 286.105 478.264 288.176 480.852 288.176ZM481.174 279.162C482.922 279.162 484.094 280.656 484.094 282.922C484.094 285.197 482.922 286.682 481.174 286.682C479.377 286.682 478.245 285.227 478.245 282.922C478.245 280.627 479.377 279.162 481.174 279.162ZM491.987 288.176C494.79 288.176 496.685 286.154 496.685 282.922C496.685 279.68 494.79 277.668 491.987 277.668C489.175 277.668 487.28 279.68 487.28 282.922C487.28 286.154 489.175 288.176 491.987 288.176ZM491.987 286.682C490.191 286.682 489.009 285.314 489.009 282.922C489.009 280.529 490.191 279.162 491.987 279.162C493.784 279.162 494.956 280.529 494.956 282.922C494.956 285.314 493.784 286.682 491.987 286.682ZM329.942 301.668C327.334 301.668 325.616 303.729 325.616 306.922C325.616 310.105 327.334 312.176 329.903 312.176C331.338 312.176 332.52 311.463 333.155 310.301H333.194V315.389H334.893V301.844H333.272V303.562H333.233C332.579 302.391 331.416 301.668 329.942 301.668ZM330.245 310.682C328.467 310.682 327.354 309.236 327.354 306.922C327.354 304.598 328.467 303.162 330.245 303.162C331.983 303.162 333.194 304.656 333.194 306.922C333.194 309.188 331.983 310.682 330.245 310.682ZM345.15 301.844H343.45V307.811C343.45 309.539 342.454 310.672 340.804 310.672C339.232 310.672 338.46 309.783 338.46 308.133V301.844H336.761V308.436C336.761 310.74 338.06 312.176 340.277 312.176C341.839 312.176 342.894 311.521 343.499 310.35H343.538V312H345.15V301.844ZM351.129 303.143C352.73 303.143 353.795 304.354 353.834 306.053H348.316C348.424 304.363 349.537 303.143 351.129 303.143ZM353.795 309.09C353.512 310.047 352.564 310.701 351.275 310.701C349.449 310.701 348.307 309.422 348.307 307.479V307.381H355.592V306.736C355.592 303.66 353.902 301.668 351.158 301.668C348.355 301.668 346.559 303.807 346.559 306.961C346.559 310.154 348.326 312.176 351.236 312.176C353.453 312.176 355.172 310.867 355.465 309.09H353.795ZM360.636 304.646C360.636 306.033 361.515 306.951 363.302 307.41L365.089 307.869C366.232 308.172 366.652 308.562 366.652 309.285C366.652 310.203 365.802 310.789 364.425 310.789C363.048 310.789 362.248 310.223 362.062 309.168H360.363C360.539 310.965 362.091 312.176 364.318 312.176C366.691 312.176 368.361 310.926 368.361 309.158C368.361 307.664 367.619 306.922 365.568 306.404L363.996 306.023C362.843 305.73 362.306 305.262 362.306 304.559C362.306 303.67 363.127 303.055 364.367 303.055C365.617 303.055 366.408 303.66 366.525 304.637H368.146C368.068 302.918 366.525 301.668 364.425 301.668C362.189 301.668 360.636 302.908 360.636 304.646ZM373.901 303.143C375.502 303.143 376.567 304.354 376.606 306.053H371.088C371.196 304.363 372.309 303.143 373.901 303.143ZM376.567 309.09C376.284 310.047 375.336 310.701 374.047 310.701C372.221 310.701 371.079 309.422 371.079 307.479V307.381H378.364V306.736C378.364 303.66 376.674 301.668 373.93 301.668C371.127 301.668 369.33 303.807 369.33 306.961C369.33 310.154 371.098 312.176 374.008 312.176C376.225 312.176 377.944 310.867 378.237 309.09H376.567ZM379.782 312H381.482V305.633C381.482 304.227 382.458 303.172 383.806 303.172C385.066 303.172 385.886 303.973 385.886 305.193V312H387.585V305.545C387.585 304.168 388.532 303.172 389.88 303.172C391.218 303.172 391.989 303.992 391.989 305.379V312H393.689V304.988C393.689 302.977 392.39 301.668 390.378 301.668C388.952 301.668 387.761 302.391 387.195 303.602H387.155C386.716 302.371 385.691 301.668 384.304 301.668C382.937 301.668 381.902 302.391 381.423 303.465H381.384V301.844H379.782V312ZM398.906 310.73C397.686 310.73 396.875 310.096 396.875 309.129C396.875 308.172 397.656 307.566 399.023 307.479L401.738 307.312V308.143C401.738 309.607 400.508 310.73 398.906 310.73ZM398.525 312.176C399.893 312.176 401.182 311.414 401.787 310.252H401.826V312H403.438V304.979C403.438 302.957 401.934 301.668 399.551 301.668C397.148 301.668 395.645 303.016 395.527 304.773H397.168C397.383 303.777 398.203 303.162 399.512 303.162C400.918 303.162 401.738 303.904 401.738 305.145V305.994L398.828 306.16C396.484 306.297 395.146 307.391 395.146 309.129C395.146 310.955 396.504 312.176 398.525 312.176ZM405.296 312H406.995V306.023C406.995 304.305 408.04 303.172 409.641 303.172C411.204 303.172 411.975 304.07 411.975 305.711V312H413.675V305.408C413.675 303.104 412.386 301.668 410.159 301.668C408.587 301.668 407.503 302.371 406.936 303.465H406.897V301.844H405.296V312ZM418.892 310.73C417.671 310.73 416.861 310.096 416.861 309.129C416.861 308.172 417.642 307.566 419.009 307.479L421.724 307.312V308.143C421.724 309.607 420.494 310.73 418.892 310.73ZM418.511 312.176C419.879 312.176 421.168 311.414 421.773 310.252H421.812V312H423.423V304.979C423.423 302.957 421.92 301.668 419.537 301.668C417.134 301.668 415.63 303.016 415.513 304.773H417.154C417.369 303.777 418.189 303.162 419.498 303.162C420.904 303.162 421.724 303.904 421.724 305.145V305.994L418.814 306.16C416.47 306.297 415.132 307.391 415.132 309.129C415.132 310.955 416.49 312.176 418.511 312.176ZM434.015 301.668C432.54 301.668 431.359 302.42 430.734 303.562H430.695V301.844H429.083V315.389H430.782V310.35H430.821C431.427 311.463 432.599 312.176 434.054 312.176C436.613 312.176 438.361 310.105 438.361 306.922C438.361 303.738 436.603 301.668 434.015 301.668ZM433.683 310.682C431.945 310.682 430.773 309.188 430.773 306.922C430.773 304.666 431.945 303.162 433.683 303.162C435.489 303.162 436.622 304.627 436.622 306.922C436.622 309.227 435.489 310.682 433.683 310.682ZM443.129 310.73C441.908 310.73 441.098 310.096 441.098 309.129C441.098 308.172 441.879 307.566 443.246 307.479L445.961 307.312V308.143C445.961 309.607 444.73 310.73 443.129 310.73ZM442.748 312.176C444.115 312.176 445.404 311.414 446.01 310.252H446.049V312H447.66V304.979C447.66 302.957 446.156 301.668 443.773 301.668C441.371 301.668 439.867 303.016 439.75 304.773H441.391C441.605 303.777 442.426 303.162 443.734 303.162C445.141 303.162 445.961 303.904 445.961 305.145V305.994L443.051 306.16C440.707 306.297 439.369 307.391 439.369 309.129C439.369 310.955 440.727 312.176 442.748 312.176ZM449.343 304.646C449.343 306.033 450.221 306.951 452.009 307.41L453.796 307.869C454.938 308.172 455.358 308.562 455.358 309.285C455.358 310.203 454.509 310.789 453.132 310.789C451.755 310.789 450.954 310.223 450.768 309.168H449.069C449.245 310.965 450.798 312.176 453.024 312.176C455.397 312.176 457.067 310.926 457.067 309.158C457.067 307.664 456.325 306.922 454.274 306.404L452.702 306.023C451.55 305.73 451.013 305.262 451.013 304.559C451.013 303.67 451.833 303.055 453.073 303.055C454.323 303.055 455.114 303.66 455.231 304.637H456.852C456.774 302.918 455.231 301.668 453.132 301.668C450.895 301.668 449.343 302.908 449.343 304.646ZM458.359 304.646C458.359 306.033 459.238 306.951 461.025 307.41L462.812 307.869C463.955 308.172 464.375 308.562 464.375 309.285C464.375 310.203 463.525 310.789 462.148 310.789C460.771 310.789 459.97 310.223 459.785 309.168H458.086C458.261 310.965 459.814 312.176 462.041 312.176C464.414 312.176 466.084 310.926 466.084 309.158C466.084 307.664 465.341 306.922 463.291 306.404L461.718 306.023C460.566 305.73 460.029 305.262 460.029 304.559C460.029 303.67 460.849 303.055 462.089 303.055C463.339 303.055 464.13 303.66 464.248 304.637H465.869C465.791 302.918 464.248 301.668 462.148 301.668C459.912 301.668 458.359 302.908 458.359 304.646ZM470.901 310.73C469.68 310.73 468.87 310.096 468.87 309.129C468.87 308.172 469.651 307.566 471.018 307.479L473.733 307.312V308.143C473.733 309.607 472.502 310.73 470.901 310.73ZM470.52 312.176C471.887 312.176 473.176 311.414 473.782 310.252H473.821V312H475.432V304.979C475.432 302.957 473.928 301.668 471.545 301.668C469.143 301.668 467.639 303.016 467.522 304.773H469.163C469.377 303.777 470.198 303.162 471.506 303.162C472.913 303.162 473.733 303.904 473.733 305.145V305.994L470.823 306.16C468.479 306.297 467.141 307.391 467.141 309.129C467.141 310.955 468.498 312.176 470.52 312.176ZM481.138 312.176C482.603 312.176 483.765 311.453 484.419 310.281H484.448V312H486.07V297.908H484.37V303.494H484.331C483.726 302.381 482.554 301.668 481.099 301.668C478.54 301.668 476.792 303.738 476.792 306.922C476.792 310.105 478.55 312.176 481.138 312.176ZM481.46 303.162C483.208 303.162 484.38 304.656 484.38 306.922C484.38 309.197 483.208 310.682 481.46 310.682C479.663 310.682 478.53 309.227 478.53 306.922C478.53 304.627 479.663 303.162 481.46 303.162ZM491.414 310.73C490.193 310.73 489.383 310.096 489.383 309.129C489.383 308.172 490.164 307.566 491.531 307.479L494.246 307.312V308.143C494.246 309.607 493.016 310.73 491.414 310.73ZM491.033 312.176C492.4 312.176 493.689 311.414 494.295 310.252H494.334V312H495.945V304.979C495.945 302.957 494.441 301.668 492.059 301.668C489.656 301.668 488.152 303.016 488.035 304.773H489.676C489.891 303.777 490.711 303.162 492.02 303.162C493.426 303.162 494.246 303.904 494.246 305.145V305.994L491.336 306.16C488.992 306.297 487.654 307.391 487.654 309.129C487.654 310.955 489.012 312.176 491.033 312.176Z" fill="#FAFAFA"/>
</svg>
