<svg width="524" height="329" viewBox="0 0 524 329" fill="none" xmlns="http://www.w3.org/2000/svg">
<path d="M497.547 0H26.4524C12.5475 0 1.27526 11.2675 1.27526 25.1667V125.833C1.27526 139.732 12.5475 151 26.4524 151H497.547C511.452 151 522.724 139.732 522.724 125.833V25.1667C522.724 11.2675 511.452 0 497.547 0Z" fill="#FFC579"/>
<path d="M39.6297 85.8042H30.5064C28.271 85.8042 26.4524 87.622 26.4524 89.8571V113.544C26.4524 115.778 28.271 117.596 30.5064 117.596H39.6297C41.8657 117.596 43.6843 115.778 43.6843 113.544V89.8571C43.6843 87.622 41.8657 85.8042 39.6297 85.8042ZM41.0391 113.544C41.0391 114.32 40.4067 114.952 39.6297 114.952H30.5064C29.73 114.952 29.0978 114.32 29.0978 113.544V89.8571C29.0978 89.0804 29.73 88.4483 30.5064 88.4483H39.6297C40.4067 88.4483 41.0391 89.0804 41.0391 89.8571V113.544Z" fill="black"/>
<path d="M63.9831 67.2389H54.8598C52.6244 67.2389 50.8058 69.0567 50.8058 71.291V78.8083C50.8058 79.5382 51.3976 80.1304 52.1284 80.1304C52.8587 80.1304 53.4512 79.5382 53.4512 78.8083V71.291C53.4512 70.5151 54.0828 69.883 54.8598 69.883H63.9831C64.7601 69.883 65.3918 70.5151 65.3918 71.291V113.544C65.3918 114.32 64.7601 114.952 63.9831 114.952H54.8598C54.0828 114.952 53.4512 114.32 53.4512 113.544V84.0965C53.4512 83.3666 52.8587 82.7744 52.1284 82.7744C51.3976 82.7744 50.8058 83.3666 50.8058 84.0965V113.544C50.8058 115.778 52.6244 117.596 54.8598 117.596H63.9831C66.2185 117.596 68.0371 115.778 68.0371 113.544V71.2918C68.0371 69.0567 66.2185 67.2389 63.9831 67.2389Z" fill="black"/>
<path d="M88.3356 78.3785H79.2123C76.9769 78.3785 75.1583 80.1964 75.1583 82.4308V113.544C75.1583 115.778 76.9769 117.596 79.2123 117.596H88.3356C90.5716 117.596 92.3902 115.778 92.3902 113.544V82.4308C92.3902 80.1964 90.5716 78.3785 88.3356 78.3785ZM89.745 113.544C89.745 114.32 89.1126 114.952 88.3356 114.952H79.2123C78.4353 114.952 77.8035 114.32 77.8035 113.544V82.4308C77.8035 81.6541 78.4353 81.0226 79.2123 81.0226H88.3356C89.1126 81.0226 89.745 81.6541 89.745 82.4308V113.544Z" fill="black"/>
<path d="M112.689 57.9562H103.566C101.33 57.9562 99.5109 59.774 99.5109 62.0085V99.7849C99.5109 100.515 100.103 101.107 100.833 101.107C101.564 101.107 102.156 100.515 102.156 99.7849V62.0085C102.156 61.2318 102.788 60.6003 103.566 60.6003H112.689C113.465 60.6003 114.098 61.2318 114.098 62.0085V113.544C114.098 114.32 113.465 114.952 112.689 114.952H103.566C102.788 114.952 102.156 114.32 102.156 113.544V105.073C102.156 104.343 101.564 103.751 100.833 103.751C100.103 103.751 99.5109 104.343 99.5109 105.073V113.544C99.5109 115.778 101.33 117.596 103.566 117.596H112.689C114.924 117.596 116.743 115.778 116.743 113.544V62.0085C116.743 59.774 114.924 57.9562 112.689 57.9562Z" fill="black"/>
<path d="M35.068 61.2517C30.5243 61.2517 26.8272 64.9473 26.8272 69.4891C26.8272 74.0317 30.5243 77.7272 35.068 77.7272C39.6125 77.7272 43.3096 74.0317 43.3096 69.4891C43.3096 69.1283 43.2833 68.7743 43.2386 68.4259L56.2326 58.5194C57.2136 58.9326 58.2916 59.1619 59.4213 59.1619C61.2027 59.1619 62.8526 58.5918 64.202 57.6277L75.5696 62.8271C75.9567 67.0124 79.4878 70.3009 83.7739 70.3009C88.3184 70.3009 92.0155 66.6053 92.0155 62.0635C92.0155 61.5712 91.9694 61.0899 91.8866 60.6216L105.294 49.3773C106.178 49.7023 107.132 49.8792 108.127 49.8792C112.671 49.8792 116.368 46.1836 116.368 41.6411C116.368 37.0993 112.671 33.4037 108.127 33.4037C103.583 33.4037 99.8857 37.0993 99.8857 41.6411C99.8857 42.1334 99.9318 42.6147 100.014 43.0829L86.6065 54.3274C85.7234 54.0031 84.7687 53.8255 83.7739 53.8255C81.9926 53.8255 80.3427 54.3955 78.9932 55.3602L67.6257 50.1601C67.2385 45.9751 63.7082 42.6864 59.4213 42.6864C54.877 42.6864 51.1805 46.382 51.1805 50.9238C51.1805 51.2846 51.206 51.6391 51.2514 51.9875L38.2567 61.8935C37.2751 61.4803 36.1985 61.2517 35.068 61.2517ZM108.127 36.0478C111.213 36.0478 113.723 38.557 113.723 41.6411C113.723 44.7252 111.213 47.2351 108.127 47.2351C105.088 47.2351 102.531 44.6791 102.531 41.6411C102.531 38.557 105.041 36.0478 108.127 36.0478ZM100.974 45.7298C100.996 45.7684 101.02 45.8057 101.043 45.8434C101.521 46.6484 102.136 47.3713 102.855 47.9711L90.927 57.9741C90.905 57.9355 90.5434 57.3613 90.3664 57.125C89.982 56.6127 89.539 56.1446 89.0458 55.7328L100.974 45.7298ZM78.1791 61.9809C78.2245 58.9828 80.7574 56.4696 83.7739 56.4696C86.7815 56.4696 89.3695 59.04 89.3695 62.0635C89.3695 65.1477 86.8594 67.6568 83.7739 67.6568C80.6886 67.6568 78.1783 65.1477 78.1783 62.0635C78.1783 62.036 78.1783 62.0084 78.1791 61.9809ZM66.2169 55.5771C66.7584 54.7826 67.1669 53.8991 67.4053 52.9675L77.0107 57.3606C76.5216 58.065 76.1392 58.8472 75.8892 59.6679C75.8535 59.7843 75.8203 59.9014 75.7901 60.0192L66.1845 55.626C66.1955 55.6101 66.2059 55.5936 66.2169 55.5771ZM59.4213 45.3305C62.5067 45.3305 65.0169 47.8396 65.0169 50.9238C65.0169 53.937 62.4309 56.5177 59.4213 56.5177C56.4102 56.5177 53.825 53.9507 53.825 50.9238C53.825 47.8396 56.3352 45.3305 59.4213 45.3305ZM52.0856 54.6764C52.1015 54.7068 52.1194 54.7372 52.1353 54.7674C52.5775 55.6034 53.1637 56.3636 53.8615 57.0018L42.4037 65.737C42.1916 65.3238 41.9422 64.9273 41.6638 64.5561C41.3552 64.1445 41.0095 63.7602 40.6278 63.411L52.0856 54.6764ZM38.4027 65.0457C39.7606 66.0785 40.6643 67.7051 40.6643 69.4891C40.6643 72.5739 38.1541 75.083 35.068 75.083C31.9826 75.083 29.4724 72.5739 29.4724 69.4891C29.4724 66.4049 31.9826 63.8958 35.068 63.8958C36.2984 63.8958 37.4605 64.3275 38.4027 65.0457Z" fill="black"/>
<path d="M273.6 62.9167V55.2855L279.895 45.1846H277.374L272.53 53.1475H272.456L267.613 45.1846H265.094L271.388 55.2855V62.9167H273.6ZM284.082 63.1378C287.61 63.1378 289.995 60.5941 289.995 56.5267C289.995 52.447 287.61 49.9156 284.082 49.9156C280.541 49.9156 278.156 52.447 278.156 56.5267C278.156 60.5941 280.541 63.1378 284.082 63.1378ZM284.082 61.2577C281.819 61.2577 280.332 59.5374 280.332 56.5267C280.332 53.516 281.819 51.7957 284.082 51.7957C286.343 51.7957 287.819 53.516 287.819 56.5267C287.819 59.5374 286.343 61.2577 284.082 61.2577ZM302.184 50.1367H300.046V57.6449C300.046 59.8199 298.792 61.2455 296.715 61.2455C294.735 61.2455 293.764 60.1273 293.764 58.0504V50.1367H291.626V58.4314C291.626 61.3315 293.261 63.1378 296.051 63.1378C298.018 63.1378 299.346 62.3146 300.107 60.84H300.156V62.9167H302.184V50.1367ZM306.729 51.4393V45.1846H304.762V51.4393H306.729ZM309.305 62.9167H311.445V54.9538C311.445 53.1475 312.526 51.9553 314.186 51.9553C314.702 51.9553 315.157 52.0169 315.33 52.0784V50.0016C315.157 49.9769 314.837 49.9156 314.469 49.9156C312.97 49.9156 311.789 50.8126 311.371 52.2257H311.322V50.1367H309.305V62.9167ZM321.114 51.7712C323.13 51.7712 324.471 53.2948 324.52 55.4331H317.574C317.709 53.3071 319.111 51.7712 321.114 51.7712ZM324.471 59.2548C324.114 60.459 322.922 61.2823 321.299 61.2823C319 61.2823 317.561 59.6726 317.561 57.2271V57.1043H326.732V56.2933C326.732 52.4223 324.606 49.9156 321.152 49.9156C317.623 49.9156 315.361 52.6067 315.361 56.5759C315.361 60.5941 317.586 63.1378 321.25 63.1378C324.041 63.1378 326.205 61.4913 326.573 59.2548H324.471ZM335.365 55.814V45.1846H333.226V62.9167H335.365V58.0996L336.557 56.9692L341.303 62.9167H343.787L338.07 55.6542L343.615 50.1367H341.02L335.365 55.814ZM349.376 51.7712C351.392 51.7712 352.731 53.2948 352.781 55.4331H345.835C345.969 53.3071 347.371 51.7712 349.376 51.7712ZM352.731 59.2548C352.375 60.459 351.182 61.2823 349.56 61.2823C347.261 61.2823 345.823 59.6726 345.823 57.2271V57.1043H354.993V56.2933C354.993 52.4223 352.866 49.9156 349.412 49.9156C345.884 49.9156 343.621 52.6067 343.621 56.5759C343.621 60.5941 345.846 63.1378 349.51 63.1378C352.301 63.1378 354.465 61.4913 354.833 59.2548H352.731ZM361.812 51.7712C363.828 51.7712 365.167 53.2948 365.217 55.4331H358.271C358.407 53.3071 359.807 51.7712 361.812 51.7712ZM365.167 59.2548C364.811 60.459 363.618 61.2823 361.996 61.2823C359.697 61.2823 358.259 59.6726 358.259 57.2271V57.1043H367.429V56.2933C367.429 52.4223 365.302 49.9156 361.848 49.9156C358.32 49.9156 356.057 52.6067 356.057 56.5759C356.057 60.5941 358.282 63.1378 361.947 63.1378C364.737 63.1378 366.901 61.4913 367.269 59.2548H365.167ZM375.329 49.9156C373.474 49.9156 371.985 50.8617 371.198 52.2995H371.149V50.1367H369.121V67.1807H371.26V60.84H371.31C372.071 62.2408 373.546 63.1378 375.379 63.1378C378.599 63.1378 380.8 60.5328 380.8 56.5267C380.8 52.5207 378.588 49.9156 375.329 49.9156ZM374.912 61.2577C372.723 61.2577 371.249 59.3776 371.249 56.5267C371.249 53.6881 372.723 51.7957 374.912 51.7957C377.186 51.7957 378.611 53.639 378.611 56.5267C378.611 59.4267 377.186 61.2577 374.912 61.2577ZM382.602 62.9167H384.742V50.1367H382.602V62.9167ZM383.672 47.9862C384.41 47.9862 385.011 47.3841 385.011 46.6592C385.011 45.9218 384.41 45.332 383.672 45.332C382.946 45.332 382.344 45.9218 382.344 46.6592C382.344 47.3841 382.946 47.9862 383.672 47.9862ZM387.157 62.9167H389.297V55.3963C389.297 53.2335 390.613 51.808 392.629 51.808C394.596 51.808 395.566 52.9384 395.566 55.003V62.9167H397.707V54.6221C397.707 51.7219 396.083 49.9156 393.28 49.9156C391.301 49.9156 389.936 50.8004 389.223 52.1767H389.175V50.1367H387.157V62.9167ZM405.164 61.1349C402.962 61.1349 401.524 59.3408 401.524 56.4775C401.524 53.6143 402.962 51.7957 405.164 51.7957C407.389 51.7957 408.876 53.6635 408.876 56.4775C408.876 59.2916 407.389 61.1349 405.164 61.1349ZM405.238 67.7337C408.766 67.7337 411.014 65.7061 411.014 62.6586V50.1367H408.975V52.2872H408.937C408.089 50.8004 406.589 49.9156 404.781 49.9156C401.475 49.9156 399.337 52.4716 399.337 56.4775C399.337 60.4467 401.475 63.015 404.733 63.015C406.528 63.015 408.04 62.1057 408.827 60.7171H408.876V62.7323C408.876 64.6371 407.535 65.915 405.323 65.915C403.725 65.915 402.459 65.141 402.04 63.9735H399.84C400.196 66.1486 402.421 67.7337 405.238 67.7337ZM429.894 93.0233C433.422 93.0233 435.808 90.4795 435.808 86.4121C435.808 82.3325 433.422 79.801 429.894 79.801C426.354 79.801 423.968 82.3325 423.968 86.4121C423.968 90.4795 426.354 93.0233 429.894 93.0233ZM429.894 91.1432C427.631 91.1432 426.144 89.4229 426.144 86.4121C426.144 83.4014 427.631 81.6811 429.894 81.6811C432.155 81.6811 433.631 83.4014 433.631 86.4121C433.631 89.4229 432.155 91.1432 429.894 91.1432ZM438.187 92.8021H440.327V81.7794H442.933V80.0222H440.314V78.6091C440.314 77.3433 440.867 76.7288 442.023 76.7288C442.379 76.7288 442.736 76.7657 442.994 76.8026V75.07C442.687 75.0208 442.169 74.9717 441.691 74.9717C439.331 74.9717 438.187 76.1389 438.187 78.5968V80.0222H436.404V81.7794H438.187V92.8021ZM450.421 97.5824C452.733 97.5824 453.79 96.6853 454.884 93.6991L459.912 80.0222H457.663L454.122 90.6639H454.085L450.544 80.0222H448.258L452.978 92.8144L452.684 93.7114C452.192 95.1983 451.528 95.7759 450.336 95.7759C450.066 95.7759 449.734 95.7636 449.499 95.7145V97.5086C449.734 97.5577 450.163 97.5824 450.421 97.5824ZM466.066 93.0233C469.595 93.0233 471.979 90.4795 471.979 86.4121C471.979 82.3325 469.595 79.801 466.066 79.801C462.525 79.801 460.141 82.3325 460.141 86.4121C460.141 90.4795 462.525 93.0233 466.066 93.0233ZM466.066 91.1432C463.805 91.1432 462.317 89.4229 462.317 86.4121C462.317 83.4014 463.805 81.6811 466.066 81.6811C468.329 81.6811 469.803 83.4014 469.803 86.4121C469.803 89.4229 468.329 91.1432 466.066 91.1432ZM484.17 80.0222H482.031V87.5303C482.031 89.7054 480.777 91.1309 478.7 91.1309C476.72 91.1309 475.75 90.0127 475.75 87.9358V80.0222H473.609V88.3168C473.609 91.2169 475.244 93.0233 478.036 93.0233C480.003 93.0233 481.329 92.2 482.093 90.7254H482.141V92.8021H484.17V80.0222ZM486.477 92.8021H488.615V84.8392C488.615 83.0329 489.698 81.8408 491.356 81.8408C491.872 81.8408 492.327 81.9023 492.5 81.9638V79.887C492.327 79.8624 492.008 79.801 491.639 79.801C490.14 79.801 488.96 80.698 488.541 82.1111H488.492V80.0222H486.477V92.8021ZM375.011 122.688H377.149V115.241C377.149 113.029 378.465 111.579 380.592 111.579C382.596 111.579 383.617 112.795 383.617 114.823V122.688H385.755V114.43C385.755 111.579 384.059 109.686 381.256 109.686C379.313 109.686 377.913 110.522 377.198 111.947H377.149V104.955H375.011V122.688ZM392.216 121.09C390.681 121.09 389.659 120.291 389.659 119.075C389.659 117.87 390.643 117.109 392.364 116.998L395.782 116.789V117.834C395.782 119.677 394.232 121.09 392.216 121.09ZM391.736 122.909C393.458 122.909 395.08 121.95 395.843 120.488H395.892V122.688H397.921V113.852C397.921 111.308 396.028 109.686 393.028 109.686C390.004 109.686 388.111 111.382 387.963 113.594H390.029C390.298 112.341 391.332 111.567 392.98 111.567C394.75 111.567 395.782 112.5 395.782 114.061V115.13L392.119 115.339C389.168 115.511 387.483 116.887 387.483 119.075C387.483 121.373 389.192 122.909 391.736 122.909ZM406.522 122.909C409.792 122.909 411.955 120.316 411.955 116.298C411.955 112.291 409.779 109.686 406.558 109.686C404.751 109.686 403.263 110.583 402.465 112.046H402.415V104.955H400.276V122.688H402.317V120.525H402.366C403.19 121.999 404.652 122.909 406.522 122.909ZM406.103 111.567C408.366 111.567 409.766 113.398 409.766 116.298C409.766 119.222 408.366 121.029 406.103 121.029C403.939 121.029 402.404 119.148 402.404 116.298C402.404 113.459 403.939 111.567 406.103 111.567ZM413.77 122.688H415.908V109.908H413.77V122.688ZM414.84 107.757C415.576 107.757 416.179 107.155 416.179 106.43C416.179 105.693 415.576 105.103 414.84 105.103C414.114 105.103 413.512 105.693 413.512 106.43C413.512 107.155 414.114 107.757 414.84 107.757ZM419.014 106.823V109.908H417.109V111.665H419.014V119.37C419.014 121.827 419.924 122.786 422.272 122.786C422.775 122.786 423.365 122.749 423.625 122.688V120.893C423.477 120.918 422.984 120.955 422.739 120.955C421.645 120.955 421.153 120.426 421.153 119.259V111.665H423.636V109.908H421.153V106.823H419.014ZM425.23 113.434C425.23 115.179 426.336 116.334 428.586 116.912L430.835 117.49C432.273 117.87 432.802 118.362 432.802 119.271C432.802 120.426 431.734 121.164 429.999 121.164C428.267 121.164 427.258 120.451 427.024 119.124H424.885C425.107 121.385 427.062 122.909 429.864 122.909C432.852 122.909 434.955 121.336 434.955 119.112C434.955 117.231 434.02 116.298 431.438 115.646L429.458 115.167C428.007 114.798 427.332 114.209 427.332 113.324C427.332 112.205 428.365 111.431 429.925 111.431C431.499 111.431 432.495 112.193 432.643 113.422H434.684C434.585 111.259 432.643 109.686 429.999 109.686C427.184 109.686 425.23 111.247 425.23 113.434ZM442.086 106.823V109.908H440.18V111.665H442.086V119.37C442.086 121.827 442.996 122.786 445.345 122.786C445.848 122.786 446.439 122.749 446.697 122.688V120.893C446.549 120.918 446.058 120.955 445.812 120.955C444.717 120.955 444.226 120.426 444.226 119.259V111.665H446.709V109.908H444.226V106.823H442.086ZM453.454 122.909C456.982 122.909 459.367 120.365 459.367 116.298C459.367 112.218 456.982 109.686 453.454 109.686C449.913 109.686 447.527 112.218 447.527 116.298C447.527 120.365 449.913 122.909 453.454 122.909ZM453.454 121.029C451.191 121.029 449.704 119.308 449.704 116.298C449.704 113.287 451.191 111.567 453.454 111.567C455.715 111.567 457.191 113.287 457.191 116.298C457.191 119.308 455.715 121.029 453.454 121.029ZM465.902 122.909C467.746 122.909 469.208 121.999 470.033 120.525H470.069V122.688H472.11V104.955H469.971V111.984H469.921C469.159 110.583 467.685 109.686 465.852 109.686C462.632 109.686 460.431 112.291 460.431 116.298C460.431 120.304 462.643 122.909 465.902 122.909ZM466.308 111.567C468.508 111.567 469.982 113.447 469.982 116.298C469.982 119.161 468.508 121.029 466.308 121.029C464.045 121.029 462.62 119.198 462.62 116.298C462.62 113.41 464.045 111.567 466.308 111.567ZM478.744 121.09C477.207 121.09 476.187 120.291 476.187 119.075C476.187 117.87 477.17 117.109 478.89 116.998L482.308 116.789V117.834C482.308 119.677 480.76 121.09 478.744 121.09ZM478.264 122.909C479.986 122.909 481.608 121.95 482.37 120.488H482.42V122.688H484.448V113.852C484.448 111.308 482.555 109.686 479.554 109.686C476.53 109.686 474.637 111.382 474.491 113.594H476.555C476.826 112.341 477.858 111.567 479.506 111.567C481.276 111.567 482.308 112.5 482.308 114.061V115.13L478.645 115.339C475.694 115.511 474.011 116.887 474.011 119.075C474.011 121.373 475.72 122.909 478.264 122.909ZM487.75 127.468C490.061 127.468 491.119 126.571 492.212 123.585L497.24 109.908H494.991L491.451 120.549H491.413L487.872 109.908H485.586L490.307 122.7L490.012 123.597C489.52 125.084 488.856 125.661 487.663 125.661C487.394 125.661 487.062 125.649 486.827 125.6V127.394C487.062 127.443 487.492 127.468 487.75 127.468Z" fill="#30272D"/>
<path d="M429.468 63.5311C436.132 63.5311 440.704 60.2286 440.704 55.4285C440.704 51.7803 438.072 48.9578 434.193 48.3049V48.1898C437.419 47.4217 439.57 44.9449 439.57 41.9304C439.57 37.6679 435.422 34.5957 429.468 34.5957C423.532 34.5957 419.343 37.6871 419.343 41.9112C419.343 44.9641 421.515 47.4409 424.742 48.1898V48.3049C420.881 48.9387 418.229 51.7611 418.229 55.4093C418.229 60.2094 422.744 63.5311 429.468 63.5311ZM429.468 59.307C426.413 59.307 424.281 57.4829 424.281 54.9868C424.281 52.4908 426.413 50.6667 429.468 50.6667C432.522 50.6667 434.634 52.4908 434.634 54.9868C434.634 57.4829 432.522 59.307 429.468 59.307ZM429.468 46.4426C426.893 46.4426 425.087 44.8297 425.087 42.6217C425.087 40.4136 426.893 38.7815 429.468 38.7815C432.021 38.7815 433.847 40.3944 433.847 42.6217C433.847 44.8297 432.021 46.4426 429.468 46.4426ZM454.446 63.5311C460.804 63.5311 465.145 59.5374 465.145 53.662C465.145 48.2666 461.342 44.3689 456.041 44.3689C453.218 44.3689 451.008 45.5401 449.875 47.4025H449.759L450.393 39.8183H463.474V35.2102H445.841L444.476 51.1467H449.663C450.624 49.553 452.429 48.5931 454.524 48.5931C457.52 48.5931 459.614 50.7434 459.614 53.8156C459.614 56.8301 457.52 58.9421 454.484 58.9421C451.795 58.9421 449.721 57.3294 449.394 54.9868H444.036C444.209 59.9982 448.492 63.5311 454.446 63.5311ZM479.444 41.8536C479.444 37.4567 477.005 34.6726 473.125 34.6726C469.265 34.6726 466.805 37.4567 466.805 41.8536C466.805 46.2697 469.265 49.0346 473.125 49.0346C477.005 49.0346 479.444 46.2697 479.444 41.8536ZM473.125 45.6362C471.877 45.6362 471.109 44.2153 471.109 41.8344C471.109 39.4535 471.877 38.0135 473.125 38.0135C474.374 38.0135 475.142 39.4535 475.142 41.8344C475.142 44.2153 474.374 45.6362 473.125 45.6362ZM474.201 62.9167L483.959 49.5338L494.409 35.2102H489.779L480.31 48.1898L469.553 62.9167H474.201ZM497.155 56.1197C497.155 51.7227 494.716 48.9387 490.835 48.9387C486.975 48.9387 484.516 51.7227 484.516 56.1197C484.516 60.5358 486.975 63.3198 490.835 63.3198C494.716 63.3198 497.155 60.5358 497.155 56.1197ZM490.835 59.9022C489.588 59.9022 488.818 58.4814 488.818 56.1005C488.818 53.7195 489.588 52.2795 490.835 52.2795C492.085 52.2795 492.853 53.7195 492.853 56.1005C492.853 58.4814 492.085 59.9022 490.835 59.9022Z" fill="#30272D"/>
<path d="M429.468 63.5311C436.132 63.5311 440.704 60.2286 440.704 55.4285C440.704 51.7803 438.072 48.9578 434.193 48.3049V48.1898C437.419 47.4217 439.57 44.9449 439.57 41.9304C439.57 37.6679 435.422 34.5957 429.468 34.5957C423.532 34.5957 419.343 37.6871 419.343 41.9112C419.343 44.9641 421.515 47.4409 424.742 48.1898V48.3049C420.881 48.9387 418.229 51.7611 418.229 55.4093C418.229 60.2094 422.744 63.5311 429.468 63.5311ZM429.468 59.307C426.413 59.307 424.281 57.4829 424.281 54.9868C424.281 52.4908 426.413 50.6667 429.468 50.6667C432.522 50.6667 434.634 52.4908 434.634 54.9868C434.634 57.4829 432.522 59.307 429.468 59.307ZM429.468 46.4426C426.893 46.4426 425.087 44.8297 425.087 42.6217C425.087 40.4136 426.893 38.7815 429.468 38.7815C432.021 38.7815 433.847 40.3944 433.847 42.6217C433.847 44.8297 432.021 46.4426 429.468 46.4426ZM454.446 63.5311C460.804 63.5311 465.145 59.5374 465.145 53.662C465.145 48.2666 461.342 44.3689 456.041 44.3689C453.218 44.3689 451.008 45.5401 449.875 47.4025H449.759L450.393 39.8183H463.474V35.2102H445.841L444.476 51.1467H449.663C450.624 49.553 452.429 48.5931 454.524 48.5931C457.52 48.5931 459.614 50.7434 459.614 53.8156C459.614 56.8301 457.52 58.9421 454.484 58.9421C451.795 58.9421 449.721 57.3294 449.394 54.9868H444.036C444.209 59.9982 448.492 63.5311 454.446 63.5311ZM479.444 41.8536C479.444 37.4567 477.005 34.6726 473.125 34.6726C469.265 34.6726 466.805 37.4567 466.805 41.8536C466.805 46.2697 469.265 49.0346 473.125 49.0346C477.005 49.0346 479.444 46.2697 479.444 41.8536ZM473.125 45.6362C471.877 45.6362 471.109 44.2153 471.109 41.8344C471.109 39.4535 471.877 38.0135 473.125 38.0135C474.374 38.0135 475.142 39.4535 475.142 41.8344C475.142 44.2153 474.374 45.6362 473.125 45.6362ZM474.201 62.9167L483.959 49.5338L494.409 35.2102H489.779L480.31 48.1898L469.553 62.9167H474.201ZM497.155 56.1197C497.155 51.7227 494.716 48.9387 490.835 48.9387C486.975 48.9387 484.516 51.7227 484.516 56.1197C484.516 60.5358 486.975 63.3198 490.835 63.3198C494.716 63.3198 497.155 60.5358 497.155 56.1197ZM490.835 59.9022C489.588 59.9022 488.818 58.4814 488.818 56.1005C488.818 53.7195 489.588 52.2795 490.835 52.2795C492.085 52.2795 492.853 53.7195 492.853 56.1005C492.853 58.4814 492.085 59.9022 490.835 59.9022Z" fill="#30272D"/>
<rect x="116" y="184" width="408" height="145" rx="30" fill="#507594"/>
<path d="M149.013 232V225.684L154.907 215.09H151.11L147.313 222.309H147.231L143.446 215.09H139.591L145.473 225.684V232H149.013ZM159.224 232.27C163.021 232.27 165.447 229.844 165.447 225.707C165.447 221.629 162.986 219.168 159.224 219.168C155.463 219.168 153.002 221.641 153.002 225.707C153.002 229.832 155.427 232.27 159.224 232.27ZM159.224 229.656C157.537 229.656 156.47 228.238 156.47 225.719C156.47 223.223 157.56 221.781 159.224 221.781C160.888 221.781 161.966 223.223 161.966 225.719C161.966 228.238 160.9 229.656 159.224 229.656ZM178.518 219.438H175.096V226.633C175.096 228.297 174.147 229.387 172.623 229.387C171.112 229.387 170.28 228.496 170.28 226.82V219.438H166.858V227.535C166.858 230.465 168.663 232.234 171.381 232.234C173.28 232.234 174.522 231.32 175.143 229.738H175.213V232H178.518V219.438ZM183.527 221.688V215.09H180.597V221.688H183.527ZM185.605 232H189.027V224.98C189.027 223.211 190.012 222.18 191.699 222.18C192.191 222.18 192.66 222.262 192.941 222.379V219.367C192.707 219.297 192.367 219.238 191.969 219.238C190.492 219.238 189.426 220.105 188.98 221.699H188.91V219.438H185.605V232ZM199.263 221.699C200.786 221.699 201.829 222.801 201.899 224.406H196.567C196.684 222.836 197.763 221.699 199.263 221.699ZM201.946 228.156C201.63 229.117 200.669 229.738 199.415 229.738C197.669 229.738 196.532 228.508 196.532 226.715V226.504H205.192V225.461C205.192 221.641 202.884 219.168 199.227 219.168C195.513 219.168 193.169 221.77 193.169 225.777C193.169 229.797 195.489 232.27 199.356 232.27C202.462 232.27 204.712 230.617 205.087 228.156H201.946ZM211.12 232H214.541V224.98C214.541 223.211 215.526 222.18 217.213 222.18C217.705 222.18 218.174 222.262 218.455 222.379V219.367C218.221 219.297 217.881 219.238 217.483 219.238C216.006 219.238 214.94 220.105 214.495 221.699H214.424V219.438H211.12V232ZM224.905 232.27C228.702 232.27 231.128 229.844 231.128 225.707C231.128 221.629 228.667 219.168 224.905 219.168C221.144 219.168 218.683 221.641 218.683 225.707C218.683 229.832 221.109 232.27 224.905 232.27ZM224.905 229.656C223.218 229.656 222.152 228.238 222.152 225.719C222.152 223.223 223.241 221.781 224.905 221.781C226.57 221.781 227.648 223.223 227.648 225.719C227.648 228.238 226.581 229.656 224.905 229.656ZM244.012 224.113C243.859 221.266 241.703 219.168 238.305 219.168C234.543 219.168 232.141 221.676 232.141 225.707C232.141 229.809 234.543 232.27 238.328 232.27C241.633 232.27 243.848 230.359 244.023 227.395H240.836C240.625 228.766 239.734 229.586 238.363 229.586C236.664 229.586 235.609 228.18 235.609 225.707C235.609 223.281 236.664 221.852 238.352 221.852C239.758 221.852 240.637 222.789 240.836 224.113H244.012ZM248.927 224.477H248.88V215.09H245.458V232H248.88V227.852L249.77 226.891L253.368 232H257.305L252.278 224.828L257.071 219.438H253.192L248.927 224.477ZM258.048 232H261.47V219.438H258.048V232ZM259.759 218.055C260.791 218.055 261.588 217.27 261.588 216.285C261.588 215.289 260.791 214.516 259.759 214.516C258.728 214.516 257.931 215.289 257.931 216.285C257.931 217.27 258.728 218.055 259.759 218.055ZM263.455 232H266.877V224.793C266.877 223.164 267.85 222.039 269.385 222.039C270.92 222.039 271.694 222.977 271.694 224.617V232H275.116V223.902C275.116 220.961 273.545 219.203 270.756 219.203C268.823 219.203 267.498 220.117 266.83 221.676H266.76V219.438H263.455V232ZM282.784 229.328C281.085 229.328 280.03 227.992 280.03 225.695C280.03 223.41 281.097 221.98 282.784 221.98C284.495 221.98 285.585 223.434 285.585 225.695C285.585 227.969 284.495 229.328 282.784 229.328ZM282.726 236.734C286.488 236.734 288.995 234.824 288.995 231.824V219.438H285.62V221.629H285.562C284.905 220.188 283.488 219.238 281.683 219.238C278.495 219.238 276.527 221.688 276.527 225.672C276.527 229.598 278.554 231.965 281.624 231.965C283.441 231.965 284.917 231.051 285.503 229.715H285.573V231.918C285.573 233.371 284.589 234.355 282.82 234.355C281.519 234.355 280.534 233.758 280.265 232.891H276.913C277.183 235.129 279.421 236.734 282.726 236.734ZM296.305 216.543V219.438H294.536V222.016H296.305V228.613C296.305 231.062 297.454 232.047 300.407 232.047C301.098 232.047 301.684 231.988 302.036 231.906V229.387C301.825 229.422 301.509 229.445 301.204 229.445C300.196 229.445 299.727 228.988 299.727 228.027V222.016H302.048V219.438H299.727V216.543H296.305ZM303.705 232H307.127V224.828C307.127 223.176 308.076 222.039 309.693 222.039C311.252 222.039 312.048 223.023 312.048 224.641V232H315.47V223.914C315.47 221.008 313.877 219.203 311.088 219.203C309.177 219.203 307.806 220.094 307.138 221.676H307.068V215.09H303.705V232ZM317.42 232H320.842V219.438H317.42V232ZM319.131 218.055C320.163 218.055 320.959 217.27 320.959 216.285C320.959 215.289 320.163 214.516 319.131 214.516C318.1 214.516 317.303 215.289 317.303 216.285C317.303 217.27 318.1 218.055 319.131 218.055ZM322.616 223.129C322.616 224.98 323.835 226.223 326.214 226.762L328.534 227.277C329.659 227.547 330.081 227.898 330.081 228.531C330.081 229.352 329.296 229.867 327.995 229.867C326.636 229.867 325.804 229.258 325.64 228.203H322.3C322.488 230.652 324.55 232.27 327.902 232.27C331.218 232.27 333.491 230.641 333.491 228.168C333.491 226.293 332.472 225.297 329.952 224.734L327.55 224.219C326.448 223.961 325.909 223.539 325.909 222.918C325.909 222.109 326.683 221.57 327.866 221.57C329.132 221.57 329.941 222.191 330.011 223.199H333.163C333.116 220.762 331.066 219.168 327.913 219.168C324.691 219.168 322.616 220.738 322.616 223.129ZM356.985 219.438H353.61L351.7 228.754H351.63L349.391 219.438H346.11L343.884 228.754H343.813L341.915 219.438H338.47L341.809 232H345.407L347.669 223.117H347.739L350.013 232H353.657L356.985 219.438ZM363.47 221.699C364.994 221.699 366.037 222.801 366.107 224.406H360.775C360.892 222.836 361.97 221.699 363.47 221.699ZM366.154 228.156C365.838 229.117 364.877 229.738 363.623 229.738C361.877 229.738 360.74 228.508 360.74 226.715V226.504H369.4V225.461C369.4 221.641 367.091 219.168 363.435 219.168C359.72 219.168 357.377 221.77 357.377 225.777C357.377 229.797 359.697 232.27 363.564 232.27C366.67 232.27 368.92 230.617 369.295 228.156H366.154ZM376.506 221.699C378.03 221.699 379.073 222.801 379.143 224.406H373.811C373.928 222.836 375.006 221.699 376.506 221.699ZM379.19 228.156C378.873 229.117 377.913 229.738 376.659 229.738C374.913 229.738 373.776 228.508 373.776 226.715V226.504H382.436V225.461C382.436 221.641 380.127 219.168 376.471 219.168C372.756 219.168 370.413 221.77 370.413 225.777C370.413 229.797 372.733 232.27 376.6 232.27C379.705 232.27 381.955 230.617 382.33 228.156H379.19ZM387.456 224.477H387.409V215.09H383.988V232H387.409V227.852L388.3 226.891L391.898 232H395.835L390.808 224.828L395.601 219.438H391.722L387.456 224.477ZM397.445 215.09L397.727 226.434H400.68L400.961 215.09H397.445ZM399.203 232.293C400.27 232.293 401.113 231.484 401.113 230.453C401.113 229.422 400.27 228.613 399.203 228.613C398.137 228.613 397.293 229.422 397.293 230.453C397.293 231.484 398.137 232.293 399.203 232.293Z" fill="#FAFAFA"/>
<path d="M248.908 275V268.936L253.908 260.908H251.906L248.059 267.236H248L244.152 260.908H242.15L247.15 268.936V275H248.908ZM257.309 275.176C260.112 275.176 262.007 273.154 262.007 269.922C262.007 266.68 260.112 264.668 257.309 264.668C254.497 264.668 252.602 266.68 252.602 269.922C252.602 273.154 254.497 275.176 257.309 275.176ZM257.309 273.682C255.513 273.682 254.331 272.314 254.331 269.922C254.331 267.529 255.513 266.162 257.309 266.162C259.106 266.162 260.278 267.529 260.278 269.922C260.278 272.314 259.106 273.682 257.309 273.682ZM271.765 264.844H270.066V270.811C270.066 272.539 269.07 273.672 267.42 273.672C265.847 273.672 265.076 272.783 265.076 271.133V264.844H263.377V271.436C263.377 273.74 264.675 275.176 266.892 275.176C268.455 275.176 269.509 274.521 270.115 273.35H270.154V275H271.765V264.844ZM275.45 265.879V260.908H273.887V265.879H275.45ZM277.571 275H279.271V268.672C279.271 267.236 280.13 266.289 281.448 266.289C281.859 266.289 282.22 266.338 282.357 266.387V264.736C282.22 264.717 281.966 264.668 281.673 264.668C280.482 264.668 279.544 265.381 279.212 266.504H279.173V264.844H277.571V275ZM287.027 266.143C288.629 266.143 289.693 267.354 289.732 269.053H284.215C284.322 267.363 285.436 266.143 287.027 266.143ZM289.693 272.09C289.41 273.047 288.463 273.701 287.174 273.701C285.348 273.701 284.205 272.422 284.205 270.479V270.381H291.49V269.736C291.49 266.66 289.801 264.668 287.057 264.668C284.254 264.668 282.457 266.807 282.457 269.961C282.457 273.154 284.225 275.176 287.135 275.176C289.352 275.176 291.07 273.867 291.363 272.09H289.693ZM298.498 269.355V260.908H296.798V275H298.498V271.172L299.445 270.273L303.214 275H305.187L300.646 269.229L305.05 264.844H302.99L298.498 269.355ZM309.702 266.143C311.303 266.143 312.368 267.354 312.407 269.053H306.889C306.996 267.363 308.11 266.143 309.702 266.143ZM312.368 272.09C312.084 273.047 311.137 273.701 309.848 273.701C308.022 273.701 306.879 272.422 306.879 270.479V270.381H314.164V269.736C314.164 266.66 312.475 264.668 309.731 264.668C306.928 264.668 305.131 266.807 305.131 269.961C305.131 273.154 306.899 275.176 309.809 275.176C312.026 275.176 313.745 273.867 314.037 272.09H312.368ZM319.655 266.143C321.257 266.143 322.321 267.354 322.361 269.053H316.843C316.95 267.363 318.064 266.143 319.655 266.143ZM322.321 272.09C322.038 273.047 321.091 273.701 319.802 273.701C317.976 273.701 316.833 272.422 316.833 270.479V270.381H324.118V269.736C324.118 266.66 322.429 264.668 319.685 264.668C316.882 264.668 315.085 266.807 315.085 269.961C315.085 273.154 316.853 275.176 319.763 275.176C321.98 275.176 323.698 273.867 323.991 272.09H322.321ZM330.469 264.668C328.994 264.668 327.812 265.42 327.188 266.562H327.148V264.844H325.537V278.389H327.236V273.35H327.275C327.881 274.463 329.053 275.176 330.508 275.176C333.066 275.176 334.814 273.105 334.814 269.922C334.814 266.738 333.057 264.668 330.469 264.668ZM330.137 273.682C328.398 273.682 327.227 272.188 327.227 269.922C327.227 267.666 328.398 266.162 330.137 266.162C331.943 266.162 333.076 267.627 333.076 269.922C333.076 272.227 331.943 273.682 330.137 273.682ZM336.321 275H338.02V264.844H336.321V275ZM337.171 263.135C337.757 263.135 338.235 262.656 338.235 262.08C338.235 261.494 337.757 261.025 337.171 261.025C336.595 261.025 336.116 261.494 336.116 262.08C336.116 262.656 336.595 263.135 337.171 263.135ZM340.015 275H341.714V269.023C341.714 267.305 342.759 266.172 344.361 266.172C345.923 266.172 346.695 267.07 346.695 268.711V275H348.394V268.408C348.394 266.104 347.105 264.668 344.879 264.668C343.306 264.668 342.222 265.371 341.656 266.465H341.617V264.844H340.015V275ZM354.393 273.584C352.645 273.584 351.502 272.158 351.502 269.883C351.502 267.607 352.645 266.162 354.393 266.162C356.161 266.162 357.342 267.646 357.342 269.883C357.342 272.119 356.161 273.584 354.393 273.584ZM354.452 278.828C357.254 278.828 359.041 277.217 359.041 274.795V264.844H357.42V266.553H357.391C356.717 265.371 355.526 264.668 354.09 264.668C351.463 264.668 349.764 266.699 349.764 269.883C349.764 273.037 351.463 275.078 354.051 275.078C355.477 275.078 356.678 274.355 357.303 273.252H357.342V274.854C357.342 276.367 356.278 277.383 354.52 277.383C353.25 277.383 352.245 276.768 351.913 275.84H350.164C350.448 277.568 352.215 278.828 354.452 278.828ZM364.711 264.971V264.98H366.41V264.971C366.41 263.398 367.66 262.207 369.311 262.207C370.863 262.207 372.104 263.291 372.104 264.648C372.104 265.82 371.654 266.572 369.76 268.564L364.799 273.789V275H374.096V273.438H367.23V273.398L370.795 269.717C373.148 267.285 373.861 266.113 373.861 264.541C373.861 262.383 371.879 260.674 369.359 260.674C366.703 260.674 364.711 262.51 364.711 264.971ZM380.671 275.234C383.61 275.234 385.69 273.252 385.69 270.42C385.69 267.686 383.737 265.703 381.032 265.703C379.684 265.703 378.512 266.211 377.878 267.061H377.839L378.268 262.471H384.889V260.908H376.823L376.052 268.799H377.702C378.278 267.812 379.401 267.217 380.72 267.217C382.595 267.217 383.932 268.574 383.932 270.469C383.932 272.363 382.604 273.691 380.69 273.691C379.001 273.691 377.721 272.656 377.565 271.152H375.837C375.983 273.555 377.975 275.234 380.671 275.234ZM392.49 264.238C392.49 262.109 391.318 260.732 389.531 260.732C387.744 260.732 386.572 262.109 386.572 264.238C386.572 266.367 387.744 267.744 389.531 267.744C391.318 267.744 392.49 266.367 392.49 264.238ZM389.531 266.553C388.671 266.553 388.134 265.674 388.134 264.238C388.134 262.803 388.671 261.924 389.531 261.924C390.39 261.924 390.927 262.803 390.927 264.238C390.927 265.674 390.39 266.553 389.531 266.553ZM389.101 275L394.101 268.154L399.394 260.908H397.714L392.841 267.568L387.402 275H389.101ZM400.234 271.641C400.234 269.512 399.062 268.135 397.275 268.135C395.488 268.135 394.316 269.512 394.316 271.641C394.316 273.77 395.488 275.146 397.275 275.146C399.062 275.146 400.234 273.77 400.234 271.641ZM397.275 273.955C396.416 273.955 395.879 273.076 395.879 271.641C395.879 270.205 396.416 269.326 397.275 269.326C398.134 269.326 398.671 270.205 398.671 271.641C398.671 273.076 398.134 273.955 397.275 273.955ZM405.318 275H407.017V268.633C407.017 267.227 407.993 266.172 409.341 266.172C410.601 266.172 411.421 266.973 411.421 268.193V275H413.12V268.545C413.12 267.168 414.068 266.172 415.415 266.172C416.753 266.172 417.525 266.992 417.525 268.379V275H419.224V267.988C419.224 265.977 417.925 264.668 415.913 264.668C414.488 264.668 413.296 265.391 412.73 266.602H412.691C412.251 265.371 411.226 264.668 409.839 264.668C408.472 264.668 407.437 265.391 406.958 266.465H406.919V264.844H405.318V275ZM425.301 275.176C428.104 275.176 429.998 273.154 429.998 269.922C429.998 266.68 428.104 264.668 425.301 264.668C422.488 264.668 420.594 266.68 420.594 269.922C420.594 273.154 422.488 275.176 425.301 275.176ZM425.301 273.682C423.504 273.682 422.322 272.314 422.322 269.922C422.322 267.529 423.504 266.162 425.301 266.162C427.098 266.162 428.27 267.529 428.27 269.922C428.27 272.314 427.098 273.682 425.301 273.682ZM431.417 275H433.116V268.672C433.116 267.236 433.975 266.289 435.294 266.289C435.704 266.289 436.065 266.338 436.202 266.387V264.736C436.065 264.717 435.811 264.668 435.518 264.668C434.327 264.668 433.389 265.381 433.057 266.504H433.018V264.844H431.417V275ZM440.873 266.143C442.474 266.143 443.539 267.354 443.578 269.053H438.06C438.168 267.363 439.281 266.143 440.873 266.143ZM443.539 272.09C443.255 273.047 442.308 273.701 441.019 273.701C439.193 273.701 438.05 272.422 438.05 270.479V270.381H445.336V269.736C445.336 266.66 443.646 264.668 440.902 264.668C438.099 264.668 436.302 266.807 436.302 269.961C436.302 273.154 438.07 275.176 440.98 275.176C443.197 275.176 444.916 273.867 445.209 272.09H443.539ZM450.644 275H452.343V269.082C452.343 267.324 453.388 266.172 455.077 266.172C456.669 266.172 457.48 267.139 457.48 268.75V275H459.179V268.438C459.179 266.172 457.831 264.668 455.605 264.668C454.062 264.668 452.948 265.332 452.382 266.465H452.343V260.908H450.644V275ZM464.387 273.73C463.166 273.73 462.355 273.096 462.355 272.129C462.355 271.172 463.137 270.566 464.504 270.479L467.219 270.312V271.143C467.219 272.607 465.988 273.73 464.387 273.73ZM464.006 275.176C465.373 275.176 466.662 274.414 467.268 273.252H467.307V275H468.918V267.979C468.918 265.957 467.414 264.668 465.031 264.668C462.629 264.668 461.125 266.016 461.008 267.773H462.648C462.863 266.777 463.684 266.162 464.992 266.162C466.398 266.162 467.219 266.904 467.219 268.145V268.994L464.309 269.16C461.965 269.297 460.627 270.391 460.627 272.129C460.627 273.955 461.984 275.176 464.006 275.176ZM475.825 275.176C478.423 275.176 480.141 273.115 480.141 269.922C480.141 266.738 478.413 264.668 475.854 264.668C474.419 264.668 473.237 265.381 472.602 266.543H472.563V260.908H470.864V275H472.485V273.281H472.524C473.179 274.453 474.341 275.176 475.825 275.176ZM475.493 266.162C477.29 266.162 478.403 267.617 478.403 269.922C478.403 272.246 477.29 273.682 475.493 273.682C473.774 273.682 472.554 272.188 472.554 269.922C472.554 267.666 473.774 266.162 475.493 266.162ZM481.658 275H483.357V264.844H481.658V275ZM482.507 263.135C483.093 263.135 483.572 262.656 483.572 262.08C483.572 261.494 483.093 261.025 482.507 261.025C481.931 261.025 481.453 261.494 481.453 262.08C481.453 262.656 481.931 263.135 482.507 263.135ZM485.899 262.393V264.844H484.385V266.24H485.899V272.363C485.899 274.316 486.621 275.078 488.487 275.078C488.887 275.078 489.356 275.049 489.561 275V273.574C489.444 273.594 489.053 273.623 488.858 273.623C487.989 273.623 487.598 273.203 487.598 272.275V266.24H489.571V264.844H487.598V262.393H485.899ZM490.911 267.646C490.911 269.033 491.79 269.951 493.577 270.41L495.364 270.869C496.507 271.172 496.927 271.562 496.927 272.285C496.927 273.203 496.077 273.789 494.7 273.789C493.323 273.789 492.523 273.223 492.337 272.168H490.638C490.814 273.965 492.366 275.176 494.593 275.176C496.966 275.176 498.636 273.926 498.636 272.158C498.636 270.664 497.894 269.922 495.843 269.404L494.271 269.023C493.118 268.73 492.581 268.262 492.581 267.559C492.581 266.67 493.402 266.055 494.642 266.055C495.892 266.055 496.683 266.66 496.8 267.637H498.421C498.343 265.918 496.8 264.668 494.7 264.668C492.464 264.668 490.911 265.908 490.911 267.646ZM297.128 292.174C296.913 290.348 295.399 288.668 292.86 288.668C290.057 288.668 288.192 290.719 288.192 293.922C288.192 297.193 290.067 299.176 292.88 299.176C295.184 299.176 296.884 297.75 297.147 295.729H295.477C295.184 296.949 294.276 297.682 292.889 297.682C291.132 297.682 289.921 296.285 289.921 293.922C289.921 291.617 291.112 290.162 292.87 290.162C294.364 290.162 295.223 291.07 295.468 292.174H297.128ZM302.619 299.176C305.421 299.176 307.316 297.154 307.316 293.922C307.316 290.68 305.421 288.668 302.619 288.668C299.806 288.668 297.912 290.68 297.912 293.922C297.912 297.154 299.806 299.176 302.619 299.176ZM302.619 297.682C300.822 297.682 299.64 296.314 299.64 293.922C299.64 291.529 300.822 290.162 302.619 290.162C304.416 290.162 305.587 291.529 305.587 293.922C305.587 296.314 304.416 297.682 302.619 297.682ZM308.735 299H310.434V292.633C310.434 291.227 311.411 290.172 312.758 290.172C314.018 290.172 314.838 290.973 314.838 292.193V299H316.537V292.545C316.537 291.168 317.485 290.172 318.832 290.172C320.17 290.172 320.942 290.992 320.942 292.379V299H322.641V291.988C322.641 289.977 321.342 288.668 319.33 288.668C317.905 288.668 316.713 289.391 316.147 290.602H316.108C315.668 289.371 314.643 288.668 313.256 288.668C311.889 288.668 310.854 289.391 310.375 290.465H310.336V288.844H308.735V299ZM329.441 288.668C327.966 288.668 326.784 289.42 326.159 290.562H326.12V288.844H324.509V302.389H326.208V297.35H326.247C326.853 298.463 328.025 299.176 329.48 299.176C332.038 299.176 333.786 297.105 333.786 293.922C333.786 290.738 332.029 288.668 329.441 288.668ZM329.109 297.682C327.37 297.682 326.198 296.188 326.198 293.922C326.198 291.666 327.37 290.162 329.109 290.162C330.915 290.162 332.048 291.627 332.048 293.922C332.048 296.227 330.915 297.682 329.109 297.682ZM338.555 297.73C337.334 297.73 336.523 297.096 336.523 296.129C336.523 295.172 337.305 294.566 338.672 294.479L341.387 294.312V295.143C341.387 296.607 340.156 297.73 338.555 297.73ZM338.174 299.176C339.541 299.176 340.83 298.414 341.436 297.252H341.475V299H343.086V291.979C343.086 289.957 341.582 288.668 339.199 288.668C336.797 288.668 335.293 290.016 335.176 291.773H336.816C337.031 290.777 337.852 290.162 339.16 290.162C340.566 290.162 341.387 290.904 341.387 292.145V292.994L338.477 293.16C336.133 293.297 334.795 294.391 334.795 296.129C334.795 297.955 336.152 299.176 338.174 299.176ZM344.944 299H346.643V292.672C346.643 291.236 347.503 290.289 348.821 290.289C349.231 290.289 349.593 290.338 349.729 290.387V288.736C349.593 288.717 349.339 288.668 349.046 288.668C347.854 288.668 346.917 289.381 346.585 290.504H346.546V288.844H344.944V299ZM354.4 290.143C356.002 290.143 357.066 291.354 357.105 293.053H351.587C351.695 291.363 352.808 290.143 354.4 290.143ZM357.066 296.09C356.783 297.047 355.836 297.701 354.546 297.701C352.72 297.701 351.578 296.422 351.578 294.479V294.381H358.863V293.736C358.863 290.66 357.173 288.668 354.429 288.668C351.627 288.668 349.83 290.807 349.83 293.961C349.83 297.154 351.597 299.176 354.507 299.176C356.724 299.176 358.443 297.867 358.736 296.09H357.066ZM364.129 299.176C365.594 299.176 366.756 298.453 367.411 297.281H367.44V299H369.061V284.908H367.362V290.494H367.323C366.717 289.381 365.545 288.668 364.09 288.668C361.532 288.668 359.784 290.738 359.784 293.922C359.784 297.105 361.541 299.176 364.129 299.176ZM364.452 290.162C366.2 290.162 367.371 291.656 367.371 293.922C367.371 296.197 366.2 297.682 364.452 297.682C362.655 297.682 361.522 296.227 361.522 293.922C361.522 291.627 362.655 290.162 364.452 290.162ZM375.404 286.393V288.844H373.891V290.24H375.404V296.363C375.404 298.316 376.127 299.078 377.992 299.078C378.393 299.078 378.861 299.049 379.066 299V297.574C378.949 297.594 378.559 297.623 378.363 297.623C377.494 297.623 377.104 297.203 377.104 296.275V290.24H379.076V288.844H377.104V286.393H375.404ZM384.509 299.176C387.311 299.176 389.206 297.154 389.206 293.922C389.206 290.68 387.311 288.668 384.509 288.668C381.696 288.668 379.802 290.68 379.802 293.922C379.802 297.154 381.696 299.176 384.509 299.176ZM384.509 297.682C382.712 297.682 381.53 296.314 381.53 293.922C381.53 291.529 382.712 290.162 384.509 290.162C386.305 290.162 387.477 291.529 387.477 293.922C387.477 296.314 386.305 297.682 384.509 297.682ZM394.973 286.393V288.844H393.459V290.24H394.973V296.363C394.973 298.316 395.696 299.078 397.561 299.078C397.961 299.078 398.43 299.049 398.635 299V297.574C398.518 297.594 398.127 297.623 397.932 297.623C397.063 297.623 396.672 297.203 396.672 296.275V290.24H398.645V288.844H396.672V286.393H394.973ZM400.249 299H401.948V293.082C401.948 291.324 402.993 290.172 404.683 290.172C406.275 290.172 407.085 291.139 407.085 292.75V299H408.784V292.438C408.784 290.172 407.437 288.668 405.21 288.668C403.667 288.668 402.554 289.332 401.987 290.465H401.948V284.908H400.249V299ZM414.715 290.143C416.316 290.143 417.381 291.354 417.42 293.053H411.902C412.01 291.363 413.123 290.143 414.715 290.143ZM417.381 296.09C417.098 297.047 416.15 297.701 414.861 297.701C413.035 297.701 411.893 296.422 411.893 294.479V294.381H419.178V293.736C419.178 290.66 417.488 288.668 414.744 288.668C411.941 288.668 410.145 290.807 410.145 293.961C410.145 297.154 411.912 299.176 414.822 299.176C417.039 299.176 418.758 297.867 419.051 296.09H417.381ZM424.486 299H426.185V284.908H424.486V299ZM431.53 297.73C430.309 297.73 429.498 297.096 429.498 296.129C429.498 295.172 430.28 294.566 431.647 294.479L434.362 294.312V295.143C434.362 296.607 433.131 297.73 431.53 297.73ZM431.149 299.176C432.516 299.176 433.805 298.414 434.411 297.252H434.45V299H436.061V291.979C436.061 289.957 434.557 288.668 432.174 288.668C429.772 288.668 428.268 290.016 428.151 291.773H429.791C430.006 290.777 430.827 290.162 432.135 290.162C433.541 290.162 434.362 290.904 434.362 292.145V292.994L431.452 293.16C429.108 293.297 427.77 294.391 427.77 296.129C427.77 297.955 429.127 299.176 431.149 299.176ZM437.743 291.646C437.743 293.033 438.622 293.951 440.409 294.41L442.196 294.869C443.339 295.172 443.759 295.562 443.759 296.285C443.759 297.203 442.909 297.789 441.532 297.789C440.155 297.789 439.355 297.223 439.169 296.168H437.47C437.646 297.965 439.198 299.176 441.425 299.176C443.798 299.176 445.468 297.926 445.468 296.158C445.468 294.664 444.726 293.922 442.675 293.404L441.103 293.023C439.95 292.73 439.413 292.262 439.413 291.559C439.413 290.67 440.234 290.055 441.474 290.055C442.724 290.055 443.515 290.66 443.632 291.637H445.253C445.175 289.918 443.632 288.668 441.532 288.668C439.296 288.668 437.743 289.908 437.743 291.646ZM447.482 286.393V288.844H445.969V290.24H447.482V296.363C447.482 298.316 448.205 299.078 450.07 299.078C450.471 299.078 450.939 299.049 451.145 299V297.574C451.027 297.594 450.637 297.623 450.441 297.623C449.572 297.623 449.182 297.203 449.182 296.275V290.24H451.154V288.844H449.182V286.393H447.482ZM469.392 288.844H467.712L465.681 297.105H465.642L463.337 288.844H461.697L459.402 297.105H459.363L457.332 288.844H455.642L458.484 299H460.212L462.498 291.139H462.537L464.832 299H466.56L469.392 288.844ZM474.561 290.143C476.162 290.143 477.227 291.354 477.266 293.053H471.748C471.856 291.363 472.969 290.143 474.561 290.143ZM477.227 296.09C476.944 297.047 475.996 297.701 474.707 297.701C472.881 297.701 471.739 296.422 471.739 294.479V294.381H479.024V293.736C479.024 290.66 477.334 288.668 474.59 288.668C471.787 288.668 469.991 290.807 469.991 293.961C469.991 297.154 471.758 299.176 474.668 299.176C476.885 299.176 478.604 297.867 478.897 296.09H477.227ZM484.515 290.143C486.116 290.143 487.181 291.354 487.22 293.053H481.702C481.81 291.363 482.923 290.143 484.515 290.143ZM487.181 296.09C486.898 297.047 485.95 297.701 484.661 297.701C482.835 297.701 481.693 296.422 481.693 294.479V294.381H488.978V293.736C488.978 290.66 487.288 288.668 484.544 288.668C481.741 288.668 479.945 290.807 479.945 293.961C479.945 297.154 481.712 299.176 484.622 299.176C486.839 299.176 488.558 297.867 488.851 296.09H487.181ZM492.184 293.355V284.908H490.484V299H492.184V295.172L493.131 294.273L496.9 299H498.873L494.332 293.229L498.736 288.844H496.676L492.184 293.355Z" fill="#FAFAFA"/>
</svg>
